<svg xmlns="http://www.w3.org/2000/svg" width="13.923" height="14.085" viewBox="0 0 13.923 14.085">
  <g id="Group_51" data-name="Group 51" transform="translate(0)">
    <path id="Path_91" data-name="Path 91" d="M16.27,45.333H14.813a.486.486,0,0,0,0,.971h.971V57.151H3.8V46.3H5.1a.486.486,0,0,0,0-.971H3.319a.487.487,0,0,0-.486.486V57.637a.487.487,0,0,0,.486.486H16.27a.487.487,0,0,0,.486-.486V45.819A.487.487,0,0,0,16.27,45.333Z" transform="translate(-2.833 -44.038)" fill="#fff"/>
    <path id="Path_92" data-name="Path 92" d="M205.862,45.333h-1.376a.486.486,0,0,0,0,.971h1.376a.486.486,0,0,0,0-.971Z" transform="translate(-198.253 -44.038)" fill="#fff"/>
    <path id="Path_93" data-name="Path 93" d="M89.452,351.333H88.319a.487.487,0,0,0-.486.486v.809a.487.487,0,0,0,.486.486h1.133a.487.487,0,0,0,.486-.486v-.809A.487.487,0,0,0,89.452,351.333Z" transform="translate(-85.405 -341.296)" fill="#fff"/>
    <path id="Path_94" data-name="Path 94" d="M208.533,351.333h-1.214a.487.487,0,0,0-.486.486v.809a.487.487,0,0,0,.486.486h1.214a.487.487,0,0,0,.486-.486v-.809A.487.487,0,0,0,208.533,351.333Z" transform="translate(-201.005 -341.296)" fill="#fff"/>
    <path id="Path_95" data-name="Path 95" d="M89.938,258.319a.487.487,0,0,0-.486-.486H88.319a.487.487,0,0,0-.486.486v.809a.487.487,0,0,0,.486.486h1.133a.487.487,0,0,0,.486-.486Z" transform="translate(-85.405 -250.467)" fill="#fff"/>
    <path id="Path_96" data-name="Path 96" d="M209.019,258.319a.487.487,0,0,0-.486-.486h-1.214a.487.487,0,0,0-.486.486v.809a.487.487,0,0,0,.486.486h1.214a.487.487,0,0,0,.486-.486Z" transform="translate(-201.005 -250.467)" fill="#fff"/>
    <path id="Path_97" data-name="Path 97" d="M330.285,257.833h-1.133a.487.487,0,0,0-.486.486v.809a.487.487,0,0,0,.486.486h1.133a.487.487,0,0,0,.486-.486v-.809A.487.487,0,0,0,330.285,257.833Z" transform="translate(-319.357 -250.467)" fill="#fff"/>
    <path id="Path_98" data-name="Path 98" d="M87.833,161.986v.809a.487.487,0,0,0,.486.486h1.133a.487.487,0,0,0,.486-.486v-.809a.487.487,0,0,0-.486-.486H88.319A.487.487,0,0,0,87.833,161.986Z" transform="translate(-85.405 -156.886)" fill="#fff"/>
    <path id="Path_99" data-name="Path 99" d="M209.019,161.986a.487.487,0,0,0-.486-.486h-1.214a.487.487,0,0,0-.486.486v.809a.487.487,0,0,0,.486.486h1.214a.487.487,0,0,0,.486-.486Z" transform="translate(-201.005 -156.886)" fill="#fff"/>
    <path id="Path_100" data-name="Path 100" d="M330.771,161.986a.487.487,0,0,0-.486-.486h-1.133a.487.487,0,0,0-.486.486v.809a.487.487,0,0,0,.486.486h1.133a.487.487,0,0,0,.486-.486Z" transform="translate(-319.357 -156.886)" fill="#fff"/>
    <path id="Path_101" data-name="Path 101" d="M122.8,3.238a.487.487,0,0,0,.486-.486V.486A.487.487,0,0,0,122.8,0h-.486a.487.487,0,0,0-.486.486V2.752a.487.487,0,0,0,.486.486Z" transform="translate(-118.433 0)" fill="#fff"/>
    <path id="Path_102" data-name="Path 102" d="M318.3,0h-.486a.487.487,0,0,0-.486.486V2.752a.487.487,0,0,0,.486.486h.486a.487.487,0,0,0,.486-.486V.486A.487.487,0,0,0,318.3,0Z" transform="translate(-308.348)" fill="#fff"/>
  </g>
</svg>
