<svg xmlns="http://www.w3.org/2000/svg" width="25.235" height="28.713" viewBox="0 0 25.235 28.713">
  <g id="home_1_" data-name="home (1)" transform="translate(-5.6 -1.925)">
    <g id="Group_211" data-name="Group 211" transform="translate(5.6 1.925)">
      <g id="Group_210" data-name="Group 210" transform="translate(0 0)">
        <path id="Path_6258" data-name="Path 6258" d="M27.585,30.638H8.85a3.253,3.253,0,0,1-3.25-3.25V12.906A3.2,3.2,0,0,1,6.795,10.42l9.368-7.743a3.182,3.182,0,0,1,4.11,0l9.368,7.695a3.2,3.2,0,0,1,1.195,2.485V27.34a3.264,3.264,0,0,1-3.25,3.3ZM18.218,3.873a1.432,1.432,0,0,0-.86.287L7.99,11.9a1.345,1.345,0,0,0-.478,1V27.387A1.336,1.336,0,0,0,8.85,28.726H27.585a1.336,1.336,0,0,0,1.338-1.338V12.906a1.345,1.345,0,0,0-.478-1L19.078,4.159a1.432,1.432,0,0,0-.86-.287Z" transform="translate(-5.6 -1.925)"/>
      </g>
    </g>
    <g id="Group_213" data-name="Group 213" transform="translate(11.527 24.52)">
      <g id="Group_212" data-name="Group 212" transform="translate(0 0)">
        <path id="Path_6259" data-name="Path 6259" d="M30.427,51.112H18.956a.956.956,0,1,1,0-1.912H30.427a.956.956,0,1,1,0,1.912Z" transform="translate(-18 -49.2)"/>
      </g>
    </g>
  </g>
</svg>
