<?xml version="1.0" standalone="no"?>
<!DOCTYPE svg PUBLIC "-//W3C//DTD SVG 20010904//EN"
 "http://www.w3.org/TR/2001/REC-SVG-20010904/DTD/svg10.dtd">
<svg version="1.0" xmlns="http://www.w3.org/2000/svg"
 width="149.000000pt" height="149.000000pt" viewBox="0 0 149.000000 149.000000"
 preserveAspectRatio="xMidYMid meet">

<g transform="translate(0.000000,149.000000) scale(0.100000,-0.100000)"
fill="#000000" stroke="none">
<path d="M635 1431 c-16 -3 -29 -10 -27 -14 1 -4 2 -17 2 -30 0 -22 1 -22 133
-22 76 0 135 4 139 10 4 6 8 20 8 31 0 17 -8 23 -37 28 -47 7 -178 6 -218 -3z"/>
<path d="M453 1374 c-58 -29 -60 -34 -38 -68 l15 -23 47 23 c25 13 52 24 60
24 16 0 16 -1 2 39 -13 38 -20 38 -86 5z"/>
<path d="M960 1374 c-15 -37 -15 -37 48 -61 l57 -23 18 21 c9 12 17 25 17 29
0 8 -104 60 -121 60 -5 0 -14 -12 -19 -26z"/>
<path d="M276 1251 c-49 -49 -49 -51 -31 -71 10 -11 22 -20 26 -20 5 0 29 19
55 43 l46 43 -23 28 -24 27 -49 -50z"/>
<path d="M1145 1274 c-17 -27 -17 -27 28 -71 45 -44 46 -44 71 -27 14 9 26 19
26 23 0 8 -93 101 -102 101 -3 0 -13 -12 -23 -26z"/>
<path d="M147 1098 c-40 -70 -42 -86 -12 -100 29 -13 31 -12 68 53 25 44 25
47 9 61 -34 30 -40 28 -65 -14z"/>
<path d="M1291 1121 l-24 -18 32 -57 c18 -31 34 -56 36 -56 10 0 55 24 55 29
-1 14 -57 115 -66 118 -5 1 -20 -6 -33 -16z"/>
<path d="M556 1098 c-21 -30 -20 -54 4 -78 41 -41 110 -13 110 46 0 51 -84 75
-114 32z"/>
<path d="M806 1098 c-21 -30 -20 -54 4 -78 41 -41 110 -13 110 46 0 51 -84 75
-114 32z"/>
<path d="M575 938 c-3 -7 -4 -121 -3 -253 3 -212 5 -240 19 -243 9 -2 24 4 33
13 13 14 16 42 16 171 l0 155 23 -27 c20 -23 26 -25 45 -15 16 8 28 9 41 1 30
-16 40 -12 54 17 10 23 13 4 17 -135 5 -168 10 -186 50 -179 13 2 15 40 18
255 l2 253 -32 -3 c-31 -3 -36 -9 -77 -95 -25 -51 -47 -93 -50 -93 -3 0 -26
42 -51 93 -39 80 -49 92 -73 95 -16 2 -29 -2 -32 -10z"/>
<path d="M71 907 c-5 -18 -11 -50 -13 -72 -3 -38 -2 -40 28 -43 30 -3 31 -2
43 54 15 75 15 70 -18 82 -28 10 -30 9 -40 -21z"/>
<path d="M1383 930 c-26 -11 -27 -19 -12 -90 11 -51 23 -59 63 -44 16 6 15 26
-5 107 -10 40 -12 41 -46 27z"/>
<path d="M55 658 c9 -76 10 -78 40 -78 33 0 37 11 29 80 l-7 60 -34 0 -35 0 7
-62z"/>
<path d="M1374 656 l-10 -64 30 -6 c36 -7 37 -7 47 46 15 80 13 88 -24 88 -34
0 -34 0 -43 -64z"/>
<path d="M1316 467 c-29 -62 -29 -61 15 -87 12 -7 21 2 42 46 34 68 34 80 -1
92 -27 9 -28 8 -56 -51z"/>
<path d="M113 508 l-22 -10 32 -64 c17 -35 34 -64 37 -64 3 0 15 9 28 18 l24
18 -28 57 c-29 59 -35 63 -71 45z"/>
<path d="M1202 306 c-48 -50 -50 -56 -22 -81 20 -18 22 -18 70 30 39 38 47 52
38 62 -29 35 -43 33 -86 -11z"/>
<path d="M223 322 l-22 -17 28 -30 c15 -16 39 -40 53 -53 l25 -23 18 27 c17
26 17 26 -26 70 -24 24 -46 44 -49 44 -3 0 -15 -8 -27 -18z"/>
<path d="M384 184 c-10 -15 -13 -29 -8 -34 10 -9 108 -60 117 -60 3 0 10 13
15 30 11 29 10 30 -49 59 l-59 31 -16 -26z"/>
<path d="M1037 181 c-44 -24 -48 -29 -42 -55 3 -16 7 -31 9 -34 5 -4 106 45
120 59 12 11 -12 60 -28 58 -6 -1 -33 -13 -59 -28z"/>
<path d="M580 105 c-5 -14 -10 -30 -10 -35 0 -10 57 -23 110 -24 32 -1 35 2
38 30 3 31 2 31 -48 38 -27 4 -57 9 -65 12 -10 4 -18 -3 -25 -21z"/>
<path d="M840 116 c-54 -11 -55 -12 -52 -43 2 -19 9 -33 16 -33 20 0 119 20
124 24 8 9 -10 66 -21 65 -7 -1 -37 -7 -67 -13z"/>
</g>
</svg>
