<svg xmlns="http://www.w3.org/2000/svg" width="33.647" height="29.984" viewBox="0 0 33.647 29.984">
  <g id="calendar" transform="translate(0 -20.9)">
    <g id="Group_188" data-name="Group 188" transform="translate(0 20.9)">
      <g id="Group_187" data-name="Group 187" transform="translate(0 0)">
        <path id="Path_6246" data-name="Path 6246" d="M30.159,23.451H28.047V21.776a.876.876,0,0,0-1.753,0v1.674H17.7V21.776a.876.876,0,0,0-1.753,0v1.674H7.275V21.776a.876.876,0,0,0-1.753,0v1.674H3.5A3.547,3.547,0,0,0,0,27V47.378a3.5,3.5,0,0,0,3.5,3.506H30.15a3.5,3.5,0,0,0,3.5-3.5V27A3.533,3.533,0,0,0,30.159,23.451ZM31.9,47.378a1.749,1.749,0,0,1-1.735,1.753H3.5a1.743,1.743,0,0,1-1.744-1.744V27A1.783,1.783,0,0,1,3.5,25.2H5.522v1.271a.876.876,0,0,0,1.753,0V25.2h8.677v1.271a.876.876,0,0,0,1.753,0V25.2h8.589v1.271a.876.876,0,0,0,1.753,0V25.2h2.112A1.783,1.783,0,0,1,31.9,27Z" transform="translate(0 -20.9)"/>
      </g>
    </g>
    <g id="Group_190" data-name="Group 190" transform="translate(12.113 33.9)">
      <g id="Group_189" data-name="Group 189" transform="translate(0 0)">
        <path id="Path_6247" data-name="Path 6247" d="M140.61,135h-1.534a.876.876,0,0,0,0,1.753h1.534a.876.876,0,0,0,0-1.753Z" transform="translate(-138.2 -135)"/>
      </g>
    </g>
    <g id="Group_192" data-name="Group 192" transform="translate(18.213 33.9)">
      <g id="Group_191" data-name="Group 191" transform="translate(0 0)">
        <path id="Path_6248" data-name="Path 6248" d="M210.21,135h-1.534a.876.876,0,0,0,0,1.753h1.534a.876.876,0,0,0,0-1.753Z" transform="translate(-207.8 -135)"/>
      </g>
    </g>
    <g id="Group_194" data-name="Group 194" transform="translate(24.366 33.9)">
      <g id="Group_193" data-name="Group 193" transform="translate(0 0)">
        <path id="Path_6249" data-name="Path 6249" d="M280.41,135h-1.534a.876.876,0,0,0,0,1.753h1.534a.876.876,0,0,0,0-1.753Z" transform="translate(-278 -135)"/>
      </g>
    </g>
    <g id="Group_196" data-name="Group 196" transform="translate(12.113 39.948)">
      <g id="Group_195" data-name="Group 195" transform="translate(0 0)">
        <path id="Path_6250" data-name="Path 6250" d="M140.61,204h-1.534a.876.876,0,1,0,0,1.753h1.534a.876.876,0,0,0,0-1.753Z" transform="translate(-138.2 -204)"/>
      </g>
    </g>
    <g id="Group_198" data-name="Group 198" transform="translate(5.96 39.948)">
      <g id="Group_197" data-name="Group 197" transform="translate(0 0)">
        <path id="Path_6251" data-name="Path 6251" d="M70.419,204H68.876a.876.876,0,1,0,0,1.753H70.41A.876.876,0,0,0,70.419,204Z" transform="translate(-68 -204)"/>
      </g>
    </g>
    <g id="Group_200" data-name="Group 200" transform="translate(18.213 39.948)">
      <g id="Group_199" data-name="Group 199" transform="translate(0 0)">
        <path id="Path_6252" data-name="Path 6252" d="M210.21,204h-1.534a.876.876,0,0,0,0,1.753h1.534a.876.876,0,1,0,0-1.753Z" transform="translate(-207.8 -204)"/>
      </g>
    </g>
    <g id="Group_202" data-name="Group 202" transform="translate(24.366 39.948)">
      <g id="Group_201" data-name="Group 201" transform="translate(0 0)">
        <path id="Path_6253" data-name="Path 6253" d="M280.41,204h-1.534a.876.876,0,0,0,0,1.753h1.534a.876.876,0,1,0,0-1.753Z" transform="translate(-278 -204)"/>
      </g>
    </g>
  </g>
</svg>
