<svg xmlns="http://www.w3.org/2000/svg" width="29.422" height="29.423" viewBox="0 0 29.422 29.423">
  <g id="search-interface-symbol" transform="translate(-0.006)">
    <g id="_x34__4_" transform="translate(0.006)">
      <g id="Group_209" data-name="Group 209" transform="translate(0)">
        <path id="Path_6257" data-name="Path 6257" d="M29.149,27.822l-7.6-7.475a12.015,12.015,0,0,0,3.212-8.165A12.283,12.283,0,0,0,12.385,0,12.281,12.281,0,0,0,.006,12.182,12.281,12.281,0,0,0,12.385,24.364a12.449,12.449,0,0,0,7.791-2.72l7.626,7.5a.963.963,0,0,0,1.346,0A.927.927,0,0,0,29.149,27.822ZM12.385,22.49A10.392,10.392,0,0,1,1.911,12.182,10.392,10.392,0,0,1,12.385,1.874,10.392,10.392,0,0,1,22.859,12.182,10.392,10.392,0,0,1,12.385,22.49Z" transform="translate(-0.006)"/>
      </g>
    </g>
  </g>
</svg>
