<svg xmlns="http://www.w3.org/2000/svg" width="13.404" height="12.777" viewBox="0 0 13.404 12.777">
  <g id="folded-newspaper" transform="translate(0 0)">
    <g id="Group_68" data-name="Group 68" transform="translate(0 0)">
      <path id="Path_127" data-name="Path 127" d="M2.312,24.11H11.7a.458.458,0,0,0,.2-.047,2.667,2.667,0,0,0,1.5-2.179V14.547a.472.472,0,0,0-.47-.47H11.288V11.8a.472.472,0,0,0-.47-.47H.47A.472.472,0,0,0,0,11.8v9.979a.447.447,0,0,0,.008.1C.031,21.978.525,24.11,2.312,24.11ZM.941,12.274h9.407v8.858a.47.47,0,0,0,.941,0V15.017h1.176v6.867a1.652,1.652,0,0,1-.886,1.286H2.312c-.925,0-1.3-1.2-1.372-1.45V12.274Z" transform="translate(0 -11.333)"/>
      <path id="Path_128" data-name="Path 128" d="M88.136,102.47a.472.472,0,0,0-.47-.47H85.47a.472.472,0,0,0-.47.47v2.508a.472.472,0,0,0,.47.47h2.195a.472.472,0,0,0,.47-.47Zm-2.195.47h1.254v1.568H85.941Z" transform="translate(-82.648 -99.492)"/>
      <path id="Path_129" data-name="Path 129" d="M79.8,352.274h6.114a.47.47,0,0,0,0-.941H79.8a.47.47,0,0,0,0,.941Z" transform="translate(-77.138 -341.926)"/>
      <path id="Path_130" data-name="Path 130" d="M82.637,270.108h5.957a.47.47,0,1,0,0-.941H82.637a.47.47,0,1,0,0,.941Z" transform="translate(-79.894 -262.034)"/>
      <path id="Path_131" data-name="Path 131" d="M235.637,105.774h1.8a.47.47,0,0,0,0-.941h-1.8a.47.47,0,1,0,0,.941Z" transform="translate(-228.661 -102.246)"/>
      <path id="Path_132" data-name="Path 132" d="M235.637,187.941h1.8a.47.47,0,0,0,0-.941h-1.8a.47.47,0,1,0,0,.941Z" transform="translate(-228.661 -182.14)"/>
    </g>
  </g>
</svg>
