<svg xmlns="http://www.w3.org/2000/svg" width="15.197" height="18.863" viewBox="0 0 15.197 18.863">
  <g id="Icon_ionic-ios-notifications-outline" data-name="Icon ionic-ios-notifications-outline" transform="translate(0.263 0.25)">
    <path id="Path_5697" data-name="Path 5697" d="M18.4,28.336a.594.594,0,0,0-.583.468,1.15,1.15,0,0,1-.229.5.867.867,0,0,1-.739.271.882.882,0,0,1-.739-.271,1.15,1.15,0,0,1-.229-.5.594.594,0,0,0-.583-.468h0a.6.6,0,0,0-.583.73,2.051,2.051,0,0,0,2.134,1.7,2.047,2.047,0,0,0,2.134-1.7.6.6,0,0,0-.583-.73Z" transform="translate(-9.527 -12.405)" fill="#191919" stroke="#191919" stroke-width="0.5"/>
    <path id="Path_5698" data-name="Path 5698" d="M21.262,17.529c-.707-.932-2.1-1.478-2.1-5.65,0-4.282-1.891-6-3.653-6.416-.165-.041-.285-.1-.285-.271V5.06a1.126,1.126,0,0,0-1.1-1.129H14.1A1.126,1.126,0,0,0,13,5.06v.133c0,.17-.119.229-.285.271C10.944,5.881,9.058,7.6,9.058,11.88c0,4.172-1.391,4.714-2.1,5.65a.911.911,0,0,0,.73,1.459H20.546A.912.912,0,0,0,21.262,17.529Zm-1.79.266H8.769a.2.2,0,0,1-.151-.335,5.56,5.56,0,0,0,.964-1.533,10.4,10.4,0,0,0,.656-4.048A7.039,7.039,0,0,1,11.2,7.9a2.945,2.945,0,0,1,1.776-1.267,1.608,1.608,0,0,0,.854-.482.363.363,0,0,1,.546-.009,1.663,1.663,0,0,0,.863.491A2.945,2.945,0,0,1,17.012,7.9a7.039,7.039,0,0,1,.959,3.984,10.4,10.4,0,0,0,.656,4.048,5.624,5.624,0,0,0,.987,1.556A.19.19,0,0,1,19.472,17.8Z" transform="translate(-6.775 -3.93)" fill="#191919" stroke="#191919" stroke-width="0.5"/>
  </g>
</svg>
