<svg id="share_1_" data-name="share (1)" xmlns="http://www.w3.org/2000/svg" width="22.974" height="22.974" viewBox="0 0 22.974 22.974">
  <path id="Path_47" data-name="Path 47" d="M0,0H22.974V22.974H0Z" fill="none"/>
  <path id="Path_48" data-name="Path 48" d="M17.359,15.478a2.788,2.788,0,0,0-1.876.737L8.657,12.243a3.134,3.134,0,0,0,.086-.67,3.134,3.134,0,0,0-.086-.67l6.749-3.934a2.865,2.865,0,1,0-.919-2.1,3.134,3.134,0,0,0,.086.67L7.825,9.476a2.872,2.872,0,1,0,0,4.193l6.816,3.982a2.7,2.7,0,0,0-.077.622,2.8,2.8,0,1,0,2.8-2.8Z" transform="translate(-0.128 -0.086)"/>
</svg>
