<svg xmlns="http://www.w3.org/2000/svg" xmlns:xlink="http://www.w3.org/1999/xlink" width="32.115" height="33.629" viewBox="0 0 32.115 33.629"><defs><style>.a{fill:none;stroke:#000;stroke-linecap:round;stroke-linejoin:round;stroke-width:2px;}.b{filter:url(#c);}.c{filter:url(#a);}</style><filter id="a" x="0" y="9.086" width="32.115" height="24.543" filterUnits="userSpaceOnUse"><feOffset dy="3" input="SourceAlpha"/><feGaussianBlur stdDeviation="3" result="b"/><feFlood flood-opacity="0.161"/><feComposite operator="in" in2="b"/><feComposite in="SourceGraphic"/></filter><filter id="c" x="3.029" y="0" width="26.057" height="26.057" filterUnits="userSpaceOnUse"><feOffset dy="3" input="SourceAlpha"/><feGaussianBlur stdDeviation="3" result="d"/><feFlood flood-opacity="0.161"/><feComposite operator="in" in2="d"/><feComposite in="SourceGraphic"/></filter></defs><g transform="translate(10 7)"><g class="c" transform="matrix(1, 0, 0, 1, -10, -7)"><path class="a" d="M18.115,27.043V25.529A3.029,3.029,0,0,0,15.086,22.5H9.029A3.029,3.029,0,0,0,6,25.529v1.514" transform="translate(4 -6.41)"/></g><g class="b" transform="matrix(1, 0, 0, 1, -10, -7)"><path class="a" d="M18.057,7.529A3.029,3.029,0,1,1,15.029,4.5,3.029,3.029,0,0,1,18.057,7.529Z" transform="translate(1.03 2.5)"/></g></g></svg>