<svg xmlns="http://www.w3.org/2000/svg" width="152.829" height="158.187" viewBox="0 0 152.829 158.187">
  <g id="Group_88" data-name="Group 88" transform="translate(-751.857 -319.484)">
    <path id="Path_1390" data-name="Path 1390" d="M886.093,1383.005c0,10.364-31.187,18.142-68.839,18.142s-64.4-9.993-64.4-20.358c0-2.1,1.1-4.169,3.378-6.315,7.93-7.489,31.01-13.479,61.019-13.479C856.664,1361,886.093,1372.641,886.093,1383.005Z" transform="translate(0 -924.477)" fill="none" stroke="#49495e" stroke-miterlimit="10" stroke-width="2"/>
    <path id="Path_1391" data-name="Path 1391" d="M1203.613,1525.539c0,1.576-18.437,3.407-39.68,3.407s-38.464-1.278-38.464-2.854,17.221-2.854,38.464-2.854S1203.613,1523.963,1203.613,1525.539Z" transform="translate(-330.74 -1068.487)" fill="#32323f" opacity="0.17"/>
    <g id="Group_82" data-name="Group 82" transform="translate(870.262 423.278)">
      <g id="Group_80" data-name="Group 80" transform="translate(0 3.09)">
        <path id="Path_1392" data-name="Path 1392" d="M1797.974,1277.536a.275.275,0,0,0,.207-.156,11.107,11.107,0,0,1,6.966-6.191.276.276,0,1,0-.169-.525,11.633,11.633,0,0,0-7.3,6.482.276.276,0,0,0,.292.389Z" transform="translate(-1797.656 -1270.651)" fill="#603a3e"/>
      </g>
      <g id="Group_81" data-name="Group 81" transform="translate(0.676)">
        <path id="Path_1393" data-name="Path 1393" d="M1803.987,1248.247a.275.275,0,0,0,.166-.092,12.737,12.737,0,0,1,3.675-3.051,13.513,13.513,0,0,1,4.545-1.4h0a.276.276,0,0,0-.083-.545,12.73,12.73,0,0,0-8.558,4.635.276.276,0,0,0,.251.452Z" transform="translate(-1803.669 -1243.157)" fill="#603a3e"/>
      </g>
    </g>
    <path id="Path_1394" data-name="Path 1394" d="M1801.757,326.71a3.271,3.271,0,0,0,.988-2.77c-.022-.587-.655-2.319.335-2.561.547-.134.322,1.78,1.157,1.365.78-.387,1.783-3.432,2.729-3.253,3.992.754,1.346,4.349.919,4.986-1.151,1.716-2.315,2.235-3.51,4.662s-3.639.605-3.639.605Z" transform="translate(-930.128)" fill="#efaea6"/>
    <path id="Path_1395" data-name="Path 1395" d="M1946.358,1243.992c-.8-1.739-3.357-5.84-3.357-5.84l-4.46,2.393,3.893,6.125,4.05.3Z" transform="translate(-1052.448 -815.437)" fill="#efaea6"/>
    <path id="Path_1396" data-name="Path 1396" d="M1972.7,1287.634c.459-.295.417.256.866.947,1.029,1.581,7.284,4.2,8.294,4.335,1.177.156,2.22,2.97-.356,2.8-2.382-.158-8.595-1.189-11.018-1a1.312,1.312,0,0,1-1.3-.444c-1-1.525-1.793-4.157-1.169-4.438C1968.884,1289.186,1970.792,1288.862,1972.7,1287.634Z" transform="translate(-1078.418 -859.286)" fill="#1f1f39"/>
    <g id="Group_83" data-name="Group 83" transform="translate(836.097 443.057)">
      <path id="Path_1397" data-name="Path 1397" d="M1511.834,1427.147c.666-1.8,1.768-6.5,1.768-6.5l-4.843-1.471-1.592,7.081,2.642,3.084Z" transform="translate(-1505.646 -1419.176)" fill="#efaea6"/>
      <path id="Path_1398" data-name="Path 1398" d="M1500.4,1476.069c.544.036.183.453.134,1.276-.113,1.883,6.24,3.9,7.151,4.358a1.575,1.575,0,0,1-1.99,2.281c-2.13-.669-8.962-2.788-11.288-3.536a1.123,1.123,0,0,1-.781-1.13c.1-1.821,1.031-4.409,1.7-4.263C1496.405,1475.046,1498.132,1475.92,1500.4,1476.069Z" transform="translate(-1493.622 -1468.772)" fill="#1f1f39"/>
    </g>
    <path id="Path_1399" data-name="Path 1399" d="M1492.72,886.992a28.172,28.172,0,0,1-5.824,3.934c-2.086-2.862-15.28-22.092-17.811-22.836-3.559-1.046-10.7-4.453-16.093-7.143-3.866-1.929-6.834-3.488-6.941-3.543l0,0c1.706,7.667,3.445,14.771,4.006,23.389.023,11.515-6.848,29.49-6.848,29.49-4.232-.582-7.177-1.556-6.73-1.95,1.024-4.679,7.1-22.968,5.758-27.344-1.125-3.656-8.109-16.053-12.153-26.307-.8-2.025-1.483-3.967-1.985-5.741-.081-.289.768-1.077,2.07-2.091,3.731-2.9,11.189-7.64,11.189-7.64l4,.653c6.62,5.575,26.361,19.017,29.656,21.676S1492.259,885.659,1492.72,886.992Z" transform="translate(-599.358 -461.322)" fill="#181819"/>
    <path id="Path_1400" data-name="Path 1400" d="M1495.779,502.474l-3.7-2.882c.74-1.938,1.425-6.895,2.424-8.493,1.1-1.754,1.223-1.584,1.223-1.584l2.191,2.915,1.031,1.372a5.426,5.426,0,0,0-.673,2.114,11.255,11.255,0,0,0,.225,4.023C1498.786,501.208,1495.779,502.474,1495.779,502.474Z" transform="translate(-656.158 -150.921)" fill="#efaea6"/>
    <path id="Path_1401" data-name="Path 1401" d="M1522.056,516.866a7.515,7.515,0,0,0-.7,2.329c-3.075.135-3.806-2.468-2.853-2.939a20.421,20.421,0,0,1,2.523-.762Z" transform="translate(-679.262 -173.984)" fill="#1f1f39" opacity="0.14"/>
    <g id="Group_84" data-name="Group 84" transform="translate(837.864 332.534)">
      <path id="Path_1402" data-name="Path 1402" d="M1527.041,466.5c-.569,1.395-.424,4.693-1.326,4.229s-1.2,2.949-2.177,2.49c-2.37-1.11-4.3-3.95-4.031-5.229a24.769,24.769,0,0,1,2.031-4.339Z" transform="translate(-1518.343 -460.504)" fill="#efaea6"/>
      <path id="Path_1403" data-name="Path 1403" d="M1514.988,441.682c.691.46.625.646,1.267.659s.112-1.151,1.153-.82,2.125.808,2.784-.24c.954-1.517-.582-1.986-1.546-2.246-.62-.167-.14-1.455-1.287-1.973-.9-.406-1.057.159-1.876-.168-.494-.2-1.021-1.446-2.048-1.253-1.9.359-1.422,2.237-3.132,2.784-1.995.638-.346,5.008.183,4.85.617-.184.7-1.858,1.279-1.963.879-.158.683.423.961,1.195.3.825,1.328,1.391,1.18.014S1514.362,441.265,1514.988,441.682Z" transform="translate(-1509.343 -435.62)" fill="#1f1f39"/>
    </g>
    <g id="Group_86" data-name="Group 86" transform="translate(781.844 380.001)">
      <path id="Path_1404" data-name="Path 1404" d="M1150.173,895.521l1.011-1.323.594-.775c.033-.044.065-.089.095-.134a2.031,2.031,0,0,0,.352-1.065,1.044,1.044,0,0,0-.371-.874l-.644-.493-.1-.076-2.671-2.043a.887.887,0,0,0-.444-.176,1.812,1.812,0,0,0-1.544.8l-.612.8-.987,1.289.671.514.99-1.294.141-.183a1.362,1.362,0,0,1,1.142-.6.668.668,0,0,1,.344.133l2.355,1.8.2.152a1.135,1.135,0,0,1-.062,1.556l-.122.159-1,1.311-.006.008Z" transform="translate(-1129.791 -885.123)" fill="#201b2c"/>
      <path id="Path_1405" data-name="Path 1405" d="M1176.929,860.051c-.459.876-.093.811-.537,2.045s-.581,3.291-1.229,3.075-.621-1.13-.793-1.44-.006.718-.675.993a2.536,2.536,0,0,1-2.546-1.208,3.248,3.248,0,0,1,.5-2.969,14.32,14.32,0,0,1,2.61-2.476C1174.686,857.691,1176.929,860.051,1176.929,860.051Z" transform="translate(-1152.979 -858.029)" fill="#eeada5"/>
      <path id="Path_1406" data-name="Path 1406" d="M1187.951,911.985l.593-.775c.034-.044.065-.089.095-.134a2.033,2.033,0,0,0,.359-1.07,1.046,1.046,0,0,0-.372-.877l-.65-.486-.019-.015-.05-.036-.108.284v0l-.146.384-.186.489a1.139,1.139,0,0,1-.061,1.557l-.128.167-1,1.31.671.514Z" transform="translate(-1166.557 -902.91)" fill="#201b2c"/>
      <g id="Group_85" data-name="Group 85" transform="translate(0 0.737)">
        <path id="Path_1407" data-name="Path 1407" d="M1038.516,881.171l-7.315,9.67a1.3,1.3,0,0,1-1.823.253l-.031-.024-17.4-12.817c-1.945-1.471-.893-2.835-.46-3.407l6.628-9.328a2.892,2.892,0,0,1,3.806-.36l15.342,11.591.576.434A2.825,2.825,0,0,1,1038.516,881.171Z" transform="translate(-1010.811 -864.59)" fill="#603a3e"/>
        <path id="Path_1408" data-name="Path 1408" d="M1184.927,977.214l-7.315,9.67a1.3,1.3,0,0,1-1.823.253l-.031-.024a9.458,9.458,0,0,1,1.965-3.078c2.84-3.279,4.807-7.941,5.95-11.241l.576.435A2.825,2.825,0,0,1,1184.927,977.214Z" transform="translate(-1157.223 -960.634)" fill="#775155"/>
      </g>
    </g>
    <path id="Path_1409" data-name="Path 1409" d="M1430.085,892c-.8-2.025-1.483-3.967-1.985-5.742-.082-.288.767-1.078,2.07-2.091l8.344-2.915C1439.191,885.965,1433.5,889.537,1430.085,892Z" transform="translate(-599.361 -498.643)" fill="#1f1f39" opacity="0.71"/>
    <path id="Path_1410" data-name="Path 1410" d="M1464.42,552.207c1.67-.7,2.73,1.331,4.146,1.2.859-.077.717-.843,1.047-1.318.2-.293.693-.172,1.378-.22,1.8-.126,7.276,34.873,7.276,34.873a36.057,36.057,0,0,1-8.311,2.579c-3.6.452-9.544,0-9.594-1.278s.979-33.517.979-33.517A9.947,9.947,0,0,1,1464.42,552.207Z" transform="translate(-628.001 -206.274)" fill="#fff"/>
    <path id="Path_1411" data-name="Path 1411" d="M1226.588,573.026c2.24,5.164-.2,10.764.137,13.508.328,2.709,1.4,6.642-.825,8.5s-7.5,2.522-8.484,3.158c-1.193.772-4,.369-3.441-2.322.45-2.181,4.1-10.247,3.929-14.239a11.355,11.355,0,0,0-.254-2.206c-.114-.428-.243-.865-.38-1.3-.615-1.959-1.382-3.877-1.544-4.739v-.007a1.315,1.315,0,0,1-.03-.275c0-.01,0-.02,0-.027-.721.559-9.358,3.028-12.947,6.976-4.635,5.875-6.976,11.752-8.31,12.318a8.788,8.788,0,0,1-4.38-2.97s6.015-9.574,8.75-13.552c2.563-3.728,9.854-8.766,15.158-12.92,3.575-2.8,10.232-7.29,10.232-7.29C1224.694,557.569,1223.784,566.558,1226.588,573.026Z" transform="translate(-388.074 -209.62)" fill="#747474"/>
    <path id="Path_1412" data-name="Path 1412" d="M1418.2,703.4l.047.363v0c.194.9.932,2.756,1.528,4.655.136.435.265.872.379,1.3a11.351,11.351,0,0,1,.253,2.206c.033.777.261,1.631.282,2.556.083-.158-.032-.317.046-.518.419-1.082,1.478-9.587.991-11.535A12.226,12.226,0,0,0,1418.2,703.4Z" transform="translate(-590.577 -339.914)" fill="#1f1f39" opacity="0.28"/>
    <g id="Group_87" data-name="Group 87" transform="translate(794.346 345.398)">
      <path id="Path_1413" data-name="Path 1413" d="M1433.6,564.01c-.171-.147-2.48,3.294-5.149,4.2a6.3,6.3,0,0,1-2.3.341c-.488-.021-3.7-.528-4.535-.731,2.765-1.979,1.464-1.317,2.765-1.979,2,.909.9.989,2.108,1,.9.01,1.45-.767,2.265-1.009a14.489,14.489,0,0,0,3.925-1.948c.529-.359.676-.984,1.254-.938C1434.7,563.008,1433.822,564.2,1433.6,564.01Z" transform="translate(-1387.958 -561.501)" fill="#1f1f39" opacity="0.18"/>
      <path id="Path_1414" data-name="Path 1414" d="M1168.961,552a.957.957,0,0,0-.93-1.04c-.577-.046-.652.182-1.181.54a11.782,11.782,0,0,1-6.5,2.329c-2.581-.028-7.993-4.071-11.861-3.7s-5.42,3.61-10.966,3.824-11.122-2.786-12.76-2.7-2.653.318-2.689.959a3.172,3.172,0,0,0,1.711,2.374c1.074.586,10.928,2.452,13.593,2.414,4.351-.062,8.5-3.485,11.285-3.4s8.405,2.363,11.661,2.571c3.631.232,7.07-3.617,7.289-3.43a.987.987,0,0,0,.9.307C1168.834,553,1168.94,552.359,1168.961,552Z" transform="translate(-1122.07 -550.097)" fill="#f4ad00"/>
    </g>
    <path id="Path_1415" data-name="Path 1415" d="M1586.554,372.436c-.484,1.115-7.131,13.9-9.8,15.58-2.173,1.364-7.349,3.8-11.252,5.842-2.579,1.349-4.6,2.527-4.834,3.108a.282.282,0,0,0-.019.059,3.177,3.177,0,0,0-.046.384c-.213,2.816,1.012,13.477,1.636,15.652.658,2.29,3.017,15.228.418,14.937-2.747-.306-6.241,2.693-7.1,1.492-.8-1.116,3.349-13.947,2.617-19.921s-.571-7.331-2.03-13.891l-1.674-6.538c6.511-.681,15.707-5.133,18.81-6.276,1.561-1.486,9.709-14.421,10.153-14.379S1587.04,371.321,1586.554,372.436Z" transform="translate(-711.535 -43.495)" fill="#747474"/>
    <path id="Path_1416" data-name="Path 1416" d="M1614.45,591.451c-2.579,1.349-4.6,2.527-4.834,3.107C1609.862,592.935,1610.5,590.085,1614.45,591.451Z" transform="translate(-760.484 -241.086)" fill="#1f1f39" opacity="0.12"/>
    <path id="Path_1417" data-name="Path 1417" d="M1590.55,983.62c-3.866-1.929-6.834-3.488-6.941-3.544l0,0-.542-2.664Z" transform="translate(-736.916 -583.995)" fill="#1f1f39" opacity="0.71"/>
  </g>
</svg>
