<svg xmlns="http://www.w3.org/2000/svg" width="127.92" height="96.539" viewBox="0 0 127.92 96.539">
  <g id="undraw_certificate_343v" transform="translate(0)">
    <path id="Path_1652" data-name="Path 1652" d="M164.661,91.043c0,14.849-8.705,27.985-22.051,35.982a59.014,59.014,0,0,1-30.321,8.143c-15.053,0-26.535-5.689-35.173-14.4-7.961-8.031-13.5-18.633-17.2-29.721-16.49-49.506,11.056-63.012,52.371-44.125C138.595,58.946,164.661,66.675,164.661,91.043Z" transform="translate(-55.067 -38.747)" fill="#2d2d36"/>
    <path id="Path_1653" data-name="Path 1653" d="M308.426,263.5v62.016a59.014,59.014,0,0,1-30.321,8.143c-15.053,0-26.535-5.689-35.173-14.4V263.5Z" transform="translate(-220.883 -237.123)" fill="#f2f2f2"/>
    <path id="Path_1654" data-name="Path 1654" d="M294.978,503.9a40.974,40.974,0,0,1,10.582-1.887,33.115,33.115,0,0,1,5.4.211,33.748,33.748,0,0,1,5.237,1.121c1.693.49,3.362,1.056,5.049,1.565a47.087,47.087,0,0,0,5.218,1.273,44.234,44.234,0,0,0,5.3.632,32.289,32.289,0,0,0,5.3-.065,16.2,16.2,0,0,0,4.764-1.208,14.55,14.55,0,0,0,3.875-2.485q.431-.385.829-.8c.157-.164-.092-.413-.249-.249a14.554,14.554,0,0,1-8.4,4.287,27.972,27.972,0,0,1-5.279.212,43.433,43.433,0,0,1-5.366-.542,44.837,44.837,0,0,1-5.2-1.183c-1.677-.486-3.331-1.046-5-1.551a37.645,37.645,0,0,0-5.15-1.227,32.382,32.382,0,0,0-5.284-.367,40.4,40.4,0,0,0-10.443,1.546q-.64.18-1.275.379c-.215.068-.123.408.094.34Z" transform="translate(-266.628 -447.303)" fill="#3f3d56"/>
    <path id="Path_1655" data-name="Path 1655" d="M294.978,579.9a40.974,40.974,0,0,1,10.582-1.887,33.122,33.122,0,0,1,5.4.211,33.751,33.751,0,0,1,5.237,1.121c1.693.49,3.362,1.056,5.049,1.565a47.114,47.114,0,0,0,5.218,1.273,44.246,44.246,0,0,0,5.3.632,32.292,32.292,0,0,0,5.3-.065,16.2,16.2,0,0,0,4.764-1.208,14.55,14.55,0,0,0,3.875-2.485q.431-.385.829-.8c.157-.164-.092-.413-.249-.249a14.554,14.554,0,0,1-8.4,4.287,27.974,27.974,0,0,1-5.279.212,43.433,43.433,0,0,1-5.366-.542,44.818,44.818,0,0,1-5.2-1.183c-1.677-.486-3.331-1.046-5-1.551a37.632,37.632,0,0,0-5.15-1.227,32.382,32.382,0,0,0-5.284-.367,40.4,40.4,0,0,0-10.443,1.546q-.64.18-1.275.379C294.668,579.629,294.761,579.969,294.978,579.9Z" transform="translate(-266.628 -514.383)" fill="#3f3d56"/>
    <path id="Path_1656" data-name="Path 1656" d="M294.978,434.9a40.974,40.974,0,0,1,10.582-1.887,33.118,33.118,0,0,1,5.4.211,33.751,33.751,0,0,1,5.237,1.121c1.693.49,3.362,1.056,5.049,1.565a47.087,47.087,0,0,0,5.218,1.273,44.235,44.235,0,0,0,5.3.632,32.292,32.292,0,0,0,5.3-.065,16.2,16.2,0,0,0,4.764-1.208,14.55,14.55,0,0,0,3.875-2.485q.431-.385.829-.8c.157-.164-.092-.413-.249-.249a14.554,14.554,0,0,1-8.4,4.287,27.972,27.972,0,0,1-5.279.212,43.434,43.434,0,0,1-5.366-.542,44.841,44.841,0,0,1-5.2-1.183c-1.677-.486-3.331-1.046-5-1.551a37.645,37.645,0,0,0-5.15-1.227,32.385,32.385,0,0,0-5.284-.367,40.4,40.4,0,0,0-10.443,1.546q-.64.18-1.275.379c-.215.068-.123.408.094.34Z" transform="translate(-266.628 -386.402)" fill="#3f3d56"/>
    <path id="Path_1657" data-name="Path 1657" d="M291,316.851a4.223,4.223,0,0,1,2.712-.093c.953.236,1.851.646,2.79.93a9.656,9.656,0,0,0,5.162.1,9.513,9.513,0,0,0,2.7-1.159c.191-.12.015-.425-.178-.3a9.33,9.33,0,0,1-4.967,1.416,9.114,9.114,0,0,1-2.6-.383c-.932-.279-1.822-.685-2.766-.925a4.634,4.634,0,0,0-3.033.116c-.207.092-.028.4.178.3Z" transform="translate(-263.073 -283.665)" fill="#3f3d56"/>
    <circle id="Ellipse_208" data-name="Ellipse 208" cx="5.399" cy="5.399" r="5.399" transform="translate(48.693 76.38)" fill="#3f3d56"/>
    <circle id="Ellipse_209" data-name="Ellipse 209" cx="2.934" cy="2.934" r="2.934" transform="translate(22.05 9.478)" fill="#f2f2f2"/>
    <circle id="Ellipse_210" data-name="Ellipse 210" cx="1.995" cy="1.995" r="1.995" transform="translate(48.693 18.751)" fill="#f2f2f2"/>
    <circle id="Ellipse_211" data-name="Ellipse 211" cx="1.995" cy="1.995" r="1.995" transform="translate(16.299 37.882)" fill="#f2f2f2"/>
    <path id="Path_1659" data-name="Path 1659" d="M810.332,653.191l-2.058,18.932h14.2l.617-1.44.823,1.44h13.376s-1.029-19.549-2.881-20.167S810.332,653.191,810.332,653.191Z" transform="translate(-719.869 -579.872)" fill="#2f2e41"/>
    <circle id="Ellipse_215" data-name="Ellipse 215" cx="7.202" cy="7.202" r="7.202" transform="translate(95.402 17.347)" fill="#ffb8b8"/>
    <path id="Path_1660" data-name="Path 1660" d="M893.986,274.1s.617,6.585,0,7,9.878.206,9.878.206-1.44-5.968,0-8.849Z" transform="translate(-795.497 -245.019)" fill="#ffb8b8"/>
    <path id="Path_1661" data-name="Path 1661" d="M818.577,327.629s5.295.825,5.734-.822l2.7,3.7.206,37.041s-22.019,2.675-22.842-1.646,8.437-38.481,8.437-38.481l2.331-.151S818.165,327.629,818.577,327.629Z" transform="translate(-716.385 -292.997)" fill="#d0cde1"/>
    <path id="Path_1662" data-name="Path 1662" d="M753.7,316.375l-3.531,1.224-10.083,2.469.411,24.694s-8.643,24.694-4.733,26.546,9.466-2.469,11.112-5.556,7.408-45.889,7.408-46.713A13.4,13.4,0,0,0,753.7,316.375Z" transform="translate(-654.977 -283.789)" fill="#3f3d56"/>
    <path id="Path_1663" data-name="Path 1663" d="M969.141,316.375l1.395,1.224,9.878,4.527-4.939,24.9s6.585,22.636,4.116,23.871-6.174,4.733-7,2.675S966.923,318.65,969.141,316.375Z" transform="translate(-861.346 -283.789)" fill="#3f3d56"/>
    <path id="Path_1664" data-name="Path 1664" d="M950.964,582.765s-9.26-3.91-9.466-.412,10.495,5.968,10.495,4.939A30.726,30.726,0,0,0,950.964,582.765Z" transform="translate(-837.454 -517.265)" fill="#ffb8b8"/>
    <path id="Path_1665" data-name="Path 1665" d="M807.648,584.528s10.7,8.026,6.585,10.083-9.466-7.2-9.466-7.2Z" transform="translate(-716.774 -520.469)" fill="#ffb8b8"/>
    <path id="Path_1666" data-name="Path 1666" d="M868.812,155.958a.4.4,0,0,1,.382-.227c-3.3-.2-6.771.187-9.529,2a10.425,10.425,0,0,1-2.374,1.418l.714.56-.853.26,1.255.811a1.088,1.088,0,0,1-1.036.347,1.886,1.886,0,0,1,1.151,1.175,5.577,5.577,0,0,1,.275,1.676,2.07,2.07,0,0,1,1.948-1.349,8.569,8.569,0,0,1,2.488.43,13.765,13.765,0,0,0,5.463.21c-.617,1.238-.1,2.715.427,4l1.046,2.557c.581.058.991-.519,1.428-.905.4-.352-1.188,2.744-.943,2.63a46.441,46.441,0,0,0,3.846-4.181,9.565,9.565,0,0,0,1.087-4.635,6.76,6.76,0,0,0-1.756-4.369c-.75-.79-1.788-.928-2.552-1.584-.3-.258-.3-.46-.716-.611A12.064,12.064,0,0,0,868.812,155.958Z" transform="translate(-763.01 -141.96)" fill="#2f2e41"/>
    <path id="Path_1667" data-name="Path 1667" d="M690.718,348.456l-1.44-.617-11.524,18.932s-2.058,4.939,1.646,7.2,12.347,9.054,12.347,9.054l4.939-7.614s-10.083-4.733-9.466-6.585,3.91-6.791,3.91-6.791Z" transform="translate(-604.165 -311.561)" fill="#3f3d56"/>
    <path id="Path_1668" data-name="Path 1668" d="M1012.675,361.865l2.675.412s11.112,21.813,8.437,25.929-13.582,9.878-13.582,9.878-.206-6.791-2.058-9.26l6.379-2.469-3.5-13.582Z" transform="translate(-896.283 -323.94)" fill="#3f3d56"/>
  </g>
</svg>
