<svg id="facebook" xmlns="http://www.w3.org/2000/svg" width="20.585" height="20.585" viewBox="0 0 20.585 20.585">
  <g id="Group_182" data-name="Group 182">
    <path id="Path_1645" data-name="Path 1645" d="M15.423,0H5.146A5.17,5.17,0,0,0,0,5.163V15.439a5.167,5.167,0,0,0,5.146,5.146H15.423a5.174,5.174,0,0,0,5.163-5.163V5.163A5.174,5.174,0,0,0,15.423,0ZM13.054,10.293H11.11v6.372H8.659V10.293H7.352V7.679H8.5V6.568a2.53,2.53,0,0,1,2.728-2.7h2.01V6.045H11.812c-.229,0-.539.147-.539.654v.98h2.01Z"/>
  </g>
</svg>
