<svg xmlns="http://www.w3.org/2000/svg" width="150.904" height="108.647" viewBox="0 0 150.904 108.647"><defs><style>.a{fill:#343434;}.b{fill:#efefef;}.c{fill:#c7c7c7;}.d{fill:#a6a6a6;}.e{fill:#dfb63f;}.f{opacity:0.1;}.g{fill:#263238;}</style></defs><g transform="translate(-243.986 -138.553)"><circle class="a" cx="34.762" cy="34.762" r="34.762" transform="translate(325.366 138.553)"/><path class="b" d="M23.747,0A23.747,23.747,0,1,1,0,23.747,23.747,23.747,0,0,1,23.747,0Z" transform="translate(243.986 199.705)"/><g transform="translate(283.692 142.212)"><g transform="translate(9.03)"><path class="c" d="M322.681,165.612v24.932h-7.045V165.612c0-9.48-7.2-17.19-16.061-17.19s-16.059,7.71-16.059,17.19v24.932H276.47V165.612c0-13.579,10.364-24.62,23.1-24.62S322.681,152.033,322.681,165.612Z" transform="translate(-276.47 -140.992)"/><path class="d" d="M276.47,161.723l7.046.284v18.166H276.47Z" transform="translate(-276.47 -130.62)"/><path class="d" d="M309.62,163.073v16.568h-7.046V162.785Z" transform="translate(-263.41 -130.089)"/></g><path class="e" d="M0,0H64.27V58.308H0Z" transform="translate(0 35.355)"/><rect class="f" width="32.135" height="58.308" transform="translate(32.135 35.355)"/><path class="g" d="M296.592,188.925l2.69,12.762H287.865l2.69-12.762a5.709,5.709,0,1,1,6.037,0Z" transform="translate(-261.739 -122.28)"/></g></g></svg>