<svg xmlns="http://www.w3.org/2000/svg" width="129.787" height="108.346" viewBox="0 0 129.787 108.346">
  <g id="undraw_Goals_re_lu76" transform="translate(0.001 0)">
    <rect id="Rectangle_627" data-name="Rectangle 627" width="103.063" height="5.231" transform="translate(-0.001 52.54) rotate(-30.649)" fill="#f2f2f2"/>
    <rect id="Rectangle_628" data-name="Rectangle 628" width="103.063" height="5.231" transform="translate(19.27 56.945) rotate(-30.649)" fill="#f2f2f2"/>
    <rect id="Rectangle_629" data-name="Rectangle 629" width="103.063" height="5.231" transform="translate(36.339 61.763) rotate(-30.649)" fill="#f2f2f2"/>
    <circle id="Ellipse_191" data-name="Ellipse 191" cx="27.76" cy="27.76" r="27.76" transform="translate(29.992 6.069)" fill="#fff"/>
    <path id="Path_1566" data-name="Path 1566" d="M385.341,182.581a27.967,27.967,0,1,1,27.967,27.967A28,28,0,0,1,385.341,182.581Zm.413,0a27.554,27.554,0,1,0,27.554-27.554A27.585,27.585,0,0,0,385.754,182.581Z" transform="translate(-355.556 -148.751)" fill="#5d5d5d"/>
    <path id="Path_1567" data-name="Path 1567" d="M526.082,301.041h0a4.949,4.949,0,1,1,4.949,4.949,4.949,4.949,0,0,1-4.949-4.949Zm4.949-4.707a4.712,4.712,0,0,0-4.707,4.707h0a4.707,4.707,0,1,0,4.707-4.707Z" transform="translate(-473.279 -267.091)" fill="#3f3d56"/>
    <path id="Path_1568" data-name="Path 1568" d="M498.776,278.2h0a9.414,9.414,0,1,1,9.414,9.414A9.414,9.414,0,0,1,498.776,278.2Zm9.414-9.173a9.173,9.173,0,1,0,9.173,9.173A9.173,9.173,0,0,0,508.19,269.029Z" transform="translate(-450.438 -244.251)" fill="#ccc"/>
    <path id="Path_1569" data-name="Path 1569" d="M444.166,232.523a18.346,18.346,0,1,1,18.346,18.346,18.346,18.346,0,0,1-18.346-18.346Zm18.346-18.1a18.1,18.1,0,1,0,18.1,18.1A18.1,18.1,0,0,0,462.512,214.418Z" transform="translate(-404.76 -198.572)" fill="#ccc"/>
    <circle id="Ellipse_192" data-name="Ellipse 192" cx="2.293" cy="2.293" r="2.293" transform="translate(55.459 31.536)"/>
    <path id="Path_1570" data-name="Path 1570" d="M108.923,131.442H61.248V131.2h47.917v12.432h-.242Z" transform="translate(-51.232 -109.743)" fill="#2f2e41"/>
    <path id="Path_1574" data-name="Path 1574" d="M457.3,163.05l30.776-.485,0,.241-30.538.481V175.48H457.3Z" transform="translate(-382.507 -135.977)" fill="#2f2e41"/>
    <path id="Path_1575" data-name="Path 1575" d="M105.9,260.361h34.4v-12.19h.241V260.6H105.9Z" transform="translate(-88.578 -207.582)" fill="#2f2e41"/>
    <circle id="Ellipse_193" data-name="Ellipse 193" cx="2.293" cy="2.293" r="2.293" transform="translate(49.545 38.175)"/>
    <circle id="Ellipse_194" data-name="Ellipse 194" cx="2.293" cy="2.293" r="2.293" transform="translate(72.617 37.209)"/>
    <circle id="Ellipse_195" data-name="Ellipse 195" cx="1.086" cy="1.086" r="1.086" transform="translate(56.666 32.743)" fill="#4f4f53"/>
    <circle id="Ellipse_196" data-name="Ellipse 196" cx="1.086" cy="1.086" r="1.086" transform="translate(73.824 38.416)" fill="#4f4f53"/>
    <circle id="Ellipse_197" data-name="Ellipse 197" cx="1.086" cy="1.086" r="1.086" transform="translate(50.751 39.502)" fill="#4f4f53"/>
    <circle id="Ellipse_198" data-name="Ellipse 198" cx="1.086" cy="1.086" r="1.086" transform="translate(5.973 20.553)"/>
    <path id="Path_1571" data-name="Path 1571" d="M227.2,235.027a3.138,3.138,0,1,1,3.138,3.138A3.138,3.138,0,0,1,227.2,235.027Zm3.138-2.9a2.9,2.9,0,1,0,2.9,2.9A2.9,2.9,0,0,0,230.337,232.13Z" transform="translate(-223.278 -213.387)" fill="#2f2e41"/>
    <circle id="Ellipse_199" data-name="Ellipse 199" cx="1.086" cy="1.086" r="1.086" transform="translate(13.215 51.813)"/>
    <path id="Path_1572" data-name="Path 1572" d="M271.478,426.164h0a3.138,3.138,0,1,1,3.138,3.138A3.138,3.138,0,0,1,271.478,426.164Zm3.138-2.9a2.9,2.9,0,1,0,2.9,2.9A2.9,2.9,0,0,0,274.616,423.267Z" transform="translate(-260.315 -373.264)" fill="#2f2e41"/>
    <circle id="Ellipse_200" data-name="Ellipse 200" cx="1.086" cy="1.086" r="1.086" transform="translate(107.499 25.622)"/>
    <path id="Path_1573" data-name="Path 1573" d="M847.963,266.022a3.138,3.138,0,1,1,3.138,3.138A3.138,3.138,0,0,1,847.963,266.022Zm3.138-2.9a2.9,2.9,0,0,0-2.9,2.9h0a2.9,2.9,0,1,0,2.9-2.9Z" transform="translate(-742.516 -239.313)" fill="#2f2e41"/>
    <rect id="Rectangle_630" data-name="Rectangle 630" width="13.277" height="0.845" transform="translate(0.421 27.312)" fill="#ccc"/>
    <rect id="Rectangle_631" data-name="Rectangle 631" width="13.277" height="0.845" transform="translate(0.421 29.726)" fill="#ccc"/>
    <rect id="Rectangle_632" data-name="Rectangle 632" width="13.277" height="0.845" transform="translate(0.421 32.14)" fill="#ccc"/>
    <rect id="Rectangle_633" data-name="Rectangle 633" width="13.277" height="0.845" transform="translate(7.663 58.572)" fill="#ccc"/>
    <rect id="Rectangle_634" data-name="Rectangle 634" width="13.277" height="0.845" transform="translate(7.663 60.986)" fill="#ccc"/>
    <rect id="Rectangle_635" data-name="Rectangle 635" width="13.277" height="0.845" transform="translate(7.663 63.4)" fill="#ccc"/>
    <rect id="Rectangle_636" data-name="Rectangle 636" width="13.277" height="0.845" transform="translate(101.947 32.502)" fill="#ccc"/>
    <rect id="Rectangle_637" data-name="Rectangle 637" width="13.277" height="0.845" transform="translate(101.947 34.916)" fill="#ccc"/>
    <rect id="Rectangle_638" data-name="Rectangle 638" width="13.277" height="0.845" transform="translate(101.947 37.33)" fill="#ccc"/>
    <path id="Path_1576" data-name="Path 1576" d="M715.6,601.615l-1.888.675-3.5-6.962,2.787-1Z" transform="translate(-594.06 -497.129)" fill="#ffb8b8"/>
    <path id="Path_1577" data-name="Path 1577" d="M915.213,757.43l-.028-.077a2.519,2.519,0,0,1,1.523-3.217l3.718-1.329.875,2.447Z" transform="translate(-798.622 -649.11)" fill="#2f2e41"/>
    <path id="Path_1578" data-name="Path 1578" d="M652.962,610.725h-2.005L650,602.991h2.959Z" transform="translate(-543.696 -504.372)" fill="#ffb8b8"/>
    <path id="Path_1579" data-name="Path 1579" d="M841.374,767.643h-6.465v-.082a2.516,2.516,0,0,1,2.516-2.516h3.949Z" transform="translate(-731.597 -659.346)" fill="#2f2e41"/>
    <path id="Path_1580" data-name="Path 1580" d="M876.669,458.126,875.8,456.4s-3.249.814-3.544,2.7Z" transform="translate(-762.833 -401.182)" fill="#b4b4b4"/>
    <path id="Path_1581" data-name="Path 1581" d="M654.252,466.962,651.881,480.2l6.3,11.136-3.762,1.472-6.378-10.794-.818-2.944-.491,15.374-3.392-.1-1.556-14.355,2.495-13.345Z" transform="translate(-536.819 -390.317)"/>
    <path id="Path_1582" data-name="Path 1582" d="M850.544,483.767c-.074-.328-.285-10.332-.285-10.332s3.488-11.45,3.52-11.544l.012-.037,2.648-.993a2.244,2.244,0,0,1,1.641-.082,1.415,1.415,0,0,1,.752.925,8.861,8.861,0,0,1,2.465,5.937l.082,7.76,1.815,8.413-.08.017a21.885,21.885,0,0,1-5.745.677C855.433,484.508,850.544,483.767,850.544,483.767Z" transform="translate(-744.437 -404.734)" fill="#585858"/>
    <circle id="Ellipse_201" data-name="Ellipse 201" cx="3.579" cy="3.579" r="3.579" transform="translate(106.676 47.52)" fill="#ffb8b8"/>
    <path id="Path_1583" data-name="Path 1583" d="M668.567,408.841l-6.261,8.736-.925-4.08Z" transform="translate(-553.213 -341.975)" opacity="0.2"/>
    <path id="Path_1584" data-name="Path 1584" d="M832.327,551.9a1.536,1.536,0,0,0,1.439-1.864l4.652-2.854-2.569-1.2-4.024,2.894a1.544,1.544,0,0,0,.5,3.026Z" transform="translate(-728.086 -476.11)" fill="#ffb8b8"/>
    <path id="Path_1585" data-name="Path 1585" d="M648.885,427.635l-1.593,1.117,1.351,2.4,1.878-1.554Z" transform="translate(-541.428 -357.695)" fill="#b4b4b4"/>
    <path id="Path_1586" data-name="Path 1586" d="M855.153,477.432l3.748-4.344-1.436-5.992a2.622,2.622,0,0,1,4.858-1.854l.033.061,1.323,8.9-6.649,6.815Z" transform="translate(-748.53 -407.421)" fill="#707070"/>
    <path id="Path_1587" data-name="Path 1587" d="M860.165,408.547l-2.971.107a8.586,8.586,0,0,1-.737-2.353,1.106,1.106,0,0,0-1.154-.9c-.222.021-.783-.394-1.362-.886a2.182,2.182,0,0,1,.165-3.477q.049-.032.1-.059a5.285,5.285,0,0,1,2.524-.58,4.72,4.72,0,0,1,2.3.464A4.188,4.188,0,0,1,861,404.421a10.338,10.338,0,0,1-.911,4.123" transform="translate(-746.861 -354.341)" fill="#272727"/>
    <path id="Path_1588" data-name="Path 1588" d="M810.089,779.559H773.945a.164.164,0,1,1,0-.327h36.144a.164.164,0,1,1,0,.327Z" transform="translate(-680.466 -671.213)" fill="#3f3d56"/>
  </g>
</svg>
