<svg xmlns="http://www.w3.org/2000/svg" width="20.027" height="20.027" viewBox="0 0 20.027 20.027">
  <g id="google" transform="translate(0)">
    <path id="Path_37" data-name="Path 37" d="M275.953,211.479h-8.169a.653.653,0,0,0-.653.653v2.61a.653.653,0,0,0,.653.653h4.6a6.141,6.141,0,0,1-2.643,3.1l1.961,3.4a9.819,9.819,0,0,0,5.007-8.587,6.615,6.615,0,0,0-.113-1.282A.656.656,0,0,0,275.953,211.479Z" transform="translate(-256.682 -203.207)" fill="#fff"/>
    <path id="Path_38" data-name="Path 38" d="M43.078,336.9a6.094,6.094,0,0,1-5.272-3.05l-3.4,1.957a10.005,10.005,0,0,0,13.674,3.67v0l-1.961-3.4A6.049,6.049,0,0,1,43.078,336.9Z" transform="translate(-33.065 -320.789)" fill="#fff"/>
    <path id="Path_39" data-name="Path 39" d="M261.007,394.179v0l-1.962-3.4A6.05,6.05,0,0,1,256,391.6v3.918A10,10,0,0,0,261.007,394.179Z" transform="translate(-245.987 -375.494)" fill="#fff"/>
    <path id="Path_40" data-name="Path 40" d="M3.918,133.121a6.05,6.05,0,0,1,.823-3.045l-3.4-1.957a9.967,9.967,0,0,0,0,10l3.4-1.957A6.05,6.05,0,0,1,3.918,133.121Z" transform="translate(0 -123.108)" fill="#fff"/>
    <path id="Path_41" data-name="Path 41" d="M43.078,3.918a6.067,6.067,0,0,1,3.87,1.389.651.651,0,0,0,.875-.039l1.849-1.849a.658.658,0,0,0-.038-.962A9.991,9.991,0,0,0,34.411,5.011l3.4,1.957A6.094,6.094,0,0,1,43.078,3.918Z" transform="translate(-33.065 0)" fill="#fff"/>
    <path id="Path_42" data-name="Path 42" d="M259.87,5.308a.65.65,0,0,0,.875-.039l1.849-1.849a.658.658,0,0,0-.038-.962A9.983,9.983,0,0,0,256,0V3.918A6.067,6.067,0,0,1,259.87,5.308Z" transform="translate(-245.987 0)" fill="#fff"/>
  </g>
</svg>
