<svg id="Group_5" data-name="Group 5" xmlns="http://www.w3.org/2000/svg" width="23.114" height="17.877" viewBox="0 0 23.114 17.877">
  <g id="Group_4" data-name="Group 4" transform="translate(0 0)">
    <path id="Path_31" data-name="Path 31" d="M170.066,274a4.063,4.063,0,1,0,4.063,4.063A4.068,4.068,0,0,0,170.066,274Zm0,6.32a2.257,2.257,0,1,1,2.257-2.257A2.26,2.26,0,0,1,170.066,280.32Z" transform="translate(-158.509 -264.249)" fill="#6a6a6a"/>
    <path id="Path_32" data-name="Path 32" d="M23.018,69.676a11.93,11.93,0,0,0-4.565-4.834L20.9,62.4a.9.9,0,1,0-1.277-1.277l-2.867,2.867A13.515,13.515,0,0,0,12.46,63V58.9a.9.9,0,0,0-1.806,0V63a13.515,13.515,0,0,0-4.292.993L3.5,61.121A.9.9,0,1,0,2.218,62.4l2.444,2.444A11.93,11.93,0,0,0,.1,69.676a.9.9,0,0,0,1.612.814,10.931,10.931,0,0,1,9.848-5.718,10.931,10.931,0,0,1,9.848,5.718.9.9,0,1,0,1.612-.814Z" transform="translate(0 -58)" fill="#6a6a6a"/>
  </g>
</svg>
