<svg xmlns="http://www.w3.org/2000/svg" width="171.147" height="98.898" viewBox="0 0 171.147 98.898">
  <g id="undraw_coming_home_52ir" transform="translate(0 0)">
    <path id="Path_1589" data-name="Path 1589" d="M167.225,499.4l-.278-.063a63.371,63.371,0,0,1,123.582-.168l-.278.063a62.72,62.72,0,0,0-61.494-49A63.479,63.479,0,0,0,167.225,499.4Z" transform="translate(-147.62 -400.505)" fill="#3f3d56"/>
    <path id="Path_1590" data-name="Path 1590" d="M214.192,773.47a2.872,2.872,0,0,0,1.07,1.447,2.473,2.473,0,0,0-.875-3.236A2.872,2.872,0,0,0,214.192,773.47Z" transform="translate(-188.062 -676.332)" fill="#3f3d56"/>
    <path id="Path_1591" data-name="Path 1591" d="M207.161,778.666a2.872,2.872,0,0,1,.744,1.638,2.473,2.473,0,0,1-2.4-2.338A2.872,2.872,0,0,1,207.161,778.666Z" transform="translate(-180.675 -681.72)" fill="#6c63ff"/>
    <path id="Path_1592" data-name="Path 1592" d="M343.192,773.47a2.872,2.872,0,0,0,1.07,1.447,2.473,2.473,0,0,0-.875-3.236A2.872,2.872,0,0,0,343.192,773.47Z" transform="translate(-298.655 -676.332)" fill="#3f3d56"/>
    <path id="Path_1593" data-name="Path 1593" d="M336.161,778.666a.966.966,0,1,1-1.658-.7A2.872,2.872,0,0,1,336.161,778.666Z" transform="translate(-291.268 -681.72)" fill="#6c63ff"/>
    <path id="Path_1594" data-name="Path 1594" d="M320.2,80.432,317.286,78.1l16.32-14.571h41.382V76.352L348.177,94.42Z" transform="translate(-272.013 -54.465)"/>
    <path id="Path_1595" data-name="Path 1595" d="M568.293,71.7V63.82H562.8v1.93l-2.051-2.222L547.343,78.1,542.1,81.6l-8.133,59.424,12.266,12.266h28.507v-74.6Z" transform="translate(-457.774 -54.465)" fill="#ccc"/>
    <rect id="Rectangle_649" data-name="Rectangle 649" width="44.296" height="75.187" transform="translate(45.273 23.636)" fill="#f2f2f2"/>
    <rect id="Rectangle_650" data-name="Rectangle 650" width="8.16" height="18.36" transform="translate(62.467 80.463)" fill="#ccc"/>
    <path id="Path_1596" data-name="Path 1596" d="M355.5,583.167v-2.914h-3.5v2.914h3.5Z" transform="translate(-301.78 -497.458)" fill="#3f3d56"/>
    <path id="Path_1597" data-name="Path 1597" d="M355.213,617.016h-3.206v2.914h3.5v-2.914Z" transform="translate(-301.78 -528.976)" fill="#3f3d56"/>
    <rect id="Rectangle_651" data-name="Rectangle 651" width="3.497" height="2.914" transform="translate(56.056 82.795)" fill="#3f3d56"/>
    <rect id="Rectangle_652" data-name="Rectangle 652" width="3.497" height="2.914" transform="translate(56.056 88.04)" fill="#3f3d56"/>
    <path id="Path_1598" data-name="Path 1598" d="M522.98,583.167v-2.914h-3.5v2.914h3.5Z" transform="translate(-445.359 -497.458)" fill="#3f3d56"/>
    <path id="Path_1599" data-name="Path 1599" d="M522.689,617.016h-3.206v2.914h3.5v-2.914Z" transform="translate(-445.359 -528.976)" fill="#3f3d56"/>
    <rect id="Rectangle_653" data-name="Rectangle 653" width="3.497" height="2.914" transform="translate(79.952 82.795)" fill="#3f3d56"/>
    <rect id="Rectangle_654" data-name="Rectangle 654" width="3.497" height="2.914" transform="translate(79.952 88.04)" fill="#3f3d56"/>
    <path id="Path_1600" data-name="Path 1600" d="M694.54,174.69v-2.914h-3.5v2.914h3.5Z" transform="translate(-592.44 -147.266)" fill="#3f3d56"/>
    <path id="Path_1601" data-name="Path 1601" d="M694.249,208.539h-3.206v2.914h3.5v-2.914Z" transform="translate(-592.44 -178.783)" fill="#3f3d56"/>
    <rect id="Rectangle_655" data-name="Rectangle 655" width="3.497" height="2.914" transform="translate(104.432 24.51)" fill="#3f3d56"/>
    <rect id="Rectangle_656" data-name="Rectangle 656" width="3.497" height="2.914" transform="translate(104.432 29.756)" fill="#3f3d56"/>
    <path id="Path_1602" data-name="Path 1602" d="M694.54,289.063v-2.914h-3.5v2.914h3.5Z" transform="translate(-592.44 -245.319)" fill="#3f3d56"/>
    <path id="Path_1603" data-name="Path 1603" d="M694.249,322.912h-3.206v2.914h3.5v-2.914Z" transform="translate(-592.44 -276.837)" fill="#3f3d56"/>
    <rect id="Rectangle_657" data-name="Rectangle 657" width="3.497" height="2.914" transform="translate(104.432 40.83)" fill="#3f3d56"/>
    <rect id="Rectangle_658" data-name="Rectangle 658" width="3.497" height="2.914" transform="translate(104.432 46.075)" fill="#3f3d56"/>
    <path id="Path_1604" data-name="Path 1604" d="M694.54,403.437v-2.914h-3.5v2.914h3.5Z" transform="translate(-592.44 -343.374)" fill="#3f3d56"/>
    <path id="Path_1605" data-name="Path 1605" d="M694.249,437.286h-3.206V440.2h3.5v-2.914Z" transform="translate(-592.44 -374.891)" fill="#3f3d56"/>
    <rect id="Rectangle_659" data-name="Rectangle 659" width="3.497" height="2.914" transform="translate(104.432 57.149)" fill="#3f3d56"/>
    <rect id="Rectangle_660" data-name="Rectangle 660" width="3.497" height="2.914" transform="translate(104.432 62.395)" fill="#3f3d56"/>
    <path id="Path_1606" data-name="Path 1606" d="M694.54,517.811V514.9h-3.5v2.914h3.5Z" transform="translate(-592.44 -441.428)" fill="#3f3d56"/>
    <path id="Path_1607" data-name="Path 1607" d="M694.249,551.66h-3.206v2.914h3.5V551.66Z" transform="translate(-592.44 -472.945)" fill="#3f3d56"/>
    <rect id="Rectangle_661" data-name="Rectangle 661" width="3.497" height="2.914" transform="translate(104.432 73.469)" fill="#3f3d56"/>
    <rect id="Rectangle_662" data-name="Rectangle 662" width="3.497" height="2.914" transform="translate(104.432 78.715)" fill="#3f3d56"/>
    <rect id="Rectangle_663" data-name="Rectangle 663" width="33.805" height="6.994" transform="translate(50.227 27.424)"/>
    <rect id="Rectangle_664" data-name="Rectangle 664" width="33.805" height="6.994" transform="translate(50.227 41.412)"/>
    <rect id="Rectangle_665" data-name="Rectangle 665" width="33.805" height="6.994" transform="translate(50.227 55.401)"/>
    <rect id="Rectangle_666" data-name="Rectangle 666" width="33.805" height="6.994" transform="translate(50.227 69.389)"/>
    <rect id="Rectangle_667" data-name="Rectangle 667" width="171.147" height="0.301" transform="translate(0 98.522)" fill="#3f3d56"/>
    <rect id="Rectangle_668" data-name="Rectangle 668" width="0.838" height="33.111" transform="translate(27.168 65.581)" fill="#3f3d56"/>
    <path id="Path_1608" data-name="Path 1608" d="M183.59,466.9c.053,11.578-8.092,21-8.092,21s-8.232-9.348-8.286-20.926,8.092-21,8.092-21S183.537,455.321,183.59,466.9Z" transform="translate(-147.847 -397.099)" fill="#6c63ff"/>
    <path id="Path_1609" data-name="Path 1609" d="M183.59,466.9c.053,11.578-8.092,21-8.092,21s-8.232-9.348-8.286-20.926,8.092-21,8.092-21S183.537,455.321,183.59,466.9Z" transform="translate(-147.847 -397.099)"/>
    <rect id="Rectangle_669" data-name="Rectangle 669" width="0.838" height="33.111" transform="translate(16.271 65.581)" fill="#3f3d56"/>
    <path id="Path_1610" data-name="Path 1610" d="M107.218,466.9c.053,11.578-8.092,21-8.092,21s-8.232-9.348-8.286-20.926,8.092-21,8.092-21S107.165,455.321,107.218,466.9Z" transform="translate(-82.373 -397.099)" fill="#444"/>
    <path id="Path_1611" data-name="Path 1611" d="M905.089,233.34c-6.6.03-11.978.128-11.978.128s6.389-8.462,11.954-5.327a75.989,75.989,0,0,0,11.958,5.217S911.691,233.309,905.089,233.34Z" transform="translate(-770.17 -209.751)" fill="#f2f2f2"/>
    <path id="Path_1612" data-name="Path 1612" d="M134.089,347.34c-6.6.03-11.978.128-11.978.128s6.389-8.462,11.954-5.327a75.992,75.992,0,0,0,11.958,5.217S140.692,347.309,134.089,347.34Z" transform="translate(-109.182 -307.484)" fill="#f2f2f2"/>
    <path id="Path_1613" data-name="Path 1613" d="M302.089,109.34c-6.6.03-11.978.128-11.978.128s6.389-8.462,11.954-5.327a75.992,75.992,0,0,0,11.958,5.217S308.692,109.309,302.089,109.34Z" transform="translate(-253.21 -103.444)" fill="#f2f2f2"/>
    <rect id="Rectangle_670" data-name="Rectangle 670" width="0.838" height="33.111" transform="translate(130.959 65.581)" fill="#3f3d56"/>
    <path id="Path_1614" data-name="Path 1614" d="M1028.223,466.9c.053,11.578-8.092,21-8.092,21s-8.232-9.348-8.286-20.926,8.092-21,8.092-21S1028.169,455.321,1028.223,466.9Z" transform="translate(-888.688 -397.099)" fill="#444"/>
  </g>
</svg>
