<svg xmlns="http://www.w3.org/2000/svg" width="20.602" height="20.585" viewBox="0 0 20.602 20.585">
  <g id="instagram" transform="translate(0)">
    <g id="Group_184" data-name="Group 184" transform="translate(8.038 8.022)">
      <g id="Group_183" data-name="Group 183">
        <path id="Path_1646" data-name="Path 1646" d="M200.884,197.548a2.24,2.24,0,0,0-3.66,0,2.321,2.321,0,0,0-.425,1.323,2.255,2.255,0,1,0,4.509,0A2.321,2.321,0,0,0,200.884,197.548Z" transform="translate(-196.8 -196.6)"/>
      </g>
    </g>
    <g id="Group_186" data-name="Group 186" transform="translate(5.065 8.986)">
      <g id="Group_185" data-name="Group 185">
        <path id="Path_1647" data-name="Path 1647" d="M132.479,220.2a3.212,3.212,0,0,1,.261,1.307,3.513,3.513,0,0,1-7.025,0,3.156,3.156,0,0,1,.261-1.307H124v5.244a1.326,1.326,0,0,0,1.291,1.291h7.875a1.326,1.326,0,0,0,1.291-1.291V220.2Z" transform="translate(-124 -220.2)"/>
      </g>
    </g>
    <g id="Group_188" data-name="Group 188" transform="translate(13.037 5.342)">
      <g id="Group_187" data-name="Group 187">
        <path id="Path_1648" data-name="Path 1648" d="M321.1,131.016h-1.9v2.173h2.157V131Z" transform="translate(-319.2 -131)"/>
      </g>
    </g>
    <g id="Group_190" data-name="Group 190" transform="translate(0 0)">
      <g id="Group_189" data-name="Group 189">
        <path id="Path_1649" data-name="Path 1649" d="M15.423.2H5.163A5.174,5.174,0,0,0,0,5.363V15.639a5.17,5.17,0,0,0,5.163,5.146H15.439A5.174,5.174,0,0,0,20.6,15.623V5.363A5.2,5.2,0,0,0,15.423.2Zm1.242,8.969h0V14.43a2.4,2.4,0,0,1-2.434,2.434H6.355A2.4,2.4,0,0,1,3.921,14.43V6.555A2.4,2.4,0,0,1,6.355,4.121H14.23a2.4,2.4,0,0,1,2.434,2.434V9.169Z" transform="translate(0 -0.2)"/>
      </g>
    </g>
  </g>
</svg>
