<svg xmlns="http://www.w3.org/2000/svg" width="19.205" height="19.205" viewBox="0 0 19.205 19.205">
  <g id="linkedin" transform="translate(0)">
    <path id="Path_43" data-name="Path 43" d="M20.9,20.718h0V13.674c0-3.446-.742-6.1-4.77-6.1a4.182,4.182,0,0,0-3.767,2.07h-.056V7.9H8.489V20.717h3.977V14.369c0-1.672.317-3.288,2.387-3.288,2.04,0,2.07,1.908,2.07,3.4v6.242Z" transform="translate(-1.696 -1.513)" fill="#fff"/>
    <path id="Path_44" data-name="Path 44" d="M.4,7.977H4.378V20.8H.4Z" transform="translate(-0.079 -1.594)" fill="#fff"/>
    <path id="Path_45" data-name="Path 45" d="M2.306,0A2.317,2.317,0,1,0,4.612,2.306,2.307,2.307,0,0,0,2.306,0Z" transform="translate(0)" fill="#fff"/>
  </g>
</svg>
