<svg xmlns="http://www.w3.org/2000/svg" width="20.602" height="20.585" viewBox="0 0 20.602 20.585">
  <g id="linkedin" transform="translate(0)">
    <g id="Group_191" data-name="Group 191" transform="translate(0 0)">
      <path id="Path_1650" data-name="Path 1650" d="M15.423.2H5.163A5.174,5.174,0,0,0,0,5.363V15.639a5.17,5.17,0,0,0,5.163,5.146H15.439A5.174,5.174,0,0,0,20.6,15.623V5.363A5.2,5.2,0,0,0,15.423.2ZM6.862,16.864H3.921v-8.5H6.862Zm-1.487-9.8a1.5,1.5,0,1,1,1.5-1.5A1.52,1.52,0,0,1,5.375,7.062Zm11.306,9.8H14.214V12.747c0-1-.131-2.271-1.487-2.271-1.389,0-1.617,1.078-1.617,2.206v4.182H8.659v-8.5h2.287V9.512h.065a2.683,2.683,0,0,1,2.5-1.16c2.7,0,3.169,1.552,3.169,3.856v4.656Z" transform="translate(0 -0.2)"/>
    </g>
  </g>
</svg>
