<?xml version="1.0" standalone="no"?>
<!DOCTYPE svg PUBLIC "-//W3C//DTD SVG 20010904//EN"
 "http://www.w3.org/TR/2001/REC-SVG-20010904/DTD/svg10.dtd">
<svg version="1.0" xmlns="http://www.w3.org/2000/svg"
 width="71.000000pt" height="127.000000pt" viewBox="0 0 71.000000 127.000000"
 preserveAspectRatio="xMidYMid meet">

<g transform="translate(0.000000,127.000000) scale(0.100000,-0.100000)"
fill="#000000" stroke="none">
<path d="M109 1146 c-36 -21 -54 -68 -43 -113 29 -113 194 -93 194 23 0 57
-31 94 -85 100 -25 3 -50 -1 -66 -10z"/>
<path d="M494 1126 c-38 -38 -43 -70 -19 -116 55 -106 222 -37 185 75 -26 79
-108 99 -166 41z"/>
<path d="M110 475 l0 -405 39 0 c21 0 44 6 50 13 7 9 12 105 13 283 l3 269 22
-48 c26 -55 43 -65 89 -48 26 10 43 10 69 1 48 -16 68 -7 92 43 l22 42 0 -255
c1 -289 4 -300 67 -300 l34 0 0 405 0 405 -44 0 c-55 0 -53 3 -136 -179 -35
-77 -67 -137 -71 -133 -3 4 -34 68 -68 142 -35 74 -70 143 -78 153 -11 11 -31
17 -60 17 l-43 0 0 -405z"/>
</g>
</svg>
