<svg xmlns="http://www.w3.org/2000/svg" width="126.175" height="84.573" viewBox="0 0 126.175 84.573">
  <g id="undraw_remote_meeting_cbfk" transform="translate(0)">
    <path id="Path_1615" data-name="Path 1615" d="M685.7,490.584H630.252a1.7,1.7,0,0,1-1.693-1.693v-39.2A1.7,1.7,0,0,1,630.252,448H685.7a1.7,1.7,0,0,1,1.693,1.693v39.2A1.7,1.7,0,0,1,685.7,490.584Z" transform="translate(-561.222 -406.011)" fill="#e6e6e6"/>
    <path id="Path_1616" data-name="Path 1616" d="M696.6,463.513H645.767a1.7,1.7,0,0,0-1.694,1.694v34.58a1.7,1.7,0,0,0,1.694,1.694H696.6a1.7,1.7,0,0,0,1.693-1.694v-34.58a1.7,1.7,0,0,0-1.693-1.694Z" transform="translate(-574.427 -419.215)" fill="#d8d8d8"/>
    <circle id="Ellipse_202" data-name="Ellipse 202" cx="6.826" cy="6.826" r="6.826" transform="translate(88.118 52.392)" fill="#a0616a"/>
    <path id="Path_1617" data-name="Path 1617" d="M797.609,587.115l-12.19,1.219c1.127-5.072,1.4-9.811,0-13.9h8.533C793.488,577.841,795.221,582.318,797.609,587.115Z" transform="translate(-694.741 -513.634)" fill="#a0616a"/>
    <path id="Path_1618" data-name="Path 1618" d="M750.207,633.172c-.152,2.973-.328,5.9-.545,8.747h-28.5q-.506-2.822-1.23-5.681a2.607,2.607,0,0,1,1.463-3.029l.909-.4,8.034-3.57.094.02,3.319.71L739.6,628.5l.1.02,8.2,1.679a2.92,2.92,0,0,1,.7.24A2.884,2.884,0,0,1,750.207,633.172Z" transform="translate(-638.926 -559.654)" fill="#3a3a3a"/>
    <path id="Path_1619" data-name="Path 1619" d="M912.279,651.681h-6.159l-1.1-11.71a6.7,6.7,0,0,1,5.893,5.282Z" transform="translate(-796.547 -569.416)" fill="#3a3a3a"/>
    <path id="Path_1620" data-name="Path 1620" d="M707.281,665.631h-5.906l.212-2.071a7.923,7.923,0,0,1,4.979-7.2l.012.157Z" transform="translate(-623.203 -583.366)" fill="#3a3a3a"/>
    <path id="Path_1621" data-name="Path 1621" d="M770.526,511.76c3.077-1.76,6.158-.636,9.244,4.168l.631,5.117c4.632-4.388,4.4-10.377-.8-12.813a2.652,2.652,0,0,0-1.561-.416,4.894,4.894,0,0,0-6.479,1.74,3.985,3.985,0,0,0-2.286,3.046Z" transform="translate(-681.001 -456.431)" fill="#2f2e41"/>
    <ellipse id="Ellipse_203" data-name="Ellipse 203" cx="0.853" cy="1.097" rx="0.853" ry="1.097" transform="translate(97.626 58.487)" fill="#a0616a"/>
    <path id="Path_1622" data-name="Path 1622" d="M248.791,220.04h-70.6a2.158,2.158,0,0,1-2.156-2.156V167.976a2.158,2.158,0,0,1,2.156-2.156h70.6a2.158,2.158,0,0,1,2.156,2.156v49.908a2.158,2.158,0,0,1-2.156,2.156Z" transform="translate(-176.032 -165.82)" fill="#e6e6e6"/>
    <path id="Path_1623" data-name="Path 1623" d="M262.665,185.571H197.941a2.159,2.159,0,0,0-2.157,2.157v44.028a2.159,2.159,0,0,0,2.157,2.157h64.724a2.158,2.158,0,0,0,2.155-2.157V187.728A2.158,2.158,0,0,0,262.665,185.571Z" transform="translate(-192.845 -182.632)" fill="#d8d8d8"/>
    <path id="Path_1624" data-name="Path 1624" d="M191.263,127.286,171.3,131.854l-8.435-15.908,17.07-6.664Z" transform="translate(-138.631 -93.02)" fill="#2f2e41"/>
    <circle id="Ellipse_204" data-name="Ellipse 204" cx="7.231" cy="7.231" r="7.231" transform="translate(28.539 18.317)" fill="#ffb9b9"/>
    <path id="Path_1625" data-name="Path 1625" d="M385.776,376.956l17.553-2.534c-2.62-4.743-5.322-9.065-8.952-8.582-3.23-2.261-3.416-5.895-2.6-9.982l-8.786,2.349c.773,2.519.474,4.731-1.585,6.439C384.283,368.7,386.145,372.785,385.776,376.956Z" transform="translate(-350.846 -327.581)" fill="#ffb9b9"/>
    <path id="Path_1626" data-name="Path 1626" d="M386.983,423.414H359.207q-.59-.793-1.256-1.534c-.029-.034-.06-.07-.091-.1l.747-10.554.075-1.067a1.421,1.421,0,0,1,.924-1.234h0a.925.925,0,0,1,.128-.044l2.3-.615.229-.062.033.039,1.293,1.5.864,1,3.819,4.432a3.983,3.983,0,0,0,2.736,1.373l1.413.1a3.985,3.985,0,0,0,4.273-4,3.849,3.849,0,0,0-.636-2.122,3.93,3.93,0,0,0-.345-.459l1.607.259,2.3.372,2.6,6.1C384.832,418.872,386.48,421.067,386.983,423.414Z" transform="translate(-330.804 -372.133)" fill="#3a3a3a"/>
    <path id="Path_1627" data-name="Path 1627" d="M103.392,283.359l3.492,6.314-1.97,1.833-1.042.969h-9.05l5.424-5.771Z" transform="translate(-80.712 -241.194)" fill="#ffb9b9"/>
    <path id="Path_1628" data-name="Path 1628" d="M500.2,435.463h-8.519l-.9-3.886-1.924-8.284-.213-.917,0-.021,2.015.122a6.213,6.213,0,0,1,5.275,3.622Z" transform="translate(-442.116 -384.182)" fill="#3a3a3a"/>
    <path id="Path_1629" data-name="Path 1629" d="M309.082,426.716l8.38-2.837-2.954-10.052a1.427,1.427,0,0,0-1.549-1.013h0a1.427,1.427,0,0,0-.766.348l-8.56,7.594C305.269,423.453,307.013,423.521,309.082,426.716Z" transform="translate(-284.645 -376.051)" fill="#3a3a3a"/>
    <path id="Path_1630" data-name="Path 1630" d="M333.373,251.784s4.422.832,5.445,6.347a10.125,10.125,0,0,1,.087,2.816c-.1,1.062.046,3.3,2.351,5.944a57.8,57.8,0,0,1,4.2,5.39h0l-4.621,1.23-2.065-7.656a39.163,39.163,0,0,0-4.576-10.519l-.042-.068s-1.535,4.1-5.648,4.663l1.268-1.67a52.349,52.349,0,0,1-7.533,3.629,1.79,1.79,0,0,0-.578,3.113l.059.046c2,1.522,6.092,5.154,4.477,8.667s.268,4.154.268,4.154l-3.473-1.321-1.59-.681.161,1.175-7.76.163s-2.1-.013,1.628-5.61a5.285,5.285,0,0,0,.161-3.7,8.517,8.517,0,0,1-.86-3.9C314.964,258.349,317.341,246.868,333.373,251.784Z" transform="translate(-292.8 -237.975)" fill="#2f2e41"/>
    <path id="Path_1631" data-name="Path 1631" d="M728.295,326.383a.149.149,0,0,1-.146-.118c-.708-3.405-3.158-6.535-6.9-8.812a26.667,26.667,0,0,0-13.7-3.578.149.149,0,1,1,0-.3,26.968,26.968,0,0,1,13.856,3.621c3.812,2.32,6.31,5.519,7.035,9.006a.149.149,0,0,1-.146.179Z" transform="translate(-628.332 -291.59)" fill="#3f3d56"/>
    <path id="Path_1632" data-name="Path 1632" d="M661.281,229.107l1.782,2.373,1.165-2.729Z" transform="translate(-562.881 -194.712)" fill="#3f3d56"/>
    <path id="Path_1633" data-name="Path 1633" d="M471.978,579.377a26.966,26.966,0,0,1-13.856-3.621c-3.812-2.321-6.31-5.519-7.035-9.006a.149.149,0,1,1,.291-.06c.708,3.405,3.158,6.535,6.9,8.812a26.666,26.666,0,0,0,13.7,3.578.149.149,0,1,1,0,.3Z" transform="translate(-410.156 -506.938)" fill="#3f3d56"/>
    <path id="Path_1634" data-name="Path 1634" d="M269.7,389.848l-1.782-2.373-1.165,2.729Z" transform="translate(-227.061 -329.818)" fill="#3f3d56"/>
  </g>
</svg>
