<svg xmlns="http://www.w3.org/2000/svg" width="173.563" height="148.575" viewBox="0 0 173.563 148.575">
  <g id="undraw_Mailbox_re_dvds" transform="translate(0)">
    <path id="Path_1786" data-name="Path 1786" d="M362.757,594.9a11.246,11.246,0,0,0,4.035-9.694,9.091,9.091,0,0,0-6.759-7.718,7.652,7.652,0,0,0-8.714,4.843c-.6-6.716-1.283-13.712-4.853-19.431a20.579,20.579,0,0,0-14.9-9.547,18.464,18.464,0,0,0-16.243,6.631,16.757,16.757,0,0,0-2.061,17.252c1.953,4.051,5.55,7.066,9.32,9.519a60.149,60.149,0,0,0,41.138,9" transform="translate(-311.75 -447.877)" fill="#f2f2f2"/>
    <path id="Path_1787" data-name="Path 1787" d="M341.219,559.854a99.248,99.248,0,0,1,29.162,39.432c.278.682-.829.978-1.1.3a98.227,98.227,0,0,0-28.867-38.927c-.571-.465.243-1.271.809-.809Z" transform="translate(-331.646 -452.397)" fill="#fff"/>
    <path id="Path_1788" data-name="Path 1788" d="M478.035,594.9A11.246,11.246,0,0,1,474,585.208a9.091,9.091,0,0,1,6.759-7.718,7.652,7.652,0,0,1,8.714,4.843c.6-6.716,1.283-13.712,4.853-19.431a20.579,20.579,0,0,1,14.9-9.547,18.464,18.464,0,0,1,16.243,6.631,16.757,16.757,0,0,1,2.061,17.252c-1.953,4.051-5.55,7.066-9.32,9.519a60.149,60.149,0,0,1-41.138,9" transform="translate(-425.104 -447.877)" fill="#f2f2f2"/>
    <path id="Path_1789" data-name="Path 1789" d="M557.383,559.853a99.247,99.247,0,0,0-29.162,39.432c-.278.682.829.978,1.1.3a98.144,98.144,0,0,1,28.867-38.927c.571-.465-.243-1.271-.809-.809Z" transform="translate(-463.019 -452.397)" fill="#fff"/>
    <circle id="Ellipse_244" data-name="Ellipse 244" cx="9.333" cy="9.333" r="9.333" transform="translate(51.866 48.17)" fill="#f2f2f2"/>
    <path id="Path_1790" data-name="Path 1790" d="M361.141,287.388h64.3v3.518H369.35a25.114,25.114,0,0,0-25.114,25.114v39.969H337.2a1.173,1.173,0,0,1-1.173-1.173V312.5a25.114,25.114,0,0,1,25.114-25.114Z" transform="translate(-328.718 -262.057)" fill="#f2f2f2"/>
    <path id="Path_1791" data-name="Path 1791" d="M460.527,568.189V514.75h15.655v53.439a1.356,1.356,0,0,1-1.355,1.355H461.882A1.356,1.356,0,0,1,460.527,568.189Z" transform="translate(-415.736 -420.969)" fill="#4a4a4a"/>
    <path id="Path_1792" data-name="Path 1792" d="M325.027,349.8V306.342a26.121,26.121,0,0,1,26.092-26.092h66.335V351.3H326.532a1.507,1.507,0,0,1-1.505-1.505Zm91.824-68.944H351.119a25.519,25.519,0,0,0-25.49,25.49V349.8a.9.9,0,0,0,.9.9h90.319Z" transform="translate(-321.03 -257.068)" fill="#3f3d56"/>
    <path id="Path_1793" data-name="Path 1793" d="M447.929,265.57a5.425,5.425,0,0,1-5.419-5.419V221.314a.9.9,0,0,0-.9-.9H420.532a1.507,1.507,0,0,1-1.505-1.505v-14.15a1.507,1.507,0,0,1,1.505-1.505h31.311a1.507,1.507,0,0,1,1.505,1.505v55.4A5.425,5.425,0,0,1,447.929,265.57Z" transform="translate(-386.73 -203.25)" fill="#4a4a4a"/>
    <path id="Path_1794" data-name="Path 1794" d="M600.188,278.25h0a17.125,17.125,0,0,1,17.161,17.089v49.468h33.719a5.107,5.107,0,0,1,5.118,5.1H583.027V295.339A17.125,17.125,0,0,1,600.188,278.25Z" transform="translate(-501.356 -255.67)" fill="#4a4a4a"/>
    <path id="Path_1795" data-name="Path 1795" d="M626.277,282.219,629.83,296.9l69.51-16.827-3.553-14.679a1.1,1.1,0,0,0-.71-.781,1.083,1.083,0,0,0-.4-.06l-40.18-20.8a1.108,1.108,0,0,0-1.4.337l-19.364,27-7.3,10.183a.155.155,0,0,0-.027.126A1.1,1.1,0,0,0,626.277,282.219Z" transform="translate(-531.563 -231.469)" fill="#fff"/>
    <path id="Path_1796" data-name="Path 1796" d="M626.757,281.4a.147.147,0,0,0,.061.1.168.168,0,0,0,.13.026.161.161,0,0,0,.09-.062l.025-.035.38-.532,6.9-9.623,19.359-27a.789.789,0,0,1,1-.24l39.868,20.643.358.186a.394.394,0,0,0,.044.016.482.482,0,0,1,.082-.008.154.154,0,0,0,.087-.074.158.158,0,0,0-.066-.213l-.049-.026-40.18-20.8a1.109,1.109,0,0,0-1.4.337l-19.364,27-7.3,10.183A.155.155,0,0,0,626.757,281.4Z" transform="translate(-531.918 -231.469)" fill="#3f3d56"/>
    <path id="Path_1797" data-name="Path 1797" d="M693.339,269.351l1.547.172,11.483,1.272,7.613.843.45.05,9.5-7.42.364-.284,2.244-1.752L734.521,256l.048-.438,2.839-25.625a1.341,1.341,0,0,0-1.183-1.479l-37.891-4.2a1.342,1.342,0,0,0-1.479,1.183l-2,18.075-1.111,10.021-.993,8.965-.461,4.163-.134,1.206A1.342,1.342,0,0,0,693.339,269.351Z" transform="translate(-577.623 -217.929)" fill="#e6e6e6"/>
    <path id="Path_1798" data-name="Path 1798" d="M726.623,290.329l16.413,1.818,5.821.644a1.969,1.969,0,1,0,.433-3.914l-7.24-.8-14.993-1.662a1.97,1.97,0,0,0-.435,3.916Z" transform="translate(-600.495 -261.367)" fill="#fff"/>
    <path id="Path_1799" data-name="Path 1799" d="M723.817,314.493c.042.008.085.015.128.019L743,316.623l3.181.353a1.97,1.97,0,1,0,.433-3.915l-4.6-.509-15.092-1.672-2.54-.281a1.969,1.969,0,0,0-.563,3.895Z" transform="translate(-598.623 -278.271)" fill="#fff"/>
    <path id="Path_1800" data-name="Path 1800" d="M719.769,338.015a1.969,1.969,0,0,0,1.469.941l7.809.865,13.908,1.541h0l.445.05,2.244-1.752a1.951,1.951,0,0,0,0-.4A1.974,1.974,0,0,0,743.9,337.5l-1.932-.215-7.664-.848-5.515-.612-7.123-.789a1.969,1.969,0,0,0-1.9,2.974Z" transform="translate(-596.732 -295.355)" fill="#fff"/>
    <path id="Path_1801" data-name="Path 1801" d="M752.792,260.855l4.084.452,1.8.2,2.725.3a1.97,1.97,0,0,0,.433-3.915l-8.61-.953a1.969,1.969,0,1,0-.435,3.914Z" transform="translate(-618.786 -240.768)" fill="#fff"/>
    <path id="Path_1802" data-name="Path 1802" d="M645.856,281.52l4.979,20.567,8.31,1.58,7.687,1.463,8.247,1.569,2.635.5a1.106,1.106,0,0,0,.885-.214l2.114-1.651,1.339-1.045,9.5-7.42-6.04-24.95a1.326,1.326,0,0,0-.375-.65,1.339,1.339,0,0,0-1.242-.336l-37.052,8.97A1.34,1.34,0,0,0,645.856,281.52Z" transform="translate(-545.243 -250.53)" fill="#1d1d1d"/>
    <path id="Path_1803" data-name="Path 1803" d="M683.735,342.662a1.971,1.971,0,0,0,2.377,1.451l21.741-5.263a1.972,1.972,0,0,0,1.451-2.377.627.627,0,0,0-.021-.074,1.969,1.969,0,0,0-2.356-1.376l-21.741,5.263A1.971,1.971,0,0,0,683.735,342.662Z" transform="translate(-571.706 -295.312)" fill="#fff"/>
    <path id="Path_1804" data-name="Path 1804" d="M690.082,364.975l7.687,1.463,16.283-3.942a1.969,1.969,0,1,0-.927-3.828l-21.741,5.263a1.955,1.955,0,0,0-1.128.756A1.981,1.981,0,0,0,690.082,364.975Z" transform="translate(-576.18 -311.839)" fill="#fff"/>
    <path id="Path_1805" data-name="Path 1805" d="M743.008,386.651l2.635.5a1.106,1.106,0,0,0,.885-.214l2.114-1.651Z" transform="translate(-613.172 -330.482)" fill="#fff"/>
    <path id="Path_1806" data-name="Path 1806" d="M698.286,313.518a1.971,1.971,0,0,0,2.377,1.451l8.421-2.039a1.972,1.972,0,0,0,1.451-2.377,1.947,1.947,0,0,0-.363-.749,1.971,1.971,0,0,0-2.014-.7l-8.421,2.038a1.969,1.969,0,0,0-1.451,2.377Z" transform="translate(-581.875 -277.196)" fill="#fff"/>
    <path id="Path_1807" data-name="Path 1807" d="M653.151,334.646l8.249,1.57,2.634.5a1.111,1.111,0,0,0,.885-.214l2.116-1.652-.742.18-1.567,1.223a.794.794,0,0,1-.632.153l-1.951-.371-8.249-1.57Zm24.638-8.592.08.332.366-.284Zm-24.638,8.592,8.249,1.57,2.634.5a1.111,1.111,0,0,0,.885-.214l2.116-1.652-.742.18-1.567,1.223a.794.794,0,0,1-.632.153l-1.951-.371-8.249-1.57Zm0,0,8.249,1.57,2.634.5a1.111,1.111,0,0,0,.885-.214l2.116-1.652-.742.18-1.567,1.223a.794.794,0,0,1-.632.153l-1.951-.371-8.249-1.57Zm-26.874-3.85,9.308,38.449a1.1,1.1,0,0,0,1.331.812l67.366-16.308a1.1,1.1,0,0,0,.812-1.331l-9.308-38.449a1.1,1.1,0,0,0-.71-.781,1.082,1.082,0,0,0-.4-.06,1.041,1.041,0,0,0-.456.12.96.96,0,0,0-.183.114l-5.529,4.317-8.029,6.272-2.69,2.1v0h0l-9.865,7.7-1.631,1.276-1.567,1.223a.794.794,0,0,1-.632.153l-1.951-.371-8.249-1.57-8.256-1.57-18.082-3.441a1.081,1.081,0,0,0-.466.01,1.105,1.105,0,0,0-.538.312,1.238,1.238,0,0,0-.148.2,1.1,1.1,0,0,0-.126.824Zm26.874,3.85,8.249,1.57,2.634.5a1.111,1.111,0,0,0,.885-.214l2.116-1.652-.742.18-1.567,1.223a.794.794,0,0,1-.632.153l-1.951-.371-8.249-1.57Zm0,0,8.249,1.57,2.634.5a1.111,1.111,0,0,0,.885-.214l2.116-1.652-.742.18-1.567,1.223a.794.794,0,0,1-.632.153l-1.951-.371-8.249-1.57Zm0,0,8.249,1.57,2.634.5a1.111,1.111,0,0,0,.885-.214l2.116-1.652-.742.18-1.567,1.223a.794.794,0,0,1-.632.153l-1.951-.371-8.249-1.57Z" transform="translate(-531.563 -280.047)" fill="#fff"/>
    <path id="Path_1808" data-name="Path 1808" d="M653.151,334.646l8.249,1.57,2.634.5a1.111,1.111,0,0,0,.885-.214l2.116-1.652-.742.18-1.567,1.223a.794.794,0,0,1-.632.153l-1.951-.371-8.249-1.57Zm24.638-8.592.08.332.366-.284Zm-24.638,8.592,8.249,1.57,2.634.5a1.111,1.111,0,0,0,.885-.214l2.116-1.652-.742.18-1.567,1.223a.794.794,0,0,1-.632.153l-1.951-.371-8.249-1.57Zm0,0,8.249,1.57,2.634.5a1.111,1.111,0,0,0,.885-.214l2.116-1.652-.742.18-1.567,1.223a.794.794,0,0,1-.632.153l-1.951-.371-8.249-1.57ZM626.709,330l.041.031c.007-.011.019-.021.028-.033a.8.8,0,0,1,.718-.231l17.969,3.418,7.686,1.465,8.249,1.57,2.634.5a1.11,1.11,0,0,0,.885-.214l2.116-1.652-.742.18-1.567,1.223a.793.793,0,0,1-.632.153l-1.951-.371-8.249-1.57-8.256-1.57-18.082-3.441a1.081,1.081,0,0,0-.466.01Zm-.432.8,9.308,38.449a1.1,1.1,0,0,0,1.331.812l67.366-16.308a1.1,1.1,0,0,0,.812-1.331l-9.308-38.449a1.1,1.1,0,0,0-.71-.781,1.082,1.082,0,0,0-.4-.06,1.041,1.041,0,0,0-.456.12.96.96,0,0,0-.183.113l-5.529,4.317-8.029,6.272-2.69,2.1v0h0l-9.865,7.7-1.631,1.276-1.567,1.223a.794.794,0,0,1-.632.153l-1.951-.371-8.249-1.57-8.256-1.57-18.082-3.441a1.081,1.081,0,0,0-.466.01,1.1,1.1,0,0,0-.538.312,1.239,1.239,0,0,0-.148.2,1.1,1.1,0,0,0-.126.824Zm.307-.074a.782.782,0,0,1,.139-.659.1.1,0,0,1,.027-.035c.007-.011.019-.021.028-.033a.8.8,0,0,1,.718-.231l17.969,3.418,7.686,1.465,8.249,1.57,2.634.5a1.11,1.11,0,0,0,.885-.214l2.116-1.652,1.338-1.045,9.5-7.421.366-.284,2.242-1.751,7.984-6.235,5.772-4.507a.783.783,0,0,1,.3-.144.6.6,0,0,1,.092-.015.486.486,0,0,1,.082-.008.807.807,0,0,1,.271.044.79.79,0,0,1,.508.558l9.308,38.449a.789.789,0,0,1-.582.953l-67.366,16.308a.788.788,0,0,1-.951-.582Zm26.567,3.924,8.249,1.57,2.634.5a1.111,1.111,0,0,0,.885-.214l2.116-1.652-.742.18-1.567,1.223a.793.793,0,0,1-.632.153l-1.951-.371-8.249-1.57Zm0,0,8.249,1.57,2.634.5a1.111,1.111,0,0,0,.885-.214l2.116-1.652-.742.18-1.567,1.223a.793.793,0,0,1-.632.153l-1.951-.371-8.249-1.57Zm0,0,8.249,1.57,2.634.5a1.111,1.111,0,0,0,.885-.214l2.116-1.652-.742.18-1.567,1.223a.793.793,0,0,1-.632.153l-1.951-.371-8.249-1.57Z" transform="translate(-531.563 -280.047)" fill="#3f3d56"/>
    <path id="Path_1809" data-name="Path 1809" d="M826.97,411.177a2.447,2.447,0,0,1,1.8-2.951l8.5-2.058a2.444,2.444,0,0,1,1.15,4.751l-8.5,2.058a2.447,2.447,0,0,1-2.951-1.8Z" transform="translate(-671.808 -345.029)" fill="#4a4a4a"/>
    <circle id="Ellipse_245" data-name="Ellipse 245" cx="2.107" cy="2.107" r="2.107" transform="translate(59.092 54.794)" fill="#fff"/>
  </g>
</svg>
