<svg xmlns="http://www.w3.org/2000/svg" width="151.984" height="116.219" viewBox="0 0 151.984 116.219">
  <g id="undraw_Building_re_xfcm" transform="translate(0 0)">
    <circle id="Ellipse_216" data-name="Ellipse 216" cx="9.631" cy="9.631" r="9.631" transform="translate(12.079 49.207)" fill="#f5a70e"/>
    <path id="Path_1669" data-name="Path 1669" d="M363.061,378.865h-.01a1.28,1.28,0,0,1-1.279-1.279V302.5a1.28,1.28,0,0,1,1.279-1.279h63.2a1.28,1.28,0,0,1,1.279,1.279v58.386a1.28,1.28,0,0,1-1.269,1.279Z" transform="translate(-321.628 -265.63)" fill="#f2f2f2"/>
    <path id="Path_1670" data-name="Path 1670" d="M515.115,127.077H485.772v-17a1.356,1.356,0,0,1,1.354-1.354h26.635a1.356,1.356,0,0,1,1.354,1.354Zm-29.042-.3h28.742v-16.7a1.055,1.055,0,0,0-1.053-1.053H487.126a1.054,1.054,0,0,0-1.053,1.053Z" transform="translate(-426.969 -102.097)" fill="#3f3d56"/>
    <path id="Path_1671" data-name="Path 1671" d="M439.476,87h12.64a1.2,1.2,0,0,1,1.2,1.2v18.058H438.272V88.2A1.2,1.2,0,0,1,439.476,87Z" transform="translate(-372.321 -73.908)" fill="#e6e6e6"/>
    <path id="Path_1672" data-name="Path 1672" d="M522.942,71.64h-6.17V65.47a.753.753,0,0,1,.752-.752h4.665a.753.753,0,0,1,.752.752Zm-5.869-.3h5.568V65.47a.452.452,0,0,0-.451-.451h-4.665a.452.452,0,0,0-.451.451Z" transform="translate(-453.304 -64.718)" fill="#3f3d56"/>
    <path id="Path_1673" data-name="Path 1673" d="M834.867,467.333c-.06,0-.118,0-.178,0a15.277,15.277,0,0,1-10.066-3.935q-.153-.14-.3-.283l-.047-.044V434.23l.014-.03c.1-.211.2-.419.3-.628,3.13-6.355,6.781-9.854,10.279-9.854,5.046,0,8.959,6.921,10.842,11.047,2.619,5.737,4.448,12.846,4.448,17.287a15.285,15.285,0,0,1-15.115,15.28C834.986,467.333,834.926,467.333,834.867,467.333Zm-10.294-4.392c.083.079.168.156.252.233a14.977,14.977,0,0,0,9.87,3.857c.061,0,.119,0,.177,0h.165a15.034,15.034,0,0,0,14.82-14.979c0-4.4-1.818-11.46-4.421-17.162-1.853-4.06-5.691-10.871-10.568-10.871-3.378,0-6.932,3.44-10.009,9.685-.1.2-.191.394-.286.593Z" transform="translate(-714.531 -369.696)" fill="#3f3d56"/>
    <path id="Path_1674" data-name="Path 1674" d="M893.7,633.326a.173.173,0,0,1-.173-.173V597.81a.173.173,0,0,1,.346,0v35.343A.173.173,0,0,1,893.7,633.326Z" transform="translate(-773.365 -517.443)" fill="#ccc"/>
    <path id="Path_1675" data-name="Path 1675" d="M296.7,633.326a.173.173,0,0,1-.173-.173V597.81a.173.173,0,0,1,.346,0v35.343a.173.173,0,0,1-.173.173Z" transform="translate(-266.201 -517.443)" fill="#ccc"/>
    <path id="Path_1676" data-name="Path 1676" d="M844.543,584.025a.173.173,0,0,1-.131-.06L835.7,573.924a.173.173,0,0,1,.262-.227l8.707,10.042a.173.173,0,0,1-.131.287Z" transform="translate(-724.208 -497.056)" fill="#ccc"/>
    <path id="Path_1677" data-name="Path 1677" d="M893.7,651.293a.173.173,0,0,1-.122-.3l4.948-4.948a.173.173,0,1,1,.245.245l-4.948,4.948A.172.172,0,0,1,893.7,651.293Z" transform="translate(-773.365 -558.529)" fill="#ccc"/>
    <path id="Path_1678" data-name="Path 1678" d="M928.06,797.9H915.119v-.15a6.471,6.471,0,1,1,12.942,0Zm-12.639-.3h12.337a6.17,6.17,0,0,0-12.337,0Z" transform="translate(-791.708 -681.947)" fill="#3f3d56"/>
    <path id="Path_1679" data-name="Path 1679" d="M945.584,809.875a.171.171,0,0,0-.171.171v1.815l-1.768-1.517a.171.171,0,0,0-.223.259l1.99,1.708v1.066a.171.171,0,1,0,.342,0v-3.331A.171.171,0,0,0,945.584,809.875Z" transform="translate(-815.702 -697.744)" fill="#3f3d56"/>
    <path id="Path_1680" data-name="Path 1680" d="M207.061,797.9H194.119v-.15a6.471,6.471,0,1,1,12.942,0Zm-12.639-.3h12.336a6.17,6.17,0,0,0-12.336,0Z" transform="translate(-179.204 -681.947)" fill="#3f3d56"/>
    <path id="Path_1681" data-name="Path 1681" d="M224.584,809.875a.171.171,0,0,0-.171.171v1.815l-1.768-1.517a.171.171,0,1,0-.223.259l1.99,1.708v1.066a.171.171,0,1,0,.342,0v-3.331a.171.171,0,0,0-.171-.171Z" transform="translate(-203.198 -697.744)" fill="#3f3d56"/>
    <path id="Path_1682" data-name="Path 1682" d="M212.354,467.333c-.06,0-.118,0-.178,0a15.286,15.286,0,0,1-15.113-15.28c0-4.442,1.829-11.55,4.448-17.287,1.884-4.126,5.8-11.047,10.843-11.047,2.079,0,4.172,1.185,6.221,3.521.1.115.2.234.3.355l.034.042v38.22l-.085.041c-.1.049-.2.1-.307.14a15.139,15.139,0,0,1-5.993,1.294Zm0-43.314c-4.878,0-8.716,6.811-10.57,10.871-2.6,5.7-4.421,12.759-4.421,17.162a15.035,15.035,0,0,0,14.818,14.979c.061,0,.118,0,.177,0h.165a14.846,14.846,0,0,0,5.878-1.269c.071-.031.142-.062.211-.094V427.745c-.087-.1-.175-.207-.263-.307C216.359,425.169,214.342,424.019,212.354,424.019Z" transform="translate(-181.704 -369.696)" fill="#3f3d56"/>
    <path id="Path_1683" data-name="Path 1683" d="M248.543,584.025a.173.173,0,0,1-.131-.06L239.7,573.924a.173.173,0,0,1,.262-.227l8.707,10.042a.173.173,0,0,1-.131.287Z" transform="translate(-217.894 -497.056)" fill="#ccc"/>
    <path id="Path_1684" data-name="Path 1684" d="M297.7,651.293a.173.173,0,0,1-.122-.3l4.948-4.948a.173.173,0,0,1,.245.245l-4.948,4.948A.172.172,0,0,1,297.7,651.293Z" transform="translate(-267.05 -558.529)" fill="#ccc"/>
    <path id="Path_1685" data-name="Path 1685" d="M347.609,230.223l.111.22a.665.665,0,0,1,.075.307v5.944h5.267v-5.944a.666.666,0,0,1,.075-.307l.111-.22Zm5.152.527v5.643H348.1v-5.643a.944.944,0,0,0-.027-.226h4.719a.944.944,0,0,0-.027.226Zm1.469-.527.111.22a.666.666,0,0,1,.075.307v5.944h5.267v-5.944a.666.666,0,0,1,.075-.307l.111-.22Zm5.152.527v5.643h-4.665v-5.643a.944.944,0,0,0-.027-.226h4.719a.944.944,0,0,0-.027.226Zm1.469-.527.111.22a.665.665,0,0,1,.075.307v5.944H366.3v-5.944a.665.665,0,0,1,.075-.307l.111-.22Zm5.152.527v5.643h-4.665v-5.643a.947.947,0,0,0-.027-.226h4.719a.948.948,0,0,0-.027.226Zm1.469-.527.111.22a.666.666,0,0,1,.075.307v5.944h5.267v-5.944a.666.666,0,0,1,.075-.307l.111-.22Zm5.152.527v5.643H367.96v-5.643a.945.945,0,0,0-.027-.226h4.719a.944.944,0,0,0-.027.226Zm1.469-.527.111.22a.666.666,0,0,1,.075.307v5.944h5.267v-5.944a.666.666,0,0,1,.075-.307l.111-.22Zm5.152.527v5.643h-4.665v-5.643a.944.944,0,0,0-.027-.226h4.719a.947.947,0,0,0-.027.226Zm1.469-.527.111.22a.666.666,0,0,1,.075.307v5.944h5.267v-5.944a.666.666,0,0,1,.075-.307l.111-.22Zm5.152.527v5.643H381.2v-5.643a.945.945,0,0,0-.027-.226h4.719a.942.942,0,0,0-.027.226Zm1.469-.527.111.22a.665.665,0,0,1,.075.307v5.944h5.267v-5.944a.666.666,0,0,1,.075-.307l.111-.22Zm5.152.527v5.643h-4.665v-5.643a.945.945,0,0,0-.027-.226h4.719a.945.945,0,0,0-.027.226Zm1.469-.527.111.22a.666.666,0,0,1,.075.307v5.944h5.267v-5.944a.666.666,0,0,1,.075-.307l.111-.22Zm5.152.527v5.643h-4.665v-5.643a.944.944,0,0,0-.027-.226h4.719a.947.947,0,0,0-.027.226Zm1.469-.527.111.22a.665.665,0,0,1,.075.307v5.944h5.267v-5.944a.665.665,0,0,1,.075-.307l.111-.22Zm5.152.527v5.643h-4.665v-5.643a.944.944,0,0,0-.027-.226h4.719a.947.947,0,0,0-.027.226Zm-5.152-.527.111.22a.665.665,0,0,1,.075.307v5.944h5.267v-5.944a.665.665,0,0,1,.075-.307l.111-.22Zm5.152.527v5.643h-4.665v-5.643a.944.944,0,0,0-.027-.226h4.719a.947.947,0,0,0-.027.226Zm-11.774-.527.111.22a.666.666,0,0,1,.075.307v5.944h5.267v-5.944a.667.667,0,0,1,.075-.307l.111-.22Zm5.152.527v5.643h-4.665v-5.643a.944.944,0,0,0-.027-.226h4.719a.942.942,0,0,0-.027.226Zm-11.774-.527.111.22a.665.665,0,0,1,.075.307v5.944h5.267v-5.944a.666.666,0,0,1,.075-.307l.111-.22Zm5.152.527v5.643h-4.665v-5.643a.947.947,0,0,0-.027-.226h4.719a.947.947,0,0,0-.027.226Zm-11.774-.527.111.22a.665.665,0,0,1,.075.307v5.944h5.267v-5.944a.666.666,0,0,1,.075-.307l.111-.22Zm5.152.527v5.643H381.2v-5.643a.945.945,0,0,0-.027-.226h4.719a.941.941,0,0,0-.027.226Zm-11.774-.527.111.22a.666.666,0,0,1,.075.307v5.944h5.267v-5.944a.666.666,0,0,1,.075-.307l.111-.22Zm5.152.527v5.643h-4.665v-5.643a.944.944,0,0,0-.027-.226h4.719a.945.945,0,0,0-.027.226Zm-11.774-.527.111.22a.666.666,0,0,1,.075.307v5.944h5.267v-5.944a.666.666,0,0,1,.075-.307l.111-.22Zm5.152.527v5.643H367.96v-5.643a.945.945,0,0,0-.027-.226h4.719a.944.944,0,0,0-.027.226Zm-11.774-.527.111.22a.666.666,0,0,1,.075.307v5.944H366.3v-5.944a.666.666,0,0,1,.075-.307l.111-.22Zm5.152.527v5.643h-4.665v-5.643a.945.945,0,0,0-.027-.226h4.719a.945.945,0,0,0-.027.226Zm-11.774-.527.111.22a.666.666,0,0,1,.075.307v5.944h5.267v-5.944a.665.665,0,0,1,.075-.307l.111-.22Zm5.152.527v5.643h-4.665v-5.643a.944.944,0,0,0-.027-.226h4.719a.945.945,0,0,0-.027.226Zm-11.774-.527.111.22a.665.665,0,0,1,.075.307v5.944h5.267v-5.944a.667.667,0,0,1,.075-.307l.111-.22Zm5.152.527v5.643H348.1v-5.643a.942.942,0,0,0-.027-.226h4.719a.944.944,0,0,0-.027.226Zm47.816-.527.111.22a.665.665,0,0,1,.075.307v5.944h5.267v-5.944a.666.666,0,0,1,.075-.307l.111-.22Zm5.152.527v5.643h-4.665v-5.643a.944.944,0,0,0-.027-.226h4.719a.945.945,0,0,0-.027.226Zm-11.774-.527.111.22a.666.666,0,0,1,.075.307v5.944h5.267v-5.944a.665.665,0,0,1,.075-.307l.111-.22Zm5.152.527v5.643h-4.665v-5.643a.944.944,0,0,0-.027-.226h4.719a.945.945,0,0,0-.027.226Zm-11.774-.527.111.22a.665.665,0,0,1,.075.307v5.944h5.267v-5.944a.666.666,0,0,1,.075-.307l.111-.22Zm5.152.527v5.643h-4.665v-5.643a.945.945,0,0,0-.027-.226h4.719a.945.945,0,0,0-.027.226Zm-11.774-.527.111.22a.666.666,0,0,1,.075.307v5.944h5.267v-5.944a.666.666,0,0,1,.075-.307l.111-.22Zm5.152.527v5.643H381.2v-5.643a.945.945,0,0,0-.027-.226h4.719a.942.942,0,0,0-.027.226Zm-11.774-.527.111.22a.666.666,0,0,1,.075.307v5.944h5.267v-5.944a.665.665,0,0,1,.075-.307l.111-.22Zm5.152.527v5.643h-4.665v-5.643a.944.944,0,0,0-.027-.226h4.719a.947.947,0,0,0-.027.226Zm-11.774-.527.111.22a.665.665,0,0,1,.075.307v5.944h5.267v-5.944a.666.666,0,0,1,.075-.307l.111-.22Zm5.152.527v5.643H367.96v-5.643a.945.945,0,0,0-.027-.226h4.719a.944.944,0,0,0-.027.226Zm-11.774-.527.111.22a.666.666,0,0,1,.075.307v5.944H366.3v-5.944a.665.665,0,0,1,.075-.307l.111-.22Zm5.152.527v5.643h-4.665v-5.643a.945.945,0,0,0-.027-.226h4.719a.947.947,0,0,0-.027.226Zm-11.774-.527.111.22a.666.666,0,0,1,.075.307v5.944h5.267v-5.944a.665.665,0,0,1,.075-.307l.111-.22Zm5.152.527v5.643h-4.665v-5.643a.942.942,0,0,0-.027-.226h4.719a.945.945,0,0,0-.027.226Zm-11.774-.527.111.22a.666.666,0,0,1,.075.307v5.944h5.267v-5.944a.666.666,0,0,1,.075-.307l.111-.22Zm5.152.527v5.643H348.1v-5.643a.945.945,0,0,0-.027-.226h4.719a.945.945,0,0,0-.027.226Zm47.816-.527.111.22a.666.666,0,0,1,.075.307v5.944h5.267v-5.944a.666.666,0,0,1,.075-.307l.111-.22Zm5.152.527v5.643h-4.665v-5.643a.945.945,0,0,0-.027-.226h4.719a.947.947,0,0,0-.027.226Zm-11.774-.527.111.22a.665.665,0,0,1,.075.307v5.944h5.267v-5.944a.666.666,0,0,1,.075-.307l.111-.22Zm5.152.527v5.643h-4.665v-5.643a.944.944,0,0,0-.027-.226h4.719a.945.945,0,0,0-.027.226Zm-11.774-.527.111.22a.666.666,0,0,1,.075.307v5.944h5.267v-5.944a.666.666,0,0,1,.075-.307l.111-.22Zm5.152.527v5.643h-4.665v-5.643a.945.945,0,0,0-.027-.226h4.719a.945.945,0,0,0-.027.226Zm-11.774-.527.111.22a.665.665,0,0,1,.075.307v5.944h5.267v-5.944a.666.666,0,0,1,.075-.307l.111-.22Zm5.152.527v5.643H381.2v-5.643a.947.947,0,0,0-.027-.226h4.719a.945.945,0,0,0-.027.226Zm-11.774-.527.111.22a.666.666,0,0,1,.075.307v5.944h5.267v-5.944a.666.666,0,0,1,.075-.307l.111-.22Zm5.152.527v5.643h-4.665v-5.643a.944.944,0,0,0-.027-.226h4.719a.945.945,0,0,0-.027.226Zm-11.774-.527.111.22a.666.666,0,0,1,.075.307v5.944h5.267v-5.944a.666.666,0,0,1,.075-.307l.111-.22Zm5.152.527v5.643H367.96v-5.643a.944.944,0,0,0-.027-.226h4.719a.942.942,0,0,0-.027.226Zm-11.774-.527.111.22a.665.665,0,0,1,.075.307v5.944H366.3v-5.944a.666.666,0,0,1,.075-.307l.111-.22Zm5.152.527v5.643h-4.665v-5.643a.945.945,0,0,0-.027-.226h4.719a.948.948,0,0,0-.027.226Zm-11.774-.527.111.22a.666.666,0,0,1,.075.307v5.944h5.267v-5.944a.666.666,0,0,1,.075-.307l.111-.22Zm5.152.527v5.643h-4.665v-5.643a.944.944,0,0,0-.027-.226h4.719a.944.944,0,0,0-.027.226Zm-11.774-.527.111.22a.665.665,0,0,1,.075.307v5.944h5.267v-5.944a.666.666,0,0,1,.075-.307l.111-.22Zm5.152.527v5.643H348.1v-5.643a.944.944,0,0,0-.027-.226h4.719a.944.944,0,0,0-.027.226Zm47.816-.527.111.22a.666.666,0,0,1,.075.307v5.944h5.267v-5.944a.665.665,0,0,1,.075-.307l.111-.22Zm5.152.527v5.643h-4.665v-5.643a.945.945,0,0,0-.027-.226h4.719a.945.945,0,0,0-.027.226Zm-11.774-.527.111.22a.666.666,0,0,1,.075.307v5.944h5.267v-5.944a.666.666,0,0,1,.075-.307l.111-.22Zm5.152.527v5.643h-4.665v-5.643a.942.942,0,0,0-.027-.226h4.719a.945.945,0,0,0-.027.226Zm-11.774-.527.111.22a.665.665,0,0,1,.075.307v5.944h5.267v-5.944a.666.666,0,0,1,.075-.307l.111-.22Zm5.152.527v5.643h-4.665v-5.643a.944.944,0,0,0-.027-.226h4.719a.944.944,0,0,0-.027.226Zm-11.774-.527.111.22a.665.665,0,0,1,.075.307v5.944h5.267v-5.944a.665.665,0,0,1,.075-.307l.111-.22Zm5.152.527v5.643H381.2v-5.643a.945.945,0,0,0-.027-.226h4.719a.947.947,0,0,0-.027.226Zm-11.774-.527.111.22a.666.666,0,0,1,.075.307v5.944h5.267v-5.944a.666.666,0,0,1,.075-.307l.111-.22Zm5.152.527v5.643h-4.665v-5.643a.944.944,0,0,0-.027-.226h4.719a.945.945,0,0,0-.027.226Zm-11.774-.527.111.22a.665.665,0,0,1,.075.307v5.944h5.267v-5.944a.666.666,0,0,1,.075-.307l.111-.22Zm5.152.527v5.643H367.96v-5.643a.944.944,0,0,0-.027-.226h4.719a.945.945,0,0,0-.027.226Zm-11.774-.527.111.22a.666.666,0,0,1,.075.307v5.944H366.3v-5.944a.666.666,0,0,1,.075-.307l.111-.22Zm5.152.527v5.643h-4.665v-5.643a.945.945,0,0,0-.027-.226h4.719a.945.945,0,0,0-.027.226Zm-11.774-.527.111.22a.666.666,0,0,1,.075.307v5.944h5.267v-5.944a.665.665,0,0,1,.075-.307l.111-.22Zm5.152.527v5.643h-4.665v-5.643a.944.944,0,0,0-.027-.226h4.719a.944.944,0,0,0-.027.226Zm-11.773-.527.111.22a.666.666,0,0,1,.075.307v5.944h5.267v-5.944a.666.666,0,0,1,.075-.307l.111-.22Zm5.152.527v5.643H348.1v-5.643a.942.942,0,0,0-.027-.226h4.719a.944.944,0,0,0-.027.226Zm47.816-.527.111.22a.666.666,0,0,1,.075.307v5.944h5.267v-5.944a.666.666,0,0,1,.075-.307l.111-.22Zm5.152.527v5.643h-4.665v-5.643a.944.944,0,0,0-.027-.226h4.719a.947.947,0,0,0-.027.226Zm-11.662-.307a.666.666,0,0,1,.075.307v5.944h5.267v-5.944a.666.666,0,0,1,.075-.307l.111-.22h-5.64Zm5.068.081a.944.944,0,0,0-.027.226v5.643h-4.665v-5.643a.944.944,0,0,0-.027-.226Zm-11.689-.081a.666.666,0,0,1,.075.307v5.944h5.267v-5.944a.666.666,0,0,1,.075-.307l.111-.22h-5.64Zm5.068.081a.944.944,0,0,0-.027.226v5.643h-4.665v-5.643a.944.944,0,0,0-.027-.226Zm-11.689-.081a.666.666,0,0,1,.075.307v5.944h5.267v-5.944a.666.666,0,0,1,.075-.307l.111-.22h-5.64Zm5.068.081a.946.946,0,0,0-.027.226v5.643H381.2v-5.643a.947.947,0,0,0-.027-.226Zm-11.689-.081a.666.666,0,0,1,.075.307v5.944h5.267v-5.944a.665.665,0,0,1,.075-.307l.111-.22h-5.64Zm5.068.081a.946.946,0,0,0-.027.226v5.643h-4.665v-5.643a.944.944,0,0,0-.027-.226Zm-11.689-.081a.666.666,0,0,1,.075.307v5.944h5.267v-5.944a.666.666,0,0,1,.075-.307l.111-.22h-5.64Zm5.068.081a.946.946,0,0,0-.027.226v5.643H367.96v-5.643a.944.944,0,0,0-.027-.226Zm-11.689-.081a.666.666,0,0,1,.075.307v5.944H366.3v-5.944a.666.666,0,0,1,.075-.307l.111-.22h-5.64Zm5.068.081a.946.946,0,0,0-.027.226v5.643h-4.665v-5.643a.944.944,0,0,0-.027-.226Zm-11.689-.081a.665.665,0,0,1,.075.307v5.944h5.267v-5.944a.665.665,0,0,1,.075-.307l.111-.22h-5.64Zm5.068.081a.949.949,0,0,0-.027.226v5.643h-4.665v-5.643a.942.942,0,0,0-.027-.226Zm-11.689-.081a.666.666,0,0,1,.075.307v5.944h5.267v-5.944a.666.666,0,0,1,.075-.307l.111-.22h-5.64Zm5.068.081a.944.944,0,0,0-.027.226v5.643H348.1v-5.643a.945.945,0,0,0-.027-.226Zm47.9-.081a.665.665,0,0,1,.075.307v5.944h5.267v-5.944a.665.665,0,0,1,.075-.307l.111-.22h-5.64Zm5.068.081a.947.947,0,0,0-.027.226v5.643h-4.665v-5.643a.946.946,0,0,0-.027-.226Zm-11.689-.081a.666.666,0,0,1,.075.307v5.944h5.267v-5.944a.665.665,0,0,1,.075-.307l.111-.22h-5.64Zm5.068.081a.947.947,0,0,0-.027.226v5.643h-4.665v-5.643a.944.944,0,0,0-.027-.226Zm-11.689-.081a.665.665,0,0,1,.075.307v5.944h5.267v-5.944a.666.666,0,0,1,.075-.307l.111-.22h-5.64Zm5.068.081a.946.946,0,0,0-.027.226v5.643h-4.665v-5.643a.942.942,0,0,0-.027-.226Zm-11.689-.081a.666.666,0,0,1,.075.307v5.944h5.267v-5.944a.666.666,0,0,1,.075-.307l.111-.22h-5.64Zm5.068.081a.944.944,0,0,0-.027.226v5.643H381.2v-5.643a.944.944,0,0,0-.027-.226Zm-11.689-.081a.666.666,0,0,1,.075.307v5.944h5.267v-5.944a.666.666,0,0,1,.075-.307l.111-.22h-5.64Zm5.068.081a.947.947,0,0,0-.027.226v5.643h-4.665v-5.643a.944.944,0,0,0-.027-.226Zm-11.689-.081a.666.666,0,0,1,.075.307v5.944h5.267v-5.944a.666.666,0,0,1,.075-.307l.111-.22h-5.64Zm5.068.081a.942.942,0,0,0-.027.226v5.643H367.96v-5.643a.945.945,0,0,0-.027-.226Zm-11.689-.081a.665.665,0,0,1,.075.307v5.944H366.3v-5.944a.666.666,0,0,1,.075-.307l.111-.22h-5.64Zm5.068.081a.944.944,0,0,0-.027.226v5.643h-4.665v-5.643a.945.945,0,0,0-.027-.226Zm-11.689-.081a.666.666,0,0,1,.075.307v5.944h5.267v-5.944a.665.665,0,0,1,.075-.307l.111-.22h-5.64Zm5.068.081a.946.946,0,0,0-.027.226v5.643h-4.665v-5.643a.944.944,0,0,0-.027-.226Zm-11.689-.081a.665.665,0,0,1,.075.307v5.944h5.267v-5.944a.666.666,0,0,1,.075-.307l.111-.22h-5.64Zm5.068.081a.946.946,0,0,0-.027.226v5.643H348.1v-5.643a.944.944,0,0,0-.027-.226Zm59.262,7.073h-1.794a1.66,1.66,0,0,0-1.592-1.2h-.978v-5.643a.941.941,0,0,0-.068-.354.9.9,0,0,0-.459-1.678H346.667a.9.9,0,0,0-.459,1.678.941.941,0,0,0-.068.354v5.643h-.978a1.66,1.66,0,0,0-1.592,1.2h-1.944a1.356,1.356,0,0,0-1.354,1.354V318.4a1.357,1.357,0,0,0,1.354,1.354h70.424a1.356,1.356,0,0,0,1.354-1.354V238.951a1.356,1.356,0,0,0-1.354-1.354ZM413.1,318.4a1.054,1.054,0,0,1-.688.987,1.011,1.011,0,0,1-.366.066H341.626a1.011,1.011,0,0,1-.366-.066,1.054,1.054,0,0,1-.688-.987V238.951a1.055,1.055,0,0,1,1.053-1.053h2.185l.024-.12a1.359,1.359,0,0,1,1.327-1.083h1.279v-5.944a.676.676,0,0,1,.1-.348l.093-.155-.17-.063a.6.6,0,0,1,.206-1.165H407.16a.6.6,0,0,1,.206,1.165l-.17.063.093.155a.676.676,0,0,1,.1.348v5.944h1.279a1.359,1.359,0,0,1,1.327,1.083l.024.12h2.034a1.054,1.054,0,0,1,1.053,1.053Zm-65.495-88.181.111.22a.666.666,0,0,1,.075.307v5.944h5.267v-5.944a.665.665,0,0,1,.075-.307l.111-.22Zm5.152.527v5.643H348.1v-5.643a.945.945,0,0,0-.027-.226h4.719A.944.944,0,0,0,352.762,230.749Zm1.469-.527.111.22a.665.665,0,0,1,.075.307v5.944h5.267v-5.944a.666.666,0,0,1,.075-.307l.111-.22Zm5.152.527v5.643h-4.665v-5.643a.945.945,0,0,0-.027-.226h4.719A.945.945,0,0,0,359.383,230.749Zm1.469-.527.111.22a.666.666,0,0,1,.075.307v5.944H366.3v-5.944a.666.666,0,0,1,.075-.307l.111-.22Zm5.152.527v5.643h-4.665v-5.643a.947.947,0,0,0-.027-.226h4.719A.942.942,0,0,0,366,230.749Zm1.469-.527.111.22a.666.666,0,0,1,.075.307v5.944h5.267v-5.944a.666.666,0,0,1,.075-.307l.111-.22Zm5.152.527v5.643H367.96v-5.643a.944.944,0,0,0-.027-.226h4.719A.944.944,0,0,0,372.625,230.749Zm1.469-.527.111.22a.665.665,0,0,1,.075.307v5.944h5.267v-5.944a.666.666,0,0,1,.075-.307l.111-.22Zm5.152.527v5.643h-4.665v-5.643a.944.944,0,0,0-.027-.226h4.719A.945.945,0,0,0,379.246,230.749Zm1.469-.527.111.22a.666.666,0,0,1,.075.307v5.944h5.267v-5.944a.665.665,0,0,1,.075-.307l.111-.22Zm5.152.527v5.643H381.2v-5.643a.946.946,0,0,0-.027-.226h4.719a.945.945,0,0,0-.027.226Zm1.469-.527.111.22a.667.667,0,0,1,.075.307v5.944h5.267v-5.944a.665.665,0,0,1,.075-.307l.111-.22Zm5.152.527v5.643h-4.665v-5.643a.944.944,0,0,0-.027-.226h4.719A.944.944,0,0,0,392.488,230.749Zm1.469-.527.111.22a.665.665,0,0,1,.075.307v5.944h5.267v-5.944a.666.666,0,0,1,.075-.307l.111-.22Zm5.152.527v5.643h-4.665v-5.643a.944.944,0,0,0-.027-.226h4.719a.945.945,0,0,0-.027.226Zm1.469-.527.111.22a.666.666,0,0,1,.075.307v5.944h5.267v-5.944a.665.665,0,0,1,.075-.307l.111-.22Zm5.152.527v5.643h-4.665v-5.643a.946.946,0,0,0-.027-.226h4.719a.945.945,0,0,0-.027.226Zm-58.121-.527.111.22a.666.666,0,0,1,.075.307v5.944h5.267v-5.944a.666.666,0,0,1,.075-.307l.111-.22Zm5.152.527v5.643H348.1v-5.643a.942.942,0,0,0-.027-.226h4.719a.944.944,0,0,0-.027.226Zm1.469-.527.111.22a.665.665,0,0,1,.075.307v5.944h5.267v-5.944a.666.666,0,0,1,.075-.307l.111-.22Zm5.152.527v5.643h-4.665v-5.643a.945.945,0,0,0-.027-.226h4.719a.944.944,0,0,0-.027.226Zm1.469-.527.111.22a.666.666,0,0,1,.075.307v5.944H366.3v-5.944a.666.666,0,0,1,.075-.307l.111-.22Zm5.152.527v5.643h-4.665v-5.643a.946.946,0,0,0-.027-.226h4.719a.944.944,0,0,0-.027.226Zm1.469-.527.111.22a.665.665,0,0,1,.075.307v5.944h5.267v-5.944a.666.666,0,0,1,.075-.307l.111-.22Zm5.152.527v5.643H367.96v-5.643a.945.945,0,0,0-.027-.226h4.719a.944.944,0,0,0-.027.226Zm1.469-.527.111.22a.666.666,0,0,1,.075.307v5.944h5.267v-5.944a.666.666,0,0,1,.075-.307l.111-.22Zm5.152.527v5.643h-4.665v-5.643a.944.944,0,0,0-.027-.226h4.719a.945.945,0,0,0-.027.226Zm1.469-.527.111.22a.665.665,0,0,1,.075.307v5.944h5.267v-5.944a.665.665,0,0,1,.075-.307l.111-.22Zm5.152.527v5.643H381.2v-5.643a.944.944,0,0,0-.027-.226h4.719a.945.945,0,0,0-.027.226Zm1.469-.527.111.22a.665.665,0,0,1,.075.307v5.944h5.267v-5.944a.666.666,0,0,1,.075-.307l.111-.22Zm5.152.527v5.643h-4.665v-5.643a.942.942,0,0,0-.027-.226h4.719a.947.947,0,0,0-.027.226Zm1.469-.527.111.22a.666.666,0,0,1,.075.307v5.944h5.267v-5.944a.665.665,0,0,1,.075-.307l.111-.22Zm5.152.527v5.643h-4.665v-5.643a.944.944,0,0,0-.027-.226h4.719a.944.944,0,0,0-.027.226Zm1.469-.527.111.22a.666.666,0,0,1,.075.307v5.944h5.267v-5.944a.666.666,0,0,1,.075-.307l.111-.22Zm5.152.527v5.643h-4.665v-5.643a.944.944,0,0,0-.027-.226h4.719a.947.947,0,0,0-.027.226Zm-58.121-.527.111.22a.665.665,0,0,1,.075.307v5.944h5.267v-5.944a.666.666,0,0,1,.075-.307l.111-.22Zm5.152.527v5.643H348.1v-5.643a.944.944,0,0,0-.027-.226h4.719a.945.945,0,0,0-.027.226Zm1.469-.527.111.22a.666.666,0,0,1,.075.307v5.944h5.267v-5.944a.665.665,0,0,1,.075-.307l.111-.22Zm5.152.527v5.643h-4.665v-5.643a.944.944,0,0,0-.027-.226h4.719a.944.944,0,0,0-.027.226Zm1.469-.527.111.22a.665.665,0,0,1,.075.307v5.944H366.3v-5.944a.666.666,0,0,1,.075-.307l.111-.22Zm5.152.527v5.643h-4.665v-5.643a.944.944,0,0,0-.027-.226h4.719a.945.945,0,0,0-.027.226Zm1.469-.527.111.22a.666.666,0,0,1,.075.307v5.944h5.267v-5.944a.666.666,0,0,1,.075-.307l.111-.22Zm5.152.527v5.643H367.96v-5.643a.944.944,0,0,0-.027-.226h4.719a.942.942,0,0,0-.027.226Zm1.469-.527.111.22a.665.665,0,0,1,.075.307v5.944h5.267v-5.944a.665.665,0,0,1,.075-.307l.111-.22Zm5.152.527v5.643h-4.665v-5.643a.944.944,0,0,0-.027-.226h4.719a.944.944,0,0,0-.027.226Zm1.469-.527.111.22a.666.666,0,0,1,.075.307v5.944h5.267v-5.944a.666.666,0,0,1,.075-.307l.111-.22Zm5.152.527v5.643H381.2v-5.643a.947.947,0,0,0-.027-.226h4.719a.945.945,0,0,0-.027.226Zm1.469-.527.111.22a.666.666,0,0,1,.075.307v5.944h5.267v-5.944a.666.666,0,0,1,.075-.307l.111-.22Zm5.152.527v5.643h-4.665v-5.643a.944.944,0,0,0-.027-.226h4.719a.945.945,0,0,0-.027.226Zm1.469-.527.111.22a.666.666,0,0,1,.075.307v5.944h5.267v-5.944a.666.666,0,0,1,.075-.307l.111-.22Zm5.152.527v5.643h-4.665v-5.643a.944.944,0,0,0-.027-.226h4.719a.945.945,0,0,0-.027.226Zm1.469-.527.111.22a.666.666,0,0,1,.075.307v5.944h5.267v-5.944a.665.665,0,0,1,.075-.307l.111-.22Zm5.152.527v5.643h-4.665v-5.643a.945.945,0,0,0-.027-.226h4.719a.945.945,0,0,0-.027.226Zm-58.121-.527.111.22a.666.666,0,0,1,.075.307v5.944h5.267v-5.944a.665.665,0,0,1,.075-.307l.111-.22Zm5.152.527v5.643H348.1v-5.643a.944.944,0,0,0-.027-.226h4.719a.944.944,0,0,0-.027.226Zm1.469-.527.111.22a.666.666,0,0,1,.075.307v5.944h5.267v-5.944a.665.665,0,0,1,.075-.307l.111-.22Zm5.152.527v5.643h-4.665v-5.643a.942.942,0,0,0-.027-.226h4.719a.945.945,0,0,0-.027.226Zm1.469-.527.111.22a.666.666,0,0,1,.075.307v5.944H366.3v-5.944a.665.665,0,0,1,.075-.307l.111-.22Zm5.152.527v5.643h-4.665v-5.643a.945.945,0,0,0-.027-.226h4.719a.944.944,0,0,0-.027.226Zm1.469-.527.111.22a.666.666,0,0,1,.075.307v5.944h5.267v-5.944a.666.666,0,0,1,.075-.307l.111-.22Zm5.152.527v5.643H367.96v-5.643a.944.944,0,0,0-.027-.226h4.719a.944.944,0,0,0-.027.226Zm1.469-.527.111.22a.666.666,0,0,1,.075.307v5.944h5.267v-5.944a.666.666,0,0,1,.075-.307l.111-.22Zm5.152.527v5.643h-4.665v-5.643a.945.945,0,0,0-.027-.226h4.719a.945.945,0,0,0-.027.226Zm1.469-.527.111.22a.665.665,0,0,1,.075.307v5.944h5.267v-5.944a.665.665,0,0,1,.075-.307l.111-.22Zm5.152.527v5.643H381.2v-5.643a.945.945,0,0,0-.027-.226h4.719a.947.947,0,0,0-.027.226Zm1.469-.527.111.22a.666.666,0,0,1,.075.307v5.944h5.267v-5.944a.667.667,0,0,1,.075-.307l.111-.22Zm5.152.527v5.643h-4.665v-5.643a.944.944,0,0,0-.027-.226h4.719a.944.944,0,0,0-.027.226Zm1.469-.527.111.22a.666.666,0,0,1,.075.307v5.944h5.267v-5.944a.666.666,0,0,1,.075-.307l.111-.22Zm5.152.527v5.643h-4.665v-5.643a.945.945,0,0,0-.027-.226h4.719a.947.947,0,0,0-.027.226Zm1.469-.527.111.22a.666.666,0,0,1,.075.307v5.944h5.267v-5.944a.666.666,0,0,1,.075-.307l.111-.22Zm5.152.527v5.643h-4.665v-5.643a.945.945,0,0,0-.027-.226h4.719a.947.947,0,0,0-.027.226Z" transform="translate(-303.364 -204.04)" fill="#1e1e1e" stroke="#545454" stroke-width="1"/>
    <path id="Path_1686" data-name="Path 1686" d="M440.3,370.392H429.2a.882.882,0,0,1-.882-.882V363.6a.883.883,0,0,1,.882-.882h11.1a.883.883,0,0,1,.882.882v5.911A.882.882,0,0,1,440.3,370.392Z" transform="translate(-378.164 -317.875)" fill="#636363"/>
    <path id="Path_1687" data-name="Path 1687" d="M552.52,370.392h-11.1a.883.883,0,0,1-.882-.882V363.6a.883.883,0,0,1,.882-.881h11.1a.883.883,0,0,1,.882.882v5.911A.883.883,0,0,1,552.52,370.392Z" transform="translate(-473.497 -317.875)" fill="#636363"/>
    <path id="Path_1688" data-name="Path 1688" d="M664.74,370.392h-11.1a.883.883,0,0,1-.881-.882V363.6a.883.883,0,0,1,.881-.882h11.1a.883.883,0,0,1,.882.882v5.911A.883.883,0,0,1,664.74,370.392Z" transform="translate(-568.83 -317.875)" fill="#636363"/>
    <path id="Path_1689" data-name="Path 1689" d="M440.3,501.392H429.2a.883.883,0,0,1-.882-.882V494.6a.883.883,0,0,1,.882-.882h11.1a.882.882,0,0,1,.882.882v5.911A.882.882,0,0,1,440.3,501.392Z" transform="translate(-378.164 -429.162)" fill="#636363"/>
    <path id="Path_1690" data-name="Path 1690" d="M552.52,501.392h-11.1a.883.883,0,0,1-.882-.882V494.6a.883.883,0,0,1,.882-.882h11.1a.882.882,0,0,1,.882.882v5.911A.882.882,0,0,1,552.52,501.392Z" transform="translate(-473.497 -429.163)" fill="#636363"/>
    <path id="Path_1691" data-name="Path 1691" d="M664.74,501.392h-11.1a.883.883,0,0,1-.881-.882V494.6a.883.883,0,0,1,.881-.882h11.1a.883.883,0,0,1,.882.882v5.911A.883.883,0,0,1,664.74,501.392Z" transform="translate(-568.83 -429.162)" fill="#636363"/>
    <path id="Path_1692" data-name="Path 1692" d="M440.3,632.392H429.2a.883.883,0,0,1-.882-.882V625.6a.883.883,0,0,1,.882-.881h11.1a.882.882,0,0,1,.882.881v5.911A.883.883,0,0,1,440.3,632.392Z" transform="translate(-378.164 -540.45)" fill="#636363"/>
    <path id="Path_1693" data-name="Path 1693" d="M552.52,632.392h-11.1a.883.883,0,0,1-.882-.881V625.6a.883.883,0,0,1,.882-.882h11.1a.883.883,0,0,1,.882.882v5.911A.883.883,0,0,1,552.52,632.392Z" transform="translate(-473.497 -540.45)" fill="#636363"/>
    <path id="Path_1694" data-name="Path 1694" d="M664.74,632.392h-11.1a.883.883,0,0,1-.881-.881V625.6a.883.883,0,0,1,.881-.881h11.1a.883.883,0,0,1,.882.881v5.911A.883.883,0,0,1,664.74,632.392Z" transform="translate(-568.83 -540.45)" fill="#636363"/>
    <path id="Path_1695" data-name="Path 1695" d="M416.8,366.869H403.943a1.173,1.173,0,0,1-1.172-1.172v-6.848a1.173,1.173,0,0,1,1.172-1.172H416.8a1.173,1.173,0,0,1,1.172,1.172V365.7A1.173,1.173,0,0,1,416.8,366.869Zm-12.855-8.891a.872.872,0,0,0-.871.871V365.7a.872.872,0,0,0,.871.871H416.8a.872.872,0,0,0,.871-.871v-6.848a.872.872,0,0,0-.871-.871Z" transform="translate(-356.458 -313.593)" fill="#3f3d56"/>
    <path id="Path_1696" data-name="Path 1696" d="M546.8,366.869H533.943a1.173,1.173,0,0,1-1.172-1.172v-6.848a1.173,1.173,0,0,1,1.172-1.172H546.8a1.173,1.173,0,0,1,1.172,1.172V365.7a1.173,1.173,0,0,1-1.172,1.172Zm-12.855-8.89a.872.872,0,0,0-.871.871V365.7a.872.872,0,0,0,.871.871H546.8a.872.872,0,0,0,.871-.871v-6.848a.872.872,0,0,0-.871-.871Z" transform="translate(-466.896 -313.593)" fill="#3f3d56"/>
    <path id="Path_1697" data-name="Path 1697" d="M676.8,366.869H663.943a1.173,1.173,0,0,1-1.172-1.172v-6.848a1.173,1.173,0,0,1,1.172-1.172H676.8a1.173,1.173,0,0,1,1.172,1.172V365.7A1.173,1.173,0,0,1,676.8,366.869Zm-12.855-8.89a.872.872,0,0,0-.871.871V365.7a.872.872,0,0,0,.871.871H676.8a.872.872,0,0,0,.871-.871v-6.848a.872.872,0,0,0-.871-.871Z" transform="translate(-577.334 -313.593)" fill="#3f3d56"/>
    <path id="Path_1698" data-name="Path 1698" d="M416.8,497.869H403.943a1.173,1.173,0,0,1-1.172-1.172v-6.848a1.173,1.173,0,0,1,1.172-1.172H416.8a1.173,1.173,0,0,1,1.172,1.172V496.7A1.173,1.173,0,0,1,416.8,497.869Zm-12.855-8.891a.872.872,0,0,0-.871.871V496.7a.872.872,0,0,0,.871.871H416.8a.872.872,0,0,0,.871-.871v-6.848a.872.872,0,0,0-.871-.871Z" transform="translate(-356.458 -424.88)" fill="#3f3d56"/>
    <path id="Path_1699" data-name="Path 1699" d="M546.8,497.869H533.943a1.173,1.173,0,0,1-1.172-1.172v-6.848a1.173,1.173,0,0,1,1.172-1.172H546.8a1.173,1.173,0,0,1,1.172,1.172V496.7a1.173,1.173,0,0,1-1.172,1.172Zm-12.855-8.891a.872.872,0,0,0-.871.871V496.7a.872.872,0,0,0,.871.871H546.8a.872.872,0,0,0,.871-.871v-6.848a.872.872,0,0,0-.871-.871Z" transform="translate(-466.896 -424.88)" fill="#3f3d56"/>
    <path id="Path_1700" data-name="Path 1700" d="M676.8,497.869H663.943a1.173,1.173,0,0,1-1.172-1.172v-6.848a1.173,1.173,0,0,1,1.172-1.172H676.8a1.173,1.173,0,0,1,1.172,1.172V496.7A1.173,1.173,0,0,1,676.8,497.869Zm-12.855-8.891a.872.872,0,0,0-.871.871V496.7a.872.872,0,0,0,.871.871H676.8a.872.872,0,0,0,.871-.871v-6.848a.872.872,0,0,0-.871-.871Z" transform="translate(-577.334 -424.88)" fill="#3f3d56"/>
    <path id="Path_1701" data-name="Path 1701" d="M416.8,628.869H403.943a1.173,1.173,0,0,1-1.172-1.172v-6.848a1.173,1.173,0,0,1,1.172-1.172H416.8a1.173,1.173,0,0,1,1.172,1.172V627.7A1.173,1.173,0,0,1,416.8,628.869Zm-12.855-8.89a.872.872,0,0,0-.871.871V627.7a.872.872,0,0,0,.871.871H416.8a.872.872,0,0,0,.871-.871v-6.848a.872.872,0,0,0-.871-.871Z" transform="translate(-356.458 -536.168)" fill="#3f3d56"/>
    <path id="Path_1702" data-name="Path 1702" d="M546.8,628.869H533.943a1.173,1.173,0,0,1-1.172-1.172v-6.848a1.173,1.173,0,0,1,1.172-1.172H546.8a1.173,1.173,0,0,1,1.172,1.172V627.7a1.173,1.173,0,0,1-1.172,1.172Zm-12.855-8.89a.872.872,0,0,0-.871.871V627.7a.872.872,0,0,0,.871.871H546.8a.872.872,0,0,0,.871-.871v-6.848a.872.872,0,0,0-.871-.871Z" transform="translate(-466.896 -536.168)" fill="#3f3d56"/>
    <path id="Path_1703" data-name="Path 1703" d="M676.8,628.869H663.943a1.173,1.173,0,0,1-1.172-1.172v-6.848a1.173,1.173,0,0,1,1.172-1.172H676.8a1.173,1.173,0,0,1,1.172,1.172V627.7A1.173,1.173,0,0,1,676.8,628.869Zm-12.855-8.89a.872.872,0,0,0-.871.871V627.7a.872.872,0,0,0,.871.871H676.8a.872.872,0,0,0,.871-.871v-6.848a.872.872,0,0,0-.871-.871Z" transform="translate(-577.334 -536.168)" fill="#3f3d56"/>
    <path id="Path_1704" data-name="Path 1704" d="M246.834,833.519H95.15a.151.151,0,0,1,0-.3H246.834a.151.151,0,0,1,0,.3Z" transform="translate(-95 -717.575)" fill="#3f3d56"/>
    <path id="Path_1705" data-name="Path 1705" d="M590.871,731.029a1.3,1.3,0,0,0-1.279-1.311h-6.32v15.575h7.6Z" transform="translate(-509.797 -629.65)" fill="#2b2a33"/>
    <path id="Path_1706" data-name="Path 1706" d="M539.672,744.717h-7.9v-14.07a1.431,1.431,0,0,1,1.43-1.43h6.471Zm-7.6-.3h7.3v-14.9H533.2a1.13,1.13,0,0,0-1.129,1.129Z" transform="translate(-466.047 -629.225)" fill="#3f3d56"/>
    <circle id="Ellipse_217" data-name="Ellipse 217" cx="0.451" cy="0.451" r="0.451" transform="translate(66.252 107.894)" fill="#3f3d56"/>
  </g>
</svg>
