<svg xmlns="http://www.w3.org/2000/svg" xmlns:xlink="http://www.w3.org/1999/xlink" width="131.957" height="159.355" viewBox="0 0 131.957 159.355"><defs><style>.a{fill:url(#a);}.b{fill:#fff;}.c,.d{fill:#c7c7c7;}.d,.e,.f{opacity:0.5;}.g{fill:#c0bccf;}.h{fill:url(#b);}.i{fill:#c77485;}.j{opacity:0.1;}.k{fill:url(#c);}.l{fill:#161616;}.m{fill:#f1d2d7;}.n{fill:#0e0e0e;}.o{fill:url(#d);}.p{fill:#53526b;}.q{fill:#1b1b1d;}.r{fill:#060606;}.s{fill:#5f5d7e;}.t{fill:#2e2e2e;}.u{fill:#373737;}.v{opacity:0.02;}.w{fill:#e82127;}.x{fill:#d6dbe6;}.y{fill:#fdc2cc;}.z{fill:#865a61;}.aa{fill:url(#e);}.ab{fill:#050505;}.ac{fill:#9b9b9b;}.ad{fill:url(#f);}.ae{fill:#343434;}</style><linearGradient id="a" x1="0.5" y1="1" x2="0.5" gradientUnits="objectBoundingBox"><stop offset="0" stop-color="gray" stop-opacity="0.251"/><stop offset="0.54" stop-color="gray" stop-opacity="0.122"/><stop offset="1" stop-color="gray" stop-opacity="0.102"/></linearGradient><linearGradient id="b" y1="1" y2="0" xlink:href="#a"/><linearGradient id="c" x1="0" y1="0.5" x2="1" y2="0.5" xlink:href="#a"/><linearGradient id="d" x1="2.581" y1="1" x2="2.581" y2="0" xlink:href="#a"/><linearGradient id="e" y1="1" y2="0" xlink:href="#a"/><linearGradient id="f" x1="-25.357" y1="1.001" x2="-25.357" y2="0" xlink:href="#a"/></defs><g transform="translate(-29.758 -5.639)"><rect class="a" width="122.369" height="147.644" transform="translate(39.346 7.676)"/><rect class="b" width="119.242" height="143.872" transform="translate(40.91 9.564)"/><rect class="c" width="48.088" height="2.346" transform="translate(87.238 25.789)"/><rect class="c" width="48.088" height="2.346" transform="translate(87.238 33.217)"/><rect width="25.021" height="2.346" transform="translate(98.771 40.645)"/><rect class="d" width="48.088" height="2.346" transform="translate(87.238 72.899)"/><rect class="d" width="48.088" height="2.346" transform="translate(87.238 80.327)"/><rect class="e" width="25.021" height="2.346" transform="translate(98.771 87.755)"/><rect class="d" width="48.088" height="2.346" transform="translate(87.238 120.009)"/><rect class="d" width="48.088" height="2.346" transform="translate(87.238 127.437)"/><rect class="e" width="25.021" height="2.346" transform="translate(98.771 134.865)"/><g class="f" transform="translate(47.36 68.205)"><path class="g" d="M312.065,386.091a13.23,13.23,0,0,1-3.2,8.65c-.1.119-.207.237-.315.352q-.08.09-.164.176a13.038,13.038,0,0,1-1.419,1.288l-.035.025a12.991,12.991,0,0,1-2.522,1.548h0a13.1,13.1,0,0,1-1.415.567l-.178.057c-.109.037-.223.07-.334.1l-.045.014a13.357,13.357,0,0,1-7.34,0h-.02c-.2-.057-.391-.115-.571-.18l-.166-.059a12.891,12.891,0,0,1-1.837-.813l-.037-.02a13.344,13.344,0,0,1-2.6-1.843l-.065-.061a12.421,12.421,0,0,1-1.136-1.173c-.047-.053-.092-.108-.137-.162-.086-.1-.168-.207-.25-.313a13.292,13.292,0,1,1,23.79-8.155Z" transform="translate(-285.48 -372.798)"/><path class="h" d="M319.932,402.627l-1.009-.454a4.007,4.007,0,0,0,.02-.461,3.632,3.632,0,0,0,0-.391,8.815,8.815,0,0,0-1.218-2.864,8.133,8.133,0,0,1-.8-2.737,13.228,13.228,0,0,0-.43-3.491,6.3,6.3,0,0,0-1.783-2.289,9.048,9.048,0,0,0-2.864-1.816,5.064,5.064,0,0,0-3.411-.092,7.36,7.36,0,0,0-2.457,1.775,8.258,8.258,0,0,0-1.388,1.579,6.83,6.83,0,0,0-.782,2.389,36.539,36.539,0,0,0-.481,3.992c-.076,1.116-.2,2.383-1.149,3.067-.465.334-1.12.522-1.333,1.028a1.052,1.052,0,0,0-.07.479,1.76,1.76,0,0,0,.029.4c.014.078.029.154.049.233a17.148,17.148,0,0,0-.688,2.088c-.143.528-.274,1.046-.391,1.548h.485l1.822.043h.025l1.955.045h.01l1.822.043h.045l.526.037h.172l7.285.168h.039l.485.012h.17l1.458.033h0l2.15.049h.016l1.619.039h.5l-.086-1.7C320.637,402.789,319.932,402.627,319.932,402.627Zm-8.185-.207c0,1.439-1.54,3.2-1.54,3.2l-1.55-2.111.057-.082,1.493,2.033s1.54-1.759,1.54-3.2a1.687,1.687,0,0,1,.123-.211l.035.109A2.076,2.076,0,0,0,311.747,402.42Zm2.369,5.645a1.175,1.175,0,0,0-.014-.219c-.014-.072-.012-.137-.021-.207s-.018-.139-.027-.209-.023-.139-.037-.209-.027-.139-.043-.209a.326.326,0,0,0-.016-.07q-.032-.138-.07-.276c-.025-.092-.041-.149-.065-.221a.3.3,0,0,0-.031-.1c-.012-.031-.033-.106-.051-.158l-.035-.1c-.016-.045-.031-.092-.049-.137-.029-.082-.061-.162-.092-.244s-.064-.162-.1-.242c-.066-.164-.139-.326-.211-.491-.283-.633-.6-1.257-.9-1.875a9.971,9.971,0,0,1-.418-.993l-.037.049a2.078,2.078,0,0,0-.158.264c0,1.439-1.54,3.2-1.54,3.2l-1.55-2.111-1.357,1.955a1.582,1.582,0,0,0-.543.9c-.043.127-.084.268-.123.414-.027.1-.053.2-.076.307-.014.053-.025.106-.037.16l-.035.166v.025c-.023.113-.047.231-.068.35s-.047.256-.068.391q-.023.127-.041.252c-.027.162-.051.326-.074.491-.014.1-.027.2-.039.283l-.047.364c.1.3.211.586.326.887a1.4,1.4,0,0,1,.127.5,14.247,14.247,0,0,0,7.34,0,.065.065,0,0,1,0-.018,2.04,2.04,0,0,1-.047-.5h0a12.878,12.878,0,0,1,.2-1.4,4.784,4.784,0,0,0,.037-.688v-.082c-.006-.074-.008-.141-.01-.205Zm0,0a1.175,1.175,0,0,0-.014-.219c-.014-.072-.012-.137-.021-.207s-.018-.139-.027-.209-.023-.139-.037-.209-.027-.139-.043-.209a.326.326,0,0,0-.016-.07q-.032-.138-.07-.276c-.025-.092-.041-.149-.065-.221a.3.3,0,0,0-.031-.1c-.012-.031-.033-.106-.051-.158l-.035-.1c-.016-.045-.031-.092-.049-.137-.029-.082-.061-.162-.092-.244s-.064-.162-.1-.242c-.066-.164-.139-.326-.211-.491-.283-.633-.6-1.257-.9-1.875a9.971,9.971,0,0,1-.418-.993l-.037.049a2.078,2.078,0,0,0-.158.264c0,1.439-1.54,3.2-1.54,3.2l-1.55-2.111-1.357,1.955a1.582,1.582,0,0,0-.543.9c-.043.127-.084.268-.123.414-.027.1-.053.2-.076.307-.014.053-.025.106-.037.16l-.035.166v.025c-.023.113-.047.231-.068.35s-.047.256-.068.391q-.023.127-.041.252c-.027.162-.051.326-.074.491-.014.1-.027.2-.039.283l-.047.364c.1.3.211.586.326.887a1.4,1.4,0,0,1,.127.5,14.247,14.247,0,0,0,7.34,0,.065.065,0,0,1,0-.018,2.04,2.04,0,0,1-.047-.5h0a12.878,12.878,0,0,1,.2-1.4,4.784,4.784,0,0,0,.037-.688v-.082c-.006-.074-.008-.141-.01-.205Zm0,0a1.175,1.175,0,0,0-.014-.219c-.014-.072-.012-.137-.021-.207s-.018-.139-.027-.209-.023-.139-.037-.209-.027-.139-.043-.209a.326.326,0,0,0-.016-.07q-.032-.138-.07-.276c-.025-.092-.041-.149-.065-.221a.3.3,0,0,0-.031-.1c-.012-.031-.033-.106-.051-.158l-.035-.1c-.016-.045-.031-.092-.049-.137-.029-.082-.061-.162-.092-.244s-.064-.162-.1-.242c-.066-.164-.139-.326-.211-.491-.283-.633-.6-1.257-.9-1.875a9.971,9.971,0,0,1-.418-.993l-.037.049a2.078,2.078,0,0,0-.158.264c0,1.439-1.54,3.2-1.54,3.2l-1.55-2.111-1.357,1.955a1.582,1.582,0,0,0-.543.9c-.043.127-.084.268-.123.414-.027.1-.053.2-.076.307-.014.053-.025.106-.037.16l-.035.166v.025c-.023.113-.047.231-.068.35s-.047.256-.068.391q-.023.127-.041.252c-.027.162-.051.326-.074.491-.014.1-.027.2-.039.283l-.047.364c.1.3.211.586.326.887a1.4,1.4,0,0,1,.127.5,14.247,14.247,0,0,0,7.34,0,.065.065,0,0,1,0-.018,2.04,2.04,0,0,1-.047-.5h0a12.878,12.878,0,0,1,.2-1.4,4.784,4.784,0,0,0,.037-.688v-.082c-.006-.074-.008-.141-.01-.205Zm0,0a1.175,1.175,0,0,0-.014-.219c-.014-.072-.012-.137-.021-.207s-.018-.139-.027-.209-.023-.139-.037-.209-.027-.139-.043-.209a.326.326,0,0,0-.016-.07q-.032-.138-.07-.276c-.025-.092-.041-.149-.065-.221a.3.3,0,0,0-.031-.1c-.012-.031-.033-.106-.051-.158l-.035-.1c-.016-.045-.031-.092-.049-.137-.029-.082-.061-.162-.092-.244s-.064-.162-.1-.242c-.066-.164-.139-.326-.211-.491-.283-.633-.6-1.257-.9-1.875a9.971,9.971,0,0,1-.418-.993l-.037.049a2.078,2.078,0,0,0-.158.264c0,1.439-1.54,3.2-1.54,3.2l-1.55-2.111-1.357,1.955a1.582,1.582,0,0,0-.543.9c-.043.127-.084.268-.123.414-.027.1-.053.2-.076.307-.014.053-.025.106-.037.16l-.035.166v.025c-.023.113-.047.231-.068.35s-.047.256-.068.391q-.023.127-.041.252c-.027.162-.051.326-.074.491-.014.1-.027.2-.039.283l-.047.364c.1.3.211.586.326.887a1.4,1.4,0,0,1,.127.5,14.247,14.247,0,0,0,7.34,0,.065.065,0,0,1,0-.018,2.04,2.04,0,0,1-.047-.5h0a12.878,12.878,0,0,1,.2-1.4,4.784,4.784,0,0,0,.037-.688v-.082c-.006-.074-.008-.141-.01-.205Z" transform="translate(-296.985 -384.85)"/><path d="M0,0H8.992V6.06H0Z" transform="translate(8.21 9.581)"/><path class="i" d="M337.567,432.781l-3.763,5.3-3.933-.342s-5.131.34-1.71-3.591a8.438,8.438,0,0,0,2.3-4.59,3.554,3.554,0,0,0-.244-1.908l4.275-.512a3.19,3.19,0,0,0-.07,1.785C334.953,431.145,337.567,432.781,337.567,432.781Z" transform="translate(-318.871 -416.517)"/><path class="j" d="M347.695,428.9a4.273,4.273,0,0,1-3.96.637,3.554,3.554,0,0,0-.244-1.908l4.275-.512a3.191,3.191,0,0,0-.07,1.783Z" transform="translate(-332.15 -416.501)"/><circle class="i" cx="4.275" cy="4.275" r="4.275" transform="translate(8.691 4.547)"/><path class="j" d="M332.773,450.36l-.1-.391-.086-.344-.127-.508-.023-.094-.02-.078s.1-.307-.569-.207l-.125.021c-.106.022-.229.051-.369.09l-.127.039-.168.053h0a3.665,3.665,0,0,0-1.419.856,3.2,3.2,0,0,0-.475.575c-.014.02-.023.037-.035.053a1.845,1.845,0,0,0-.123.227,6.972,6.972,0,0,1-1.54,3.421l-1.5-2.172-.029-.043-.358-.52-.127-.168-.043-.059-.782-1.05-.2-.262-.065-.088-.1-.127-.225-.3-.88.514-1.173.684-.684,4.447v.123l.022.367.143,2.416v.033l-.25,1,.037.02a12.891,12.891,0,0,0,1.837.813l.166.059c.2.065.379.123.571.18a.692.692,0,0,1,.016.088v-.084a13.357,13.357,0,0,0,7.34,0l.045-.014c.111-.031.225-.065.334-.1l.178-.057a13.1,13.1,0,0,0,1.415-.567l.164-3.5.117-2.524v-.145Z" transform="translate(-314.234 -433.877)"/><path class="b" d="M331.542,457.573a1.348,1.348,0,0,0-.014-.235c-.014-.078-.012-.147-.021-.221s-.018-.149-.027-.223-.023-.149-.037-.223-.027-.149-.043-.223a.335.335,0,0,0-.016-.074c-.021-.1-.045-.2-.07-.3s-.041-.158-.065-.237a.334.334,0,0,0-.031-.1c-.012-.033-.033-.113-.051-.17l-.035-.109c-.016-.049-.031-.1-.049-.147-.029-.088-.061-.174-.092-.262s-.064-.174-.1-.26c-.066-.176-.139-.35-.211-.524-.283-.676-.6-1.343-.9-2a11.079,11.079,0,0,1-.418-1.061l-.037.053a2.259,2.259,0,0,0-.158.281,6.982,6.982,0,0,1-1.54,3.421l-1.55-2.258-1.357,2.086a1.7,1.7,0,0,0-.543.966c-.043.137-.084.285-.123.444-.027.106-.053.217-.076.328-.014.057-.025.113-.037.172l-.035.178v.027c-.023.121-.047.246-.068.373s-.047.274-.068.412q-.023.135-.041.27c-.027.174-.051.35-.074.524-.014.1-.027.2-.039.3l-.047.391c.1.321.211.637.326.948a1.575,1.575,0,0,1,.127.538,13.357,13.357,0,0,0,7.34,0,.075.075,0,0,1,0-.02,2.326,2.326,0,0,1-.047-.534h0a14.655,14.655,0,0,1,.2-1.5,5.472,5.472,0,0,0,.037-.735v-.088C331.546,457.714,331.544,457.644,331.542,457.573Zm0,0a1.348,1.348,0,0,0-.014-.235c-.014-.078-.012-.147-.021-.221s-.018-.149-.027-.223-.023-.149-.037-.223-.027-.149-.043-.223a.335.335,0,0,0-.016-.074c-.021-.1-.045-.2-.07-.3s-.041-.158-.065-.237a.334.334,0,0,0-.031-.1c-.012-.033-.033-.113-.051-.17l-.035-.109c-.016-.049-.031-.1-.049-.147-.029-.088-.061-.174-.092-.262s-.064-.174-.1-.26c-.066-.176-.139-.35-.211-.524-.283-.676-.6-1.343-.9-2a11.079,11.079,0,0,1-.418-1.061l-.037.053a2.259,2.259,0,0,0-.158.281,6.982,6.982,0,0,1-1.54,3.421l-1.55-2.258-1.357,2.086a1.7,1.7,0,0,0-.543.966c-.043.137-.084.285-.123.444-.027.106-.053.217-.076.328-.014.057-.025.113-.037.172l-.035.178v.027c-.023.121-.047.246-.068.373s-.047.274-.068.412q-.023.135-.041.27c-.027.174-.051.35-.074.524-.014.1-.027.2-.039.3l-.047.391c.1.321.211.637.326.948a1.575,1.575,0,0,1,.127.538,13.357,13.357,0,0,0,7.34,0,.075.075,0,0,1,0-.02,2.326,2.326,0,0,1-.047-.534h0a14.655,14.655,0,0,1,.2-1.5,5.472,5.472,0,0,0,.037-.735v-.088C331.546,457.714,331.544,457.644,331.542,457.573Zm0,0a1.348,1.348,0,0,0-.014-.235c-.014-.078-.012-.147-.021-.221s-.018-.149-.027-.223-.023-.149-.037-.223-.027-.149-.043-.223a.335.335,0,0,0-.016-.074c-.021-.1-.045-.2-.07-.3s-.041-.158-.065-.237a.334.334,0,0,0-.031-.1c-.012-.033-.033-.113-.051-.17l-.035-.109c-.016-.049-.031-.1-.049-.147-.029-.088-.061-.174-.092-.262s-.064-.174-.1-.26c-.066-.176-.139-.35-.211-.524-.283-.676-.6-1.343-.9-2a11.079,11.079,0,0,1-.418-1.061l-.037.053a2.259,2.259,0,0,0-.158.281,6.982,6.982,0,0,1-1.54,3.421l-1.55-2.258-1.357,2.086a1.7,1.7,0,0,0-.543.966c-.043.137-.084.285-.123.444-.027.106-.053.217-.076.328-.014.057-.025.113-.037.172l-.035.178v.027c-.023.121-.047.246-.068.373s-.047.274-.068.412q-.023.135-.041.27c-.027.174-.051.35-.074.524-.014.1-.027.2-.039.3l-.047.391c.1.321.211.637.326.948a1.575,1.575,0,0,1,.127.538,13.357,13.357,0,0,0,7.34,0,.075.075,0,0,1,0-.02,2.326,2.326,0,0,1-.047-.534h0a14.655,14.655,0,0,1,.2-1.5,5.472,5.472,0,0,0,.037-.735v-.088C331.546,457.714,331.544,457.644,331.542,457.573Zm2.072-3.669-.7-2.786-.119-.477-.033-.131h0l-.17-.68a.13.13,0,0,0,0-.018h0a.156.156,0,0,0-.014-.088c-.025-.051-.09-.1-.24-.117a1.217,1.217,0,0,0-.172,0h0a2.976,2.976,0,0,0-.5.094c-.08.021-.166.045-.258.074l-.168.053h-.016a3.731,3.731,0,0,0-1.232.684,3.324,3.324,0,0,0-.626.692l-.037.053a2.259,2.259,0,0,0-.158.281,6.982,6.982,0,0,1-1.54,3.421l-1.55-2.258-.088-.127-.016-.022-.225-.33-.17-.227-.045-.059-.8-1.069h0l-.254-.346v-.012l-.088-.119-.168-.223-.586.342-1.466.854-.676,4.4v.047l.02.321.145,2.449v.139l-.221.882a12.889,12.889,0,0,0,1.837.813l.166.059c.2.064.379.123.571.18a.686.686,0,0,1,.016.088v-.084a13.357,13.357,0,0,0,7.34,0l.045-.014c.111-.031.225-.065.334-.1l.178-.057a13.1,13.1,0,0,0,1.415-.567h0l.162-3.5.117-2.5ZM324,460.654a.692.692,0,0,1,.016.088v-.084Zm7.542-3.081a1.348,1.348,0,0,0-.014-.235c-.014-.078-.012-.147-.021-.221s-.018-.149-.027-.223-.023-.149-.037-.223-.027-.149-.043-.223a.335.335,0,0,0-.016-.074c-.021-.1-.045-.2-.07-.3s-.041-.158-.065-.237a.334.334,0,0,0-.031-.1c-.012-.033-.033-.113-.051-.17l-.035-.109c-.016-.049-.031-.1-.049-.147-.029-.088-.061-.174-.092-.262s-.064-.174-.1-.26c-.066-.176-.139-.35-.211-.524-.283-.676-.6-1.343-.9-2a11.079,11.079,0,0,1-.418-1.061l-.037.053a2.259,2.259,0,0,0-.158.281,6.982,6.982,0,0,1-1.54,3.421l-1.55-2.258-1.357,2.086a1.7,1.7,0,0,0-.543.966c-.043.137-.084.285-.123.444-.027.106-.053.217-.076.328-.014.057-.025.113-.037.172l-.035.178v.027c-.023.121-.047.246-.068.373s-.047.274-.068.412q-.023.135-.041.27c-.027.174-.051.35-.074.524-.014.1-.027.2-.039.3l-.047.391c.1.321.211.637.326.948a1.575,1.575,0,0,1,.127.538,13.357,13.357,0,0,0,7.34,0,.075.075,0,0,1,0-.02,2.326,2.326,0,0,1-.047-.534h0a14.655,14.655,0,0,1,.2-1.5,5.472,5.472,0,0,0,.037-.735v-.088C331.546,457.714,331.544,457.644,331.542,457.573Zm0,0a1.348,1.348,0,0,0-.014-.235c-.014-.078-.012-.147-.021-.221s-.018-.149-.027-.223-.023-.149-.037-.223-.027-.149-.043-.223a.335.335,0,0,0-.016-.074c-.021-.1-.045-.2-.07-.3s-.041-.158-.065-.237a.334.334,0,0,0-.031-.1c-.012-.033-.033-.113-.051-.17l-.035-.109c-.016-.049-.031-.1-.049-.147-.029-.088-.061-.174-.092-.262s-.064-.174-.1-.26c-.066-.176-.139-.35-.211-.524-.283-.676-.6-1.343-.9-2a11.079,11.079,0,0,1-.418-1.061l-.037.053a2.259,2.259,0,0,0-.158.281,6.982,6.982,0,0,1-1.54,3.421l-1.55-2.258-1.357,2.086a1.7,1.7,0,0,0-.543.966c-.043.137-.084.285-.123.444-.027.106-.053.217-.076.328-.014.057-.025.113-.037.172l-.035.178v.027c-.023.121-.047.246-.068.373s-.047.274-.068.412q-.023.135-.041.27c-.027.174-.051.35-.074.524-.014.1-.027.2-.039.3l-.047.391c.1.321.211.637.326.948a1.575,1.575,0,0,1,.127.538,13.357,13.357,0,0,0,7.34,0,.075.075,0,0,1,0-.02,2.326,2.326,0,0,1-.047-.534h0a14.655,14.655,0,0,1,.2-1.5,5.472,5.472,0,0,0,.037-.735v-.088C331.546,457.714,331.544,457.644,331.542,457.573Zm0,0a1.348,1.348,0,0,0-.014-.235c-.014-.078-.012-.147-.021-.221s-.018-.149-.027-.223-.023-.149-.037-.223-.027-.149-.043-.223a.335.335,0,0,0-.016-.074c-.021-.1-.045-.2-.07-.3s-.041-.158-.065-.237a.334.334,0,0,0-.031-.1c-.012-.033-.033-.113-.051-.17l-.035-.109c-.016-.049-.031-.1-.049-.147-.029-.088-.061-.174-.092-.262s-.064-.174-.1-.26c-.066-.176-.139-.35-.211-.524-.283-.676-.6-1.343-.9-2a11.079,11.079,0,0,1-.418-1.061l-.037.053a2.259,2.259,0,0,0-.158.281,6.982,6.982,0,0,1-1.54,3.421l-1.55-2.258-1.357,2.086a1.7,1.7,0,0,0-.543.966c-.043.137-.084.285-.123.444-.027.106-.053.217-.076.328-.014.057-.025.113-.037.172l-.035.178v.027c-.023.121-.047.246-.068.373s-.047.274-.068.412q-.023.135-.041.27c-.027.174-.051.35-.074.524-.014.1-.027.2-.039.3l-.047.391c.1.321.211.637.326.948a1.575,1.575,0,0,1,.127.538,13.357,13.357,0,0,0,7.34,0,.075.075,0,0,1,0-.02,2.326,2.326,0,0,1-.047-.534h0a14.655,14.655,0,0,1,.2-1.5,5.472,5.472,0,0,0,.037-.735v-.088C331.546,457.714,331.544,457.644,331.542,457.573Zm0,0a1.348,1.348,0,0,0-.014-.235c-.014-.078-.012-.147-.021-.221s-.018-.149-.027-.223-.023-.149-.037-.223-.027-.149-.043-.223a.335.335,0,0,0-.016-.074c-.021-.1-.045-.2-.07-.3s-.041-.158-.065-.237a.334.334,0,0,0-.031-.1c-.012-.033-.033-.113-.051-.17l-.035-.109c-.016-.049-.031-.1-.049-.147-.029-.088-.061-.174-.092-.262s-.064-.174-.1-.26c-.066-.176-.139-.35-.211-.524-.283-.676-.6-1.343-.9-2a11.079,11.079,0,0,1-.418-1.061l-.037.053a2.259,2.259,0,0,0-.158.281,6.982,6.982,0,0,1-1.54,3.421l-1.55-2.258-1.357,2.086a1.7,1.7,0,0,0-.543.966c-.043.137-.084.285-.123.444-.027.106-.053.217-.076.328-.014.057-.025.113-.037.172l-.035.178v.027c-.023.121-.047.246-.068.373s-.047.274-.068.412q-.023.135-.041.27c-.027.174-.051.35-.074.524-.014.1-.027.2-.039.3l-.047.391c.1.321.211.637.326.948a1.575,1.575,0,0,1,.127.538,13.357,13.357,0,0,0,7.34,0,.075.075,0,0,1,0-.02,2.326,2.326,0,0,1-.047-.534h0a14.655,14.655,0,0,1,.2-1.5,5.472,5.472,0,0,0,.037-.735v-.088C331.546,457.714,331.544,457.644,331.542,457.573Zm0,0a1.348,1.348,0,0,0-.014-.235c-.014-.078-.012-.147-.021-.221s-.018-.149-.027-.223-.023-.149-.037-.223-.027-.149-.043-.223a.335.335,0,0,0-.016-.074c-.021-.1-.045-.2-.07-.3s-.041-.158-.065-.237a.334.334,0,0,0-.031-.1c-.012-.033-.033-.113-.051-.17l-.035-.109c-.016-.049-.031-.1-.049-.147-.029-.088-.061-.174-.092-.262s-.064-.174-.1-.26c-.066-.176-.139-.35-.211-.524-.283-.676-.6-1.343-.9-2a11.079,11.079,0,0,1-.418-1.061l-.037.053a2.259,2.259,0,0,0-.158.281,6.982,6.982,0,0,1-1.54,3.421l-1.55-2.258-1.357,2.086a1.7,1.7,0,0,0-.543.966c-.043.137-.084.285-.123.444-.027.106-.053.217-.076.328-.014.057-.025.113-.037.172l-.035.178v.027c-.023.121-.047.246-.068.373s-.047.274-.068.412q-.023.135-.041.27c-.027.174-.051.35-.074.524-.014.1-.027.2-.039.3l-.047.391c.1.321.211.637.326.948a1.575,1.575,0,0,1,.127.538,13.357,13.357,0,0,0,7.34,0,.075.075,0,0,1,0-.02,2.326,2.326,0,0,1-.047-.534h0a14.655,14.655,0,0,1,.2-1.5,5.472,5.472,0,0,0,.037-.735v-.088C331.546,457.714,331.544,457.644,331.542,457.573Zm0,0a1.348,1.348,0,0,0-.014-.235c-.014-.078-.012-.147-.021-.221s-.018-.149-.027-.223-.023-.149-.037-.223-.027-.149-.043-.223a.335.335,0,0,0-.016-.074c-.021-.1-.045-.2-.07-.3s-.041-.158-.065-.237a.334.334,0,0,0-.031-.1c-.012-.033-.033-.113-.051-.17l-.035-.109c-.016-.049-.031-.1-.049-.147-.029-.088-.061-.174-.092-.262s-.064-.174-.1-.26c-.066-.176-.139-.35-.211-.524-.283-.676-.6-1.343-.9-2a11.079,11.079,0,0,1-.418-1.061l-.037.053a2.259,2.259,0,0,0-.158.281,6.982,6.982,0,0,1-1.54,3.421l-1.55-2.258-1.357,2.086a1.7,1.7,0,0,0-.543.966c-.043.137-.084.285-.123.444-.027.106-.053.217-.076.328-.014.057-.025.113-.037.172l-.035.178v.027c-.023.121-.047.246-.068.373s-.047.274-.068.412q-.023.135-.041.27c-.027.174-.051.35-.074.524-.014.1-.027.2-.039.3l-.047.391c.1.321.211.637.326.948a1.575,1.575,0,0,1,.127.538,13.357,13.357,0,0,0,7.34,0,.075.075,0,0,1,0-.02,2.326,2.326,0,0,1-.047-.534h0a14.655,14.655,0,0,1,.2-1.5,5.472,5.472,0,0,0,.037-.735v-.088C331.546,457.714,331.544,457.644,331.542,457.573Zm0,0a1.348,1.348,0,0,0-.014-.235c-.014-.078-.012-.147-.021-.221s-.018-.149-.027-.223-.023-.149-.037-.223-.027-.149-.043-.223a.335.335,0,0,0-.016-.074c-.021-.1-.045-.2-.07-.3s-.041-.158-.065-.237a.334.334,0,0,0-.031-.1c-.012-.033-.033-.113-.051-.17l-.035-.109c-.016-.049-.031-.1-.049-.147-.029-.088-.061-.174-.092-.262s-.064-.174-.1-.26c-.066-.176-.139-.35-.211-.524-.283-.676-.6-1.343-.9-2a11.079,11.079,0,0,1-.418-1.061l-.037.053a2.259,2.259,0,0,0-.158.281,6.982,6.982,0,0,1-1.54,3.421l-1.55-2.258-1.357,2.086a1.7,1.7,0,0,0-.543.966c-.043.137-.084.285-.123.444-.027.106-.053.217-.076.328-.014.057-.025.113-.037.172l-.035.178v.027c-.023.121-.047.246-.068.373s-.047.274-.068.412q-.023.135-.041.27c-.027.174-.051.35-.074.524-.014.1-.027.2-.039.3l-.047.391c.1.321.211.637.326.948a1.575,1.575,0,0,1,.127.538,13.357,13.357,0,0,0,7.34,0,.075.075,0,0,1,0-.02,2.326,2.326,0,0,1-.047-.534h0a14.655,14.655,0,0,1,.2-1.5,5.472,5.472,0,0,0,.037-.735v-.088C331.546,457.714,331.544,457.644,331.542,457.573Zm0,0a1.348,1.348,0,0,0-.014-.235c-.014-.078-.012-.147-.021-.221s-.018-.149-.027-.223-.023-.149-.037-.223-.027-.149-.043-.223a.335.335,0,0,0-.016-.074c-.021-.1-.045-.2-.07-.3s-.041-.158-.065-.237a.334.334,0,0,0-.031-.1c-.012-.033-.033-.113-.051-.17l-.035-.109c-.016-.049-.031-.1-.049-.147-.029-.088-.061-.174-.092-.262s-.064-.174-.1-.26c-.066-.176-.139-.35-.211-.524-.283-.676-.6-1.343-.9-2a11.079,11.079,0,0,1-.418-1.061l-.037.053a2.259,2.259,0,0,0-.158.281,6.982,6.982,0,0,1-1.54,3.421l-1.55-2.258-1.357,2.086a1.7,1.7,0,0,0-.543.966c-.043.137-.084.285-.123.444-.027.106-.053.217-.076.328-.014.057-.025.113-.037.172l-.035.178v.027c-.023.121-.047.246-.068.373s-.047.274-.068.412q-.023.135-.041.27c-.027.174-.051.35-.074.524-.014.1-.027.2-.039.3l-.047.391c.1.321.211.637.326.948a1.575,1.575,0,0,1,.127.538,13.357,13.357,0,0,0,7.34,0,.075.075,0,0,1,0-.02,2.326,2.326,0,0,1-.047-.534h0a14.655,14.655,0,0,1,.2-1.5,5.472,5.472,0,0,0,.037-.735v-.088C331.546,457.714,331.544,457.644,331.542,457.573Z" transform="translate(-314.411 -434.59)"/><path class="j" d="M310.245,452.775l-.131-.018a4.762,4.762,0,0,1-.586-.117l-.072-.02c-.477-.135-1-.377-1.116-.8a.761.761,0,0,1,.012-.416,3.571,3.571,0,0,1,.266-.672v-.012a.934.934,0,0,1,.049-.088,1.955,1.955,0,0,1,.706-.768l-.235.037-1.986.323-3.079.5s-.547-.109-1.292,1.943a.318.318,0,0,1-.025.076c-.18.5-.369,1.13-.565,1.914-.135.543-.258,1.077-.371,1.6-.033.156-.066.311-.1.463a12.424,12.424,0,0,0,1.136,1.173l.065.061a13.344,13.344,0,0,0,2.6,1.843l.037.02a12.891,12.891,0,0,0,1.837.813l.166.059c.035-.362.074-.762.121-1.173a.334.334,0,0,1,.016-.123l.047-.391c.012-.1.025-.2.039-.3.023-.174.047-.35.074-.524q.018-.135.041-.27c.022-.139.045-.278.068-.412s.045-.252.068-.373v-.027l.035-.178c.012-.059.023-.115.037-.172.023-.111.049-.223.076-.328.039-.158.08-.307.123-.444a1.671,1.671,0,0,1,.543-.966l1.357-2.086.057-.088.025-.039Z" transform="translate(-298.545 -434.796)"/><path d="M309.566,452.795l-1.441,2.213a1.653,1.653,0,0,0-.534.936c-.045.145-.09.3-.133.469a23.376,23.376,0,0,0-.442,2.559.3.3,0,0,1-.016.117c-.066.543-.121,1.077-.166,1.548a12.891,12.891,0,0,1-1.837-.813l-.037-.02a13.344,13.344,0,0,1-2.6-1.843l-.065-.061a12.417,12.417,0,0,1-1.136-1.173c-.047-.053-.092-.108-.137-.162.021-.1.043-.2.066-.3.111-.518.235-1.05.369-1.591a19.253,19.253,0,0,1,.665-2.189.6.6,0,0,1,.025-.063c.692-1.781,1.19-1.681,1.19-1.681l3.251-.524,2.053-.332-.065.037a2.081,2.081,0,0,0-.565.6l-.057.1c-.023.037-.045.078-.068.119a3.464,3.464,0,0,0-.27.684.719.719,0,0,0,.047.559,1.862,1.862,0,0,0,1.206.7l.076.02A4.911,4.911,0,0,0,309.566,452.795Z" transform="translate(-297.982 -434.812)"/><path class="j" d="M377.574,454.694l-.08-1.736c.342-2.737-.342-2.907-.342-2.907l-.813-.391h-.022l-3.27-1.585-.127-.063-.039-.018h0l-.426-.207h0l-.27-.131-.5-.244-.17-.082v.678c0,.2.018.424.033.69.035.669.1,1.564.215,2.619.065.612.147,1.28.248,2,.061.424.1.846.131,1.259a22.155,22.155,0,0,1-.129,4.164l.178-.057a13.1,13.1,0,0,0,1.415-.567h0a12.991,12.991,0,0,0,2.522-1.548l.035-.025a13.041,13.041,0,0,0,1.419-1.288Z" transform="translate(-354.693 -432.761)"/><path d="M378.438,454.653l-.08-1.74c.342-2.737-.342-2.907-.342-2.907l-.977-.473h-.02l-3.28-1.591-.151-.072-.029-.014-.24-.117-.319-.154-.629-.3v.278h0v.344c0,.2.018.452.035.743.033.624.092,1.441.2,2.412.07.667.158,1.407.274,2.2q.09.639.129,1.265a22.124,22.124,0,0,1-.121,4.105,13.1,13.1,0,0,0,1.415-.567h0a12.991,12.991,0,0,0,2.522-1.548l.035-.025a13.044,13.044,0,0,0,1.419-1.288q.086-.086.164-.176Z" transform="translate(-355.385 -432.72)"/><path class="j" d="M319.207,391.123a2.844,2.844,0,0,0-.268.977c-.209.764-1.038,1.243-1.228,2.013-.111.45.018.927-.059,1.384-.139.842-.909,1.413-1.339,2.15a2.9,2.9,0,0,0-.178,2.522,4.041,4.041,0,0,1,.248.637,2.328,2.328,0,0,1-.061.977,3.1,3.1,0,0,0,.039,2.09,2,2,0,0,0,1.464.938,5.69,5.69,0,0,0,1.793-.082,5.186,5.186,0,0,0,1.873-.547l-2.117-5.11a4.265,4.265,0,0,1-.43-1.609,3.535,3.535,0,0,1,.264-1.2,10.4,10.4,0,0,1,1.759-3.04c.307.356.283.9.54,1.292a2.039,2.039,0,0,0,.872.651,28.883,28.883,0,0,0,3.087,1.29.4.4,0,0,1,.3.6l-.8,3.292a2.554,2.554,0,0,0,.121,2.15c.452.586,1.47.864,1.476,1.621a2.586,2.586,0,0,0,0,.36c.053.354.473.524.831.541A2.477,2.477,0,0,0,329.883,403c.2-1.294-.661-2.486-1.018-3.747-.6-2.121.2-4.609-.987-6.472-.958-1.511-2.7-1.922-4.361-2.109C322.353,390.53,320.027,390.042,319.207,391.123Z" transform="translate(-309.977 -386.99)"/><path d="M319.207,390.123a2.844,2.844,0,0,0-.268.977c-.209.764-1.038,1.243-1.228,2.013-.111.45.018.927-.059,1.384-.139.842-.909,1.413-1.339,2.15a2.9,2.9,0,0,0-.178,2.522,4.044,4.044,0,0,1,.248.637,2.328,2.328,0,0,1-.061.977,3.1,3.1,0,0,0,.039,2.09,2,2,0,0,0,1.464.938,5.69,5.69,0,0,0,1.793-.082,5.186,5.186,0,0,0,1.873-.547l-2.117-5.11a4.265,4.265,0,0,1-.43-1.609,3.536,3.536,0,0,1,.264-1.2,10.4,10.4,0,0,1,1.759-3.04c.307.356.283.9.54,1.292a2.039,2.039,0,0,0,.872.651,28.883,28.883,0,0,0,3.087,1.29.4.4,0,0,1,.3.6l-.8,3.292a2.554,2.554,0,0,0,.121,2.15c.452.586,1.47.864,1.476,1.621a2.586,2.586,0,0,0,0,.36c.053.354.473.524.831.541A2.477,2.477,0,0,0,329.883,402c.2-1.294-.661-2.486-1.018-3.747-.6-2.121.2-4.609-.987-6.472-.958-1.511-2.7-1.922-4.361-2.109C322.353,389.531,320.027,389.042,319.207,390.123Z" transform="translate(-309.977 -386.185)"/></g><g class="f" transform="translate(47.36 115.315)"><path class="g" d="M312.065,627.091a13.23,13.23,0,0,1-3.2,8.65c-.1.119-.207.237-.315.352q-.08.09-.164.176a13.038,13.038,0,0,1-1.419,1.288l-.035.025a12.988,12.988,0,0,1-2.522,1.548h0a13.092,13.092,0,0,1-1.415.567l-.178.057c-.109.037-.223.07-.334.1l-.045.014a13.357,13.357,0,0,1-7.34,0h-.02c-.2-.057-.391-.115-.571-.18l-.166-.059a12.888,12.888,0,0,1-1.837-.813l-.037-.02a13.341,13.341,0,0,1-2.6-1.843l-.065-.061a12.414,12.414,0,0,1-1.136-1.173c-.047-.053-.092-.107-.137-.162-.086-.1-.168-.207-.25-.313a13.292,13.292,0,1,1,23.79-8.155Z" transform="translate(-285.48 -613.798)"/><path class="k" d="M321.019,646.141l-.08-1.759c.342-2.782-.342-2.956-.342-2.956l-.977-.481-.02-.01-3.28-1.617-.151-.074-.02-.08s.065-.2-.26-.229a1.191,1.191,0,0,1-.082-.5,2.137,2.137,0,0,1,.538-.977,4.015,4.015,0,0,0,.643-2.848,6.7,6.7,0,0,0-1.091-2.752l-.063-.092a3.313,3.313,0,0,0,.115-.864c0-2.25-2.275-4.074-5.082-4.074-2.541,0-4.658,1.5-5.026,3.464a1.778,1.778,0,0,0-.154.242c-.516.966.281,1.687.307,2.651a3.428,3.428,0,0,1-.782,1.8,1.8,1.8,0,0,0-.252,1.867c.119.184.3.323.407.514.377.667-.25,1.431-.479,2.162a2.066,2.066,0,0,0-.063.26l-1.509.246s-.5-.1-1.19,1.708a.61.61,0,0,0-.025.065,19.812,19.812,0,0,0-.665,2.226q-.2.827-.369,1.617c-.023.1-.045.207-.066.311.045.055.09.111.137.164a12.53,12.53,0,0,0,1.136,1.2l.065.063a13.346,13.346,0,0,0,2.6,1.875l.037.02a12.786,12.786,0,0,0,1.837.827l.166.059c.2.066.379.125.571.184a.712.712,0,0,1,.016.09v-.086a13.149,13.149,0,0,0,7.34,0l.045-.014c.111-.031.225-.066.334-.1l.178-.057a13.182,13.182,0,0,0,3.937-2.15l.035-.025a13.118,13.118,0,0,0,1.419-1.31q.086-.086.164-.178Z" transform="translate(-297.966 -624.283)"/><path d="M321.574,647.052a3.289,3.289,0,0,1-.782,1.759,1.741,1.741,0,0,0-.252,1.836c.119.18.3.319.407.506.377.655-.25,1.407-.479,2.127a2.67,2.67,0,0,0,.6,2.434,6.476,6.476,0,0,0,2.1,1.531,18.7,18.7,0,0,0,5.184,1.845,4.963,4.963,0,0,0,2.842-.127,3.022,3.022,0,0,0,1.707-3.323,18.9,18.9,0,0,0-1.368-2.827,1.324,1.324,0,0,1-.129-.612,2.066,2.066,0,0,1,.538-.958,3.909,3.909,0,0,0,.633-2.782,6.529,6.529,0,0,0-1.091-2.709,2.968,2.968,0,0,0-.782-.86,3.43,3.43,0,0,0-1.462-.442c-2.123-.3-4.322-.622-6.462-.731a1.386,1.386,0,0,0-1.507.731C320.753,645.394,321.549,646.1,321.574,647.052Z" transform="translate(-313.546 -637.866)"/><path class="i" d="M341.677,673.335l-4.029,5.729-3.933-.342s-.129,1.368-1.71-3.591c-.884-2.774.913-1.81,1.267-2.578s.977-1.447,1.03-2.013a3.554,3.554,0,0,0-.244-1.908l4.275-.512a3.19,3.19,0,0,0-.07,1.785C338.8,672.129,341.677,673.335,341.677,673.335Z" transform="translate(-322.716 -657.501)"/><ellipse cx="5.082" cy="4.007" rx="5.082" ry="4.007" transform="translate(7.819 2.934)"/><path class="j" d="M347.695,669.9a4.273,4.273,0,0,1-3.96.637,3.554,3.554,0,0,0-.244-1.908l4.275-.512A3.19,3.19,0,0,0,347.695,669.9Z" transform="translate(-332.15 -657.501)"/><circle class="i" cx="4.275" cy="4.275" r="4.275" transform="translate(8.691 4.547)"/><path class="j" d="M332.773,691.36l-.1-.391-.086-.344-.127-.508-.023-.094-.02-.078s.1-.307-.569-.207l-.125.021c-.106.021-.229.051-.369.09l-.127.039-.168.053h0a3.665,3.665,0,0,0-1.419.856,3.2,3.2,0,0,0-.475.575c-.014.02-.023.037-.035.053a1.845,1.845,0,0,0-.123.227,6.972,6.972,0,0,1-1.54,3.421l-1.5-2.172-.029-.043-.358-.52-.127-.168-.043-.059-.782-1.05-.2-.262-.065-.088-.1-.127-.225-.3-.88.514-1.173.684-.684,4.447v.123l.022.367.143,2.416v.033l-.25,1,.037.02a12.9,12.9,0,0,0,1.837.813l.166.059c.2.065.379.123.571.18a.691.691,0,0,1,.016.088v-.084a13.357,13.357,0,0,0,7.34,0l.045-.014c.111-.031.225-.065.334-.1l.178-.057a13.092,13.092,0,0,0,1.415-.567l.164-3.5.117-2.524v-.145Z" transform="translate(-314.234 -674.877)"/><path class="l" d="M331.542,698.573a1.348,1.348,0,0,0-.014-.235c-.014-.078-.012-.147-.021-.221s-.018-.149-.027-.223-.023-.149-.037-.223-.027-.149-.043-.223a.335.335,0,0,0-.016-.074c-.021-.1-.045-.2-.07-.3s-.041-.158-.065-.237a.333.333,0,0,0-.031-.1c-.012-.033-.033-.113-.051-.17l-.035-.109c-.016-.049-.031-.1-.049-.147-.029-.088-.061-.174-.092-.262s-.064-.174-.1-.26c-.066-.176-.139-.35-.211-.524-.283-.676-.6-1.343-.9-2a11.072,11.072,0,0,1-.418-1.061l-.037.053a2.263,2.263,0,0,0-.158.281,6.982,6.982,0,0,1-1.54,3.421l-1.55-2.258-1.357,2.086a1.7,1.7,0,0,0-.543.966c-.043.137-.084.285-.123.444-.027.106-.053.217-.076.328-.014.057-.025.113-.037.172l-.035.178v.027c-.023.121-.047.246-.068.373s-.047.274-.068.412q-.023.135-.041.27c-.027.174-.051.35-.074.524-.014.1-.027.2-.039.3l-.047.391c.1.321.211.637.326.948a1.575,1.575,0,0,1,.127.538,13.358,13.358,0,0,0,7.34,0,.075.075,0,0,1,0-.02,2.328,2.328,0,0,1-.047-.534h0a14.649,14.649,0,0,1,.2-1.5,5.477,5.477,0,0,0,.037-.735v-.088C331.546,698.714,331.544,698.644,331.542,698.573Zm0,0a1.348,1.348,0,0,0-.014-.235c-.014-.078-.012-.147-.021-.221s-.018-.149-.027-.223-.023-.149-.037-.223-.027-.149-.043-.223a.335.335,0,0,0-.016-.074c-.021-.1-.045-.2-.07-.3s-.041-.158-.065-.237a.333.333,0,0,0-.031-.1c-.012-.033-.033-.113-.051-.17l-.035-.109c-.016-.049-.031-.1-.049-.147-.029-.088-.061-.174-.092-.262s-.064-.174-.1-.26c-.066-.176-.139-.35-.211-.524-.283-.676-.6-1.343-.9-2a11.072,11.072,0,0,1-.418-1.061l-.037.053a2.263,2.263,0,0,0-.158.281,6.982,6.982,0,0,1-1.54,3.421l-1.55-2.258-1.357,2.086a1.7,1.7,0,0,0-.543.966c-.043.137-.084.285-.123.444-.027.106-.053.217-.076.328-.014.057-.025.113-.037.172l-.035.178v.027c-.023.121-.047.246-.068.373s-.047.274-.068.412q-.023.135-.041.27c-.027.174-.051.35-.074.524-.014.1-.027.2-.039.3l-.047.391c.1.321.211.637.326.948a1.575,1.575,0,0,1,.127.538,13.358,13.358,0,0,0,7.34,0,.075.075,0,0,1,0-.02,2.328,2.328,0,0,1-.047-.534h0a14.649,14.649,0,0,1,.2-1.5,5.477,5.477,0,0,0,.037-.735v-.088C331.546,698.714,331.544,698.644,331.542,698.573Zm0,0a1.348,1.348,0,0,0-.014-.235c-.014-.078-.012-.147-.021-.221s-.018-.149-.027-.223-.023-.149-.037-.223-.027-.149-.043-.223a.335.335,0,0,0-.016-.074c-.021-.1-.045-.2-.07-.3s-.041-.158-.065-.237a.333.333,0,0,0-.031-.1c-.012-.033-.033-.113-.051-.17l-.035-.109c-.016-.049-.031-.1-.049-.147-.029-.088-.061-.174-.092-.262s-.064-.174-.1-.26c-.066-.176-.139-.35-.211-.524-.283-.676-.6-1.343-.9-2a11.072,11.072,0,0,1-.418-1.061l-.037.053a2.263,2.263,0,0,0-.158.281,6.982,6.982,0,0,1-1.54,3.421l-1.55-2.258-1.357,2.086a1.7,1.7,0,0,0-.543.966c-.043.137-.084.285-.123.444-.027.106-.053.217-.076.328-.014.057-.025.113-.037.172l-.035.178v.027c-.023.121-.047.246-.068.373s-.047.274-.068.412q-.023.135-.041.27c-.027.174-.051.35-.074.524-.014.1-.027.2-.039.3l-.047.391c.1.321.211.637.326.948a1.575,1.575,0,0,1,.127.538,13.358,13.358,0,0,0,7.34,0,.075.075,0,0,1,0-.02,2.328,2.328,0,0,1-.047-.534h0a14.649,14.649,0,0,1,.2-1.5,5.477,5.477,0,0,0,.037-.735v-.088C331.546,698.714,331.544,698.644,331.542,698.573Zm2.072-3.669-.7-2.786-.119-.477-.033-.131h0l-.17-.68a.13.13,0,0,0,0-.018h0a.156.156,0,0,0-.014-.088c-.025-.051-.09-.1-.24-.117a1.208,1.208,0,0,0-.172,0h0a2.97,2.97,0,0,0-.5.094c-.08.021-.166.045-.258.074l-.168.053h-.016a3.729,3.729,0,0,0-1.232.684,3.323,3.323,0,0,0-.626.692l-.037.053a2.254,2.254,0,0,0-.158.281,6.982,6.982,0,0,1-1.54,3.421l-1.55-2.258-.088-.127-.016-.021-.225-.33-.17-.227-.045-.059-.8-1.069h0l-.254-.346v-.012l-.088-.119-.168-.223-.586.342-1.466.854-.676,4.4v.047l.02.321.145,2.449v.139l-.221.882a12.9,12.9,0,0,0,1.837.813l.166.059c.2.064.379.123.571.18a.687.687,0,0,1,.016.088v-.084a13.357,13.357,0,0,0,7.34,0l.045-.014c.111-.031.225-.065.334-.1l.178-.057a13.117,13.117,0,0,0,1.415-.567h0l.162-3.5.117-2.5ZM324,701.654a.693.693,0,0,1,.016.088v-.084Zm7.542-3.081a1.348,1.348,0,0,0-.014-.235c-.014-.078-.012-.147-.021-.221s-.018-.149-.027-.223-.023-.149-.037-.223-.027-.149-.043-.223a.335.335,0,0,0-.016-.074c-.021-.1-.045-.2-.07-.3s-.041-.158-.065-.237a.333.333,0,0,0-.031-.1c-.012-.033-.033-.113-.051-.17l-.035-.109c-.016-.049-.031-.1-.049-.147-.029-.088-.061-.174-.092-.262s-.064-.174-.1-.26c-.066-.176-.139-.35-.211-.524-.283-.676-.6-1.343-.9-2a11.072,11.072,0,0,1-.418-1.061l-.037.053a2.263,2.263,0,0,0-.158.281,6.982,6.982,0,0,1-1.54,3.421l-1.55-2.258-1.357,2.086a1.7,1.7,0,0,0-.543.966c-.043.137-.084.285-.123.444-.027.106-.053.217-.076.328-.014.057-.025.113-.037.172l-.035.178v.027c-.023.121-.047.246-.068.373s-.047.274-.068.412q-.023.135-.041.27c-.027.174-.051.35-.074.524-.014.1-.027.2-.039.3l-.047.391c.1.321.211.637.326.948a1.575,1.575,0,0,1,.127.538,13.358,13.358,0,0,0,7.34,0,.075.075,0,0,1,0-.02,2.328,2.328,0,0,1-.047-.534h0a14.649,14.649,0,0,1,.2-1.5,5.477,5.477,0,0,0,.037-.735v-.088C331.546,698.714,331.544,698.644,331.542,698.573Zm0,0a1.348,1.348,0,0,0-.014-.235c-.014-.078-.012-.147-.021-.221s-.018-.149-.027-.223-.023-.149-.037-.223-.027-.149-.043-.223a.335.335,0,0,0-.016-.074c-.021-.1-.045-.2-.07-.3s-.041-.158-.065-.237a.333.333,0,0,0-.031-.1c-.012-.033-.033-.113-.051-.17l-.035-.109c-.016-.049-.031-.1-.049-.147-.029-.088-.061-.174-.092-.262s-.064-.174-.1-.26c-.066-.176-.139-.35-.211-.524-.283-.676-.6-1.343-.9-2a11.072,11.072,0,0,1-.418-1.061l-.037.053a2.263,2.263,0,0,0-.158.281,6.982,6.982,0,0,1-1.54,3.421l-1.55-2.258-1.357,2.086a1.7,1.7,0,0,0-.543.966c-.043.137-.084.285-.123.444-.027.106-.053.217-.076.328-.014.057-.025.113-.037.172l-.035.178v.027c-.023.121-.047.246-.068.373s-.047.274-.068.412q-.023.135-.041.27c-.027.174-.051.35-.074.524-.014.1-.027.2-.039.3l-.047.391c.1.321.211.637.326.948a1.575,1.575,0,0,1,.127.538,13.358,13.358,0,0,0,7.34,0,.075.075,0,0,1,0-.02,2.328,2.328,0,0,1-.047-.534h0a14.649,14.649,0,0,1,.2-1.5,5.477,5.477,0,0,0,.037-.735v-.088C331.546,698.714,331.544,698.644,331.542,698.573Zm0,0a1.348,1.348,0,0,0-.014-.235c-.014-.078-.012-.147-.021-.221s-.018-.149-.027-.223-.023-.149-.037-.223-.027-.149-.043-.223a.335.335,0,0,0-.016-.074c-.021-.1-.045-.2-.07-.3s-.041-.158-.065-.237a.333.333,0,0,0-.031-.1c-.012-.033-.033-.113-.051-.17l-.035-.109c-.016-.049-.031-.1-.049-.147-.029-.088-.061-.174-.092-.262s-.064-.174-.1-.26c-.066-.176-.139-.35-.211-.524-.283-.676-.6-1.343-.9-2a11.072,11.072,0,0,1-.418-1.061l-.037.053a2.263,2.263,0,0,0-.158.281,6.982,6.982,0,0,1-1.54,3.421l-1.55-2.258-1.357,2.086a1.7,1.7,0,0,0-.543.966c-.043.137-.084.285-.123.444-.027.106-.053.217-.076.328-.014.057-.025.113-.037.172l-.035.178v.027c-.023.121-.047.246-.068.373s-.047.274-.068.412q-.023.135-.041.27c-.027.174-.051.35-.074.524-.014.1-.027.2-.039.3l-.047.391c.1.321.211.637.326.948a1.575,1.575,0,0,1,.127.538,13.358,13.358,0,0,0,7.34,0,.075.075,0,0,1,0-.02,2.328,2.328,0,0,1-.047-.534h0a14.649,14.649,0,0,1,.2-1.5,5.477,5.477,0,0,0,.037-.735v-.088C331.546,698.714,331.544,698.644,331.542,698.573Zm0,0a1.348,1.348,0,0,0-.014-.235c-.014-.078-.012-.147-.021-.221s-.018-.149-.027-.223-.023-.149-.037-.223-.027-.149-.043-.223a.335.335,0,0,0-.016-.074c-.021-.1-.045-.2-.07-.3s-.041-.158-.065-.237a.333.333,0,0,0-.031-.1c-.012-.033-.033-.113-.051-.17l-.035-.109c-.016-.049-.031-.1-.049-.147-.029-.088-.061-.174-.092-.262s-.064-.174-.1-.26c-.066-.176-.139-.35-.211-.524-.283-.676-.6-1.343-.9-2a11.072,11.072,0,0,1-.418-1.061l-.037.053a2.263,2.263,0,0,0-.158.281,6.982,6.982,0,0,1-1.54,3.421l-1.55-2.258-1.357,2.086a1.7,1.7,0,0,0-.543.966c-.043.137-.084.285-.123.444-.027.106-.053.217-.076.328-.014.057-.025.113-.037.172l-.035.178v.027c-.023.121-.047.246-.068.373s-.047.274-.068.412q-.023.135-.041.27c-.027.174-.051.35-.074.524-.014.1-.027.2-.039.3l-.047.391c.1.321.211.637.326.948a1.575,1.575,0,0,1,.127.538,13.358,13.358,0,0,0,7.34,0,.075.075,0,0,1,0-.02,2.328,2.328,0,0,1-.047-.534h0a14.649,14.649,0,0,1,.2-1.5,5.477,5.477,0,0,0,.037-.735v-.088C331.546,698.714,331.544,698.644,331.542,698.573Zm0,0a1.348,1.348,0,0,0-.014-.235c-.014-.078-.012-.147-.021-.221s-.018-.149-.027-.223-.023-.149-.037-.223-.027-.149-.043-.223a.335.335,0,0,0-.016-.074c-.021-.1-.045-.2-.07-.3s-.041-.158-.065-.237a.333.333,0,0,0-.031-.1c-.012-.033-.033-.113-.051-.17l-.035-.109c-.016-.049-.031-.1-.049-.147-.029-.088-.061-.174-.092-.262s-.064-.174-.1-.26c-.066-.176-.139-.35-.211-.524-.283-.676-.6-1.343-.9-2a11.072,11.072,0,0,1-.418-1.061l-.037.053a2.263,2.263,0,0,0-.158.281,6.982,6.982,0,0,1-1.54,3.421l-1.55-2.258-1.357,2.086a1.7,1.7,0,0,0-.543.966c-.043.137-.084.285-.123.444-.027.106-.053.217-.076.328-.014.057-.025.113-.037.172l-.035.178v.027c-.023.121-.047.246-.068.373s-.047.274-.068.412q-.023.135-.041.27c-.027.174-.051.35-.074.524-.014.1-.027.2-.039.3l-.047.391c.1.321.211.637.326.948a1.575,1.575,0,0,1,.127.538,13.358,13.358,0,0,0,7.34,0,.075.075,0,0,1,0-.02,2.328,2.328,0,0,1-.047-.534h0a14.649,14.649,0,0,1,.2-1.5,5.477,5.477,0,0,0,.037-.735v-.088C331.546,698.714,331.544,698.644,331.542,698.573Zm0,0a1.348,1.348,0,0,0-.014-.235c-.014-.078-.012-.147-.021-.221s-.018-.149-.027-.223-.023-.149-.037-.223-.027-.149-.043-.223a.335.335,0,0,0-.016-.074c-.021-.1-.045-.2-.07-.3s-.041-.158-.065-.237a.333.333,0,0,0-.031-.1c-.012-.033-.033-.113-.051-.17l-.035-.109c-.016-.049-.031-.1-.049-.147-.029-.088-.061-.174-.092-.262s-.064-.174-.1-.26c-.066-.176-.139-.35-.211-.524-.283-.676-.6-1.343-.9-2a11.072,11.072,0,0,1-.418-1.061l-.037.053a2.263,2.263,0,0,0-.158.281,6.982,6.982,0,0,1-1.54,3.421l-1.55-2.258-1.357,2.086a1.7,1.7,0,0,0-.543.966c-.043.137-.084.285-.123.444-.027.106-.053.217-.076.328-.014.057-.025.113-.037.172l-.035.178v.027c-.023.121-.047.246-.068.373s-.047.274-.068.412q-.023.135-.041.27c-.027.174-.051.35-.074.524-.014.1-.027.2-.039.3l-.047.391c.1.321.211.637.326.948a1.575,1.575,0,0,1,.127.538,13.358,13.358,0,0,0,7.34,0,.075.075,0,0,1,0-.02,2.328,2.328,0,0,1-.047-.534h0a14.649,14.649,0,0,1,.2-1.5,5.477,5.477,0,0,0,.037-.735v-.088C331.546,698.714,331.544,698.644,331.542,698.573Zm0,0a1.348,1.348,0,0,0-.014-.235c-.014-.078-.012-.147-.021-.221s-.018-.149-.027-.223-.023-.149-.037-.223-.027-.149-.043-.223a.335.335,0,0,0-.016-.074c-.021-.1-.045-.2-.07-.3s-.041-.158-.065-.237a.333.333,0,0,0-.031-.1c-.012-.033-.033-.113-.051-.17l-.035-.109c-.016-.049-.031-.1-.049-.147-.029-.088-.061-.174-.092-.262s-.064-.174-.1-.26c-.066-.176-.139-.35-.211-.524-.283-.676-.6-1.343-.9-2a11.072,11.072,0,0,1-.418-1.061l-.037.053a2.263,2.263,0,0,0-.158.281,6.982,6.982,0,0,1-1.54,3.421l-1.55-2.258-1.357,2.086a1.7,1.7,0,0,0-.543.966c-.043.137-.084.285-.123.444-.027.106-.053.217-.076.328-.014.057-.025.113-.037.172l-.035.178v.027c-.023.121-.047.246-.068.373s-.047.274-.068.412q-.023.135-.041.27c-.027.174-.051.35-.074.524-.014.1-.027.2-.039.3l-.047.391c.1.321.211.637.326.948a1.575,1.575,0,0,1,.127.538,13.358,13.358,0,0,0,7.34,0,.075.075,0,0,1,0-.02,2.328,2.328,0,0,1-.047-.534h0a14.649,14.649,0,0,1,.2-1.5,5.477,5.477,0,0,0,.037-.735v-.088C331.546,698.714,331.544,698.644,331.542,698.573Zm0,0a1.348,1.348,0,0,0-.014-.235c-.014-.078-.012-.147-.021-.221s-.018-.149-.027-.223-.023-.149-.037-.223-.027-.149-.043-.223a.335.335,0,0,0-.016-.074c-.021-.1-.045-.2-.07-.3s-.041-.158-.065-.237a.333.333,0,0,0-.031-.1c-.012-.033-.033-.113-.051-.17l-.035-.109c-.016-.049-.031-.1-.049-.147-.029-.088-.061-.174-.092-.262s-.064-.174-.1-.26c-.066-.176-.139-.35-.211-.524-.283-.676-.6-1.343-.9-2a11.072,11.072,0,0,1-.418-1.061l-.037.053a2.263,2.263,0,0,0-.158.281,6.982,6.982,0,0,1-1.54,3.421l-1.55-2.258-1.357,2.086a1.7,1.7,0,0,0-.543.966c-.043.137-.084.285-.123.444-.027.106-.053.217-.076.328-.014.057-.025.113-.037.172l-.035.178v.027c-.023.121-.047.246-.068.373s-.047.274-.068.412q-.023.135-.041.27c-.027.174-.051.35-.074.524-.014.1-.027.2-.039.3l-.047.391c.1.321.211.637.326.948a1.575,1.575,0,0,1,.127.538,13.358,13.358,0,0,0,7.34,0,.075.075,0,0,1,0-.02,2.328,2.328,0,0,1-.047-.534h0a14.649,14.649,0,0,1,.2-1.5,5.477,5.477,0,0,0,.037-.735v-.088C331.546,698.714,331.544,698.644,331.542,698.573Z" transform="translate(-314.411 -675.591)"/><path class="j" d="M310.245,693.775l-.131-.018a4.768,4.768,0,0,1-.586-.117l-.072-.02c-.477-.135-1-.377-1.116-.8a.76.76,0,0,1,.012-.416,3.567,3.567,0,0,1,.266-.672v-.012a.93.93,0,0,1,.049-.088,1.954,1.954,0,0,1,.706-.768l-.235.037-1.986.323-3.079.5s-.547-.109-1.292,1.943a.318.318,0,0,1-.025.076c-.18.5-.369,1.13-.565,1.914-.135.543-.258,1.077-.371,1.6-.033.156-.066.311-.1.463a12.417,12.417,0,0,0,1.136,1.173l.065.061a13.346,13.346,0,0,0,2.6,1.843l.037.02a12.881,12.881,0,0,0,1.837.813l.166.059c.035-.362.074-.762.121-1.173a.334.334,0,0,1,.016-.123l.047-.391c.012-.1.025-.2.039-.3.023-.174.047-.35.074-.524q.018-.135.041-.27c.022-.139.045-.278.068-.412s.045-.252.068-.373v-.027l.035-.178c.012-.059.023-.115.037-.172.023-.111.049-.223.076-.328.039-.158.08-.307.123-.444a1.671,1.671,0,0,1,.543-.966l1.357-2.086.057-.088.025-.039Z" transform="translate(-298.545 -675.796)"/><path class="m" d="M309.566,693.795l-1.441,2.213a1.653,1.653,0,0,0-.534.936c-.045.145-.09.3-.133.469a23.377,23.377,0,0,0-.442,2.559.3.3,0,0,1-.016.117c-.066.543-.121,1.077-.166,1.548a12.9,12.9,0,0,1-1.837-.813l-.037-.02a13.341,13.341,0,0,1-2.6-1.843l-.065-.061a12.422,12.422,0,0,1-1.136-1.173c-.047-.053-.092-.107-.137-.162.021-.1.043-.2.066-.3.111-.518.235-1.05.369-1.591a19.254,19.254,0,0,1,.665-2.189.586.586,0,0,1,.025-.063c.692-1.781,1.19-1.681,1.19-1.681l3.251-.524,2.053-.332-.065.037a2.083,2.083,0,0,0-.565.6l-.057.1c-.023.037-.045.078-.068.119a3.462,3.462,0,0,0-.27.684.719.719,0,0,0,.047.559,1.862,1.862,0,0,0,1.206.7l.076.02A4.894,4.894,0,0,0,309.566,693.795Z" transform="translate(-297.982 -675.812)"/><path class="j" d="M377.574,695.694l-.08-1.736c.342-2.737-.342-2.907-.342-2.907l-.813-.391h-.022l-3.27-1.585-.127-.063-.039-.018h0l-.426-.207h0l-.27-.131-.5-.244-.17-.082v.678c0,.2.018.424.033.69.035.669.1,1.564.215,2.619.065.612.147,1.28.248,2,.061.424.1.846.131,1.259a22.155,22.155,0,0,1-.129,4.164l.178-.057a13.089,13.089,0,0,0,1.415-.567h0a12.989,12.989,0,0,0,2.522-1.548l.035-.025a13.038,13.038,0,0,0,1.419-1.288Z" transform="translate(-354.693 -673.761)"/><path class="m" d="M378.438,695.653l-.08-1.74c.342-2.737-.342-2.907-.342-2.907l-.977-.473h-.02l-3.28-1.591-.151-.072-.029-.014-.24-.117-.319-.154-.629-.3v.278h0v.344c0,.2.018.452.035.743.033.624.092,1.441.2,2.412.07.667.158,1.407.274,2.205q.09.639.129,1.265a22.125,22.125,0,0,1-.121,4.105,13.237,13.237,0,0,0,3.937-2.115l.035-.025a13.04,13.04,0,0,0,1.419-1.288q.086-.086.164-.176Z" transform="translate(-355.385 -673.72)"/><path class="j" d="M333.021,637.87a4.89,4.89,0,0,1,1.83-.2,5.99,5.99,0,0,1,1.4.678,3.619,3.619,0,0,0,1.443.381.848.848,0,0,0,.53-.1.821.821,0,0,0,.237-.805,4.624,4.624,0,0,0-1.173-2.2,4.3,4.3,0,0,0-.735-.745,3.883,3.883,0,0,0-2.5-.567,6.264,6.264,0,0,0-2.864.735c-.586.336-1.931,1.4-1.464,2.162C330.212,638.015,332.253,638,333.021,637.87Z" transform="translate(-320.996 -630.299)"/><path class="n" d="M333.021,636.87a4.891,4.891,0,0,1,1.83-.2,5.99,5.99,0,0,1,1.4.678,3.619,3.619,0,0,0,1.443.381.849.849,0,0,0,.53-.1.821.821,0,0,0,.237-.805,4.624,4.624,0,0,0-1.173-2.2,4.3,4.3,0,0,0-.735-.745,3.883,3.883,0,0,0-2.5-.567,6.264,6.264,0,0,0-2.864.735c-.586.336-1.931,1.4-1.464,2.162C330.212,637.015,332.253,637,333.021,636.87Z" transform="translate(-320.996 -629.495)"/></g><path class="o" d="M619.623,379.175h.029a5.266,5.266,0,0,0,.586,2.823c.852.782,4.387-.782,4.144-1.728-.049-.2-.131-.516-.235-.921a2.751,2.751,0,0,0,2.094-.95l.614,1.892.043.135h.047c.4,3.835,1.321,11.8,2.055,12.866.977,1.413,2.1,7.538,2.1,7.538l2.1,12.563s.809,7.233,1.294,8.015a.909.909,0,0,0,.532.276,7.7,7.7,0,0,1-1.173,2.393c-.977,1.1-2.264,3.3-3.4,3.141s-1.454,2.2.647,2.512a17.369,17.369,0,0,0,4.443-.26,1.59,1.59,0,0,0,1.538,1.517c2.1.315,6.466-.627,6.466-.627s3.714-1.564,3.88-2.67a34.958,34.958,0,0,0-.768-5.706c.586-.94-.039-9.055-.039-9.055L645.5,397.382s.647-8.636,0-10.208c-.4-.977-.555-5.473-.612-8.689l.782.051a1.437,1.437,0,0,0,.121-.17l.2.014a2.6,2.6,0,0,0,.162-2.827c-.6-1.284-.487-7.082-.391-9.969h0l.115-1.368a.39.39,0,0,0,.1-.149,14.338,14.338,0,0,0,4.365-1.321,4.43,4.43,0,0,0,1.145-.7c.809-.782.323-5.5-1.294-12.563s-3.071-6.439-3.071-6.439-3.88-.315-5.659-2.67-2.973-2.324-2.973-2.324h0c-.045-.309-.076-.6-.1-.872,0-.1-.016-.2-.022-.3a5.168,5.168,0,0,0,1.345-2.039,10.1,10.1,0,0,0,1.159-.506,1.378,1.378,0,0,0,.24-.223,1.976,1.976,0,0,0,.624-1.23,5.026,5.026,0,0,0-.072-1.542,3.737,3.737,0,0,0-2.467-3.386q-2.565-1.347-5.143-2.666a2.839,2.839,0,0,0-1.1-.391,2.933,2.933,0,0,0-1.861.88,7.93,7.93,0,0,0-.635.557,3.565,3.565,0,0,0-.467.5,4.818,4.818,0,0,0-.639,3.595.492.492,0,0,0,.522.44,5.04,5.04,0,0,0-.538,2.268,5.141,5.141,0,0,0,2.387,4.318c0,.109,0,.217.01.321a11.454,11.454,0,0,1-.039,1.2s-4.3,2.324-4.783,3.423a5.113,5.113,0,0,1-2.264,1.884s-3.4,1.728-3.4,7.852l-1.779,8.636-.323,16.489s.223-.2.586-.473c-.012.109-.021.223-.031.338a18.61,18.61,0,0,0-.049,1.894ZM641.34,421.85c-.066.252-.164.586-.287.977-.055-.324-.109-.645-.164-.95C641.03,421.863,641.18,421.856,641.34,421.85Z" transform="translate(-506.556 -266.057)"/><path class="p" d="M679.291,808.587a11.925,11.925,0,0,1-1.564,3.892c-.94,1.089-2.172,3.27-3.259,3.114s-1.4,2.18.624,2.49,6.218-.622,6.218-.622,3.581-1.564,3.736-2.647-.934-6.7-.934-6.7Z" transform="translate(-550.379 -654.819)"/><path class="q" d="M679.291,808.587a11.925,11.925,0,0,1-1.564,3.892c-.94,1.089-2.172,3.27-3.259,3.114s-1.4,2.18.624,2.49,6.218-.622,6.218-.622,3.581-1.564,3.736-2.647-.934-6.7-.934-6.7Z" transform="translate(-550.379 -654.819)"/><path class="r" d="M708.748,814.949a11.924,11.924,0,0,1-1.564,3.892c-.94,1.089-2.178,3.27-3.263,3.114s-1.4,2.18.624,2.49,6.228-.624,6.228-.624,3.581-1.564,3.736-2.647-.934-6.7-.934-6.7Z" transform="translate(-574.075 -659.936)"/><path class="s" d="M659.66,598.67s1.245,13.388,2.18,14.79,2.023,7.473,2.023,7.473l2.023,12.454s.782,7.162,1.245,7.94,6.242.444,6.242.444l-3.593-41.234Z" transform="translate(-539.156 -486.312)"/><path class="t" d="M659.66,598.67s1.245,13.388,2.18,14.79,2.023,7.473,2.023,7.473l2.023,12.454s.782,7.162,1.245,7.94,6.242.444,6.242.444l-3.593-41.234Z" transform="translate(-539.156 -486.312)"/><path class="u" d="M646.92,566l.407,1.292,2.2,6.981.043.133h.012c.3.066,6.527,1.5,7.872,1.939a1.907,1.907,0,0,1,.213.08c.624.311,1.4,11.52,1.4,11.52s.467,10.587.782,11.365,1.564,16.811,2.336,16.346,6.382,0,6.382,0c.624-.624,0-9.029,0-9.029l-1.106-15.409s.624-8.562,0-10.12-.624-11.987-.624-11.987l-12.743-1.992-1.232-.2Z" transform="translate(-528.906 -460.028)"/><path class="v" d="M649,570.81l2.2,6.981.053.137c.3.066,6.527,1.5,7.872,1.939h.135l-3.481-9.23-.1-.266-1.132.072Z" transform="translate(-530.579 -463.544)"/><path class="j" d="M665.068,406.73s-5.761,6.228-9.342,1.089l-3.425,2.336.624,3.581L650.9,440.823a31.587,31.587,0,0,1,9.029,1.089,5.794,5.794,0,0,0,6.072-1.4l-.616-23.817,1.4-7.317Z" transform="translate(-532.108 -331.892)"/><path class="p" d="M665.068,404.34s-5.761,6.228-9.342,1.089l-3.425,2.336.624,3.581L650.9,438.433a31.588,31.588,0,0,1,9.029,1.089,5.794,5.794,0,0,0,6.072-1.4l-.616-23.817,1.4-7.317Z" transform="translate(-532.108 -329.969)"/><g transform="translate(119.644 101.464)"><path class="w" d="M614.061,522.36v.981h-.313v-.653H612.6v.653h-.315v-.979l1.771,0" transform="translate(-612.245 -521.719)"/><path class="w" d="M656.8,543.265h-1.208a.446.446,0,0,1-.328-.325h1.863a.448.448,0,0,1-.328.325" transform="translate(-655.26 -542.94)"/><g transform="translate(10.423 0.012)"><path class="w" d="M710.617,543a.452.452,0,0,1-.326.323h-.508l-.025.01v1.282h-.313v-1.282l-.029-.01h-.508a.458.458,0,0,1-.326-.323h2.037" transform="translate(-708.58 -543)"/></g></g><path class="x" d="M631.937,569.2s0,4.048-.934,5.761-6.382.782-6.382.782l1.089-5.761Z" transform="translate(-510.965 -462.603)"/><path class="y" d="M625.293,587.025c.821.782,4.224-.782,3.99-1.712-.164-.659-.739-3.016-1.065-4.353l-.227-.94s-1.994-.624-2.7,0a4.438,4.438,0,0,0-.52,2.2C624.628,584.093,624.775,586.529,625.293,587.025Z" transform="translate(-511.046 -471.084)"/><path class="y" d="M666,375.177l5.448,4.2s8.095-.467,6.072-4.359a14.513,14.513,0,0,1-1.564-5.5,11.5,11.5,0,0,1,0-2.129s-7.473-6.842-6.539.934a17.649,17.649,0,0,1,.129,1.8C669.657,375.961,666,375.177,666,375.177Z" transform="translate(-544.256 -298.005)"/><path class="j" d="M683.227,368.322a17.649,17.649,0,0,1,.129,1.8,5.1,5.1,0,0,0,2.828.848c1.394,0,2.42-1.357,3.347-2.258-.1-1.292.233-1.323.233-1.323S682.293,360.538,683.227,368.322Z" transform="translate(-558.051 -297.999)"/><circle class="y" cx="5.137" cy="5.137" r="5.137" transform="translate(122.997 62.384)"/><path class="j" d="M700.17,394.38s.856.078,2.569,2.412,5.448,2.647,5.448,2.647,1.4-.624,2.958,6.382,2.023,11.676,1.245,12.454a11.333,11.333,0,0,1-5.456,1.871s-.467,9.807.311,11.52a2.654,2.654,0,0,1-.156,2.8L700.247,434a16.282,16.282,0,0,1-2.8-8.095c-.467-5.137-2.023-19.773-1.245-21.485s4.2-6.072,4.048-6.539A28.117,28.117,0,0,1,700.17,394.38Z" transform="translate(-568.379 -321.956)"/><path class="x" d="M701.485,394.14s1.151-.031,2.864,2.3,5.446,2.647,5.446,2.647,1.4-.624,2.958,6.382,2.023,11.676,1.245,12.454a11.33,11.33,0,0,1-5.448,1.869s-.467,9.807.311,11.52a2.654,2.654,0,0,1-.156,2.8l-6.842-.467a16.282,16.282,0,0,1-2.8-8.095c-.467-5.137-2.027-19.771-1.249-21.475s4.2-6.072,4.048-6.539S701.485,394.14,701.485,394.14Z" transform="translate(-569.676 -321.763)"/><path class="j" d="M625,582.208a5.1,5.1,0,0,1,3.444-1.259l-.227-.94s-1.994-.624-2.7,0A4.367,4.367,0,0,0,625,582.208Z" transform="translate(-511.271 -471.076)"/><path class="j" d="M636.268,399.16s-3.97,2.569-4.437,3.659a4.953,4.953,0,0,1-2.18,1.869s-3.268,1.712-3.268,7.784l-1.712,8.562,7.784,10.9s.934-10.9,1.4-13.545,1.089-7.624,1.089-7.624,2.336-2.958,2.023-3.736S636.268,399.16,636.268,399.16Z" transform="translate(-511.005 -325.802)"/><path class="x" d="M634.3,398.92s-4.14,2.3-4.605,3.394a4.957,4.957,0,0,1-2.18,1.869s-3.268,1.712-3.268,7.784l-1.712,8.562-.311,16.346s2.8-2.647,4.826-1.4,3.268-4.048,3.268-4.048.934-10.9,1.4-13.545,1.089-7.624,1.089-7.624,2.336-2.958,2.023-3.736S634.3,398.92,634.3,398.92Z" transform="translate(-509.034 -325.609)"/><path class="j" d="M672.659,330.048a5.082,5.082,0,0,1,.907-.9,2.779,2.779,0,0,1,1.793-.872,2.681,2.681,0,0,1,1.059.379q2.483,1.308,4.951,2.643a4.6,4.6,0,0,1,1.66,1.267,4.883,4.883,0,0,1,.715,2.092,5.128,5.128,0,0,1,.07,1.529,1.918,1.918,0,0,1-.676,1.284c-.444.323-1.052.324-1.423.747a4.163,4.163,0,0,0-.461.884c-.152.3-.416.586-.717.534a.753.753,0,0,1-.526-.694,4.212,4.212,0,0,1,.057-.977,2.315,2.315,0,0,0-.356-1.644c-.235-.3-.571-.477-.8-.782-.543-.735-.3-1.955-.891-2.645a1.413,1.413,0,0,0-1.368-.391,5.852,5.852,0,0,0-1.368.586,10.159,10.159,0,0,1-1.875.723c-.543.149-1.173.5-1.359-.219A4.82,4.82,0,0,1,672.659,330.048Z" transform="translate(-549.034 -268.776)"/><path class="z" d="M673.455,329.258a5.084,5.084,0,0,1,.907-.9,2.779,2.779,0,0,1,1.793-.872,2.682,2.682,0,0,1,1.059.379c1.654.872,3.028.047,4.951,2.643.411.555,1.235.676,1.66,1.267a4.883,4.883,0,0,1,.715,2.092,5.126,5.126,0,0,1,.07,1.529,1.918,1.918,0,0,1-.676,1.284c-.444.323-1.052.324-1.423.747a4.16,4.16,0,0,0-.461.884c-.152.3-.416.586-.717.534a.753.753,0,0,1-.526-.694,4.215,4.215,0,0,1,.057-.977,2.314,2.314,0,0,0-.356-1.644c-.235-.3-.571-.477-.8-.782-.543-.735-.3-1.955-.891-2.645a1.413,1.413,0,0,0-1.368-.391,5.851,5.851,0,0,0-1.368.586,10.163,10.163,0,0,1-1.875.723c-.543.149-1.173.5-1.359-.219A4.809,4.809,0,0,1,673.455,329.258Z" transform="translate(-549.675 -268.14)"/><path class="j" d="M736.237,458.09s2.076,5.294.518,7.473l-3.425-.782s3.114.934,2.647-.934S736.237,458.09,736.237,458.09Z" transform="translate(-598.425 -373.212)"/><path class="j" d="M730.291,522.434s-4.516.311-5.761-.624a11.924,11.924,0,0,0,5.62,2.336Z" transform="translate(-591.345 -424.476)"/><path class="j" d="M645.489,474s-2.336,7.162-2.18,8.251.467,13.077.467,13.077l.467-.156-.156-13.077Z" transform="translate(-525.995 -386.012)"/><path class="aa" d="M305.168,145.442,251.8,102.437a3.339,3.339,0,0,0-2.365-.977h-2.268a28.931,28.931,0,1,0-5.01,5.01v2.266a3.339,3.339,0,0,0,.977,2.365L296.5,154.105a3.323,3.323,0,0,0,4.719,0l3.933-3.929A3.356,3.356,0,0,0,305.168,145.442Zm-80.824-43.983a17.8,17.8,0,1,1,12.6-5.213,17.816,17.816,0,0,1-12.6,5.213Z" transform="translate(-165.673 -48.701)"/><path class="ab" d="M307.168,143.442,253.8,100.437a3.339,3.339,0,0,0-2.365-.977h-2.268a28.931,28.931,0,1,0-5.01,5.01v2.266a3.339,3.339,0,0,0,.977,2.365L298.5,152.105a3.323,3.323,0,0,0,4.719,0l3.933-3.929a3.356,3.356,0,0,0,.014-4.734ZM226.343,99.459a17.8,17.8,0,1,1,12.6-5.213,17.816,17.816,0,0,1-12.6,5.213Z" transform="translate(-167.282 -47.092)"/><path class="y" d="M710.521,476.339s-7.79-8.933-6.7-2.8c.782,4.359,3.736,6.7,5.137,7.162S710.521,476.339,710.521,476.339Z" transform="translate(-574.604 -383.91)"/><path class="x" d="M726.927,454.51s.156,5.761.934,6.539-.467,1.712-.467,1.712l-3.114-.782s.782,5.137-2.49,4.516a9.923,9.923,0,0,0,4.359,2.336c2.18.313,2.023-.467,2.023-.467l3.268-3.892Z" transform="translate(-589.141 -370.332)"/><path class="x" d="M702.039,489.882l3.159-.694-.422-1.456-1.955-.782-2.541,1.173Z" transform="translate(-563.391 -391.767)"/><path class="ac" d="M280.78,145.1a13.23,13.23,0,0,0,2.655,7.972c.174.233.356.457.545.678.1.119.207.237.315.352q.08.09.164.176a13.041,13.041,0,0,0,1.419,1.288l.035.025a13.235,13.235,0,0,0,3.937,2.115l.178.057c.109.037.223.07.334.1l.045.014c.057.016.113.033.172.047a13.236,13.236,0,0,0,3.485.463c.2,0,.4,0,.6-.014a13.145,13.145,0,0,0,3.083-.5h.02c.186-.055.369-.111.551-.174h.02l.166-.059a12.886,12.886,0,0,0,1.837-.813l.037-.02.2-.108a13.259,13.259,0,0,0,2.412-1.736l.065-.061a12.423,12.423,0,0,0,1.136-1.173l.041-.049c.033-.037.065-.074.1-.113.086-.1.168-.207.25-.313A13.292,13.292,0,1,0,280.78,145.1Z" transform="translate(-234.338 -110.716)"/><path class="ad" d="M296.353,161.588s2.883-.244,4.2-2.078c1.288-1.785,2.164-1.806,2.207-1.806h0c.033-.238.057-.465.072-.676V157a.391.391,0,0,1-.182.08c-.258.039-.485-.205-.614-.465a3.63,3.63,0,0,0-.391-.77c-.319-.367-.841-.369-1.22-.649a1.677,1.677,0,0,1-.586-1.118,3.077,3.077,0,0,1-.023-.489,5.412,5.412,0,0,1,.082-1.042,4.292,4.292,0,0,1,.614-1.82c.362-.51,1.069-.62,1.421-1.1,1.648-2.26,2.823-1.542,4.24-2.3a2.271,2.271,0,0,1,.907-.33,2.372,2.372,0,0,1,1.535.76,4.384,4.384,0,0,1,.782.782,4.243,4.243,0,0,1,.618,2.373,3.555,3.555,0,0,1-.09.929c-.113.45-.42.42-.757.319a4.062,4.062,0,0,1-1.38,5.1v.205a.356.356,0,0,0,0,.045,9.261,9.261,0,0,0,.031.934c.033.018,3.194,1.81,3.552,2.66a3.86,3.86,0,0,0,1.683,1.466,5.259,5.259,0,0,1,2.15,3.237l-.041.049a12.537,12.537,0,0,1-1.136,1.2l-.065.063a13.267,13.267,0,0,1-2.412,1.759c-.063.037-.127.074-.2.109l-.037.02a12.779,12.779,0,0,1-1.837.827l-.166.061h-.02c-.182.065-.366.121-.551.176h-.02a12.944,12.944,0,0,1-3.083.512c-.2.01-.391.014-.6.014a13.028,13.028,0,0,1-3.476-.452c-.059-.014-.115-.031-.172-.047l-.045-.014c-.111-.031-.225-.066-.334-.1l-.178-.057a13.18,13.18,0,0,1-3.943-2.152l-.035-.025a13.124,13.124,0,0,1-1.419-1.31q-.084-.086-.164-.18c-.108-.117-.213-.237-.315-.358-.2-.225-.371-.454-.545-.69C295.466,161.186,296.353,161.588,296.353,161.588Z" transform="translate(-245.312 -122.926)"/><path class="y" d="M335.013,191.494l4.2-3.243s-2.817.6-2.737-3.9a.345.345,0,0,1,0-.045,11.522,11.522,0,0,1,.1-1.343c.721-6.007-5.045-.721-5.045-.721a8.6,8.6,0,0,1,0,1.6v.043a11.169,11.169,0,0,1-1.2,4.244C328.767,191.133,335.013,191.494,335.013,191.494Z" transform="translate(-274.002 -149.559)"/><path class="j" d="M338.031,183.009c.713.694,1.149,1.955,2.223,1.955a3.939,3.939,0,0,0,2.184-.655,11.522,11.522,0,0,1,.1-1.343c.721-6.007-5.045-.721-5.045-.721S338.108,182.031,338.031,183.009Z" transform="translate(-279.963 -149.559)"/><circle class="y" cx="3.964" cy="3.964" r="3.964" transform="translate(56.327 27.28)"/><path class="j" d="M331.642,151.514a4.35,4.35,0,0,0-.782-.766,2.371,2.371,0,0,0-1.535-.747,2.3,2.3,0,0,0-.907.324c-1.417.747-2.592.041-4.24,2.262-.352.475-1.058.586-1.421,1.085a4.158,4.158,0,0,0-.614,1.791,4.391,4.391,0,0,0-.061,1.31,1.64,1.64,0,0,0,.586,1.1c.379.276.9.278,1.22.639a3.548,3.548,0,0,1,.391.757c.129.254.356.495.614.457a.633.633,0,0,0,.45-.586,3.6,3.6,0,0,0-.049-.835,2,2,0,0,1,.3-1.407c.2-.256.489-.409.682-.669.465-.628.254-1.681.764-2.264a1.21,1.21,0,0,1,1.173-.326,5,5,0,0,1,1.173.5,8.7,8.7,0,0,0,1.6.62c.465.127,1,.432,1.163-.2A4.132,4.132,0,0,0,331.642,151.514Z" transform="translate(-267.549 -125.346)"/><path class="ae" d="M331.642,150.514a4.351,4.351,0,0,0-.782-.766,2.371,2.371,0,0,0-1.535-.747,2.3,2.3,0,0,0-.907.325c-1.417.747-2.592.041-4.24,2.262-.352.475-1.058.586-1.421,1.085a4.158,4.158,0,0,0-.614,1.791,4.39,4.39,0,0,0-.061,1.31,1.64,1.64,0,0,0,.586,1.1c.379.276.9.278,1.22.639a3.548,3.548,0,0,1,.391.757c.129.254.356.495.614.457a.633.633,0,0,0,.45-.586,3.6,3.6,0,0,0-.049-.835,2,2,0,0,1,.3-1.407c.2-.256.489-.409.682-.669.465-.627.254-1.681.764-2.264a1.21,1.21,0,0,1,1.173-.326,5,5,0,0,1,1.173.5,8.7,8.7,0,0,0,1.6.62c.465.127,1,.432,1.163-.2A4.132,4.132,0,0,0,331.642,150.514Z" transform="translate(-267.549 -124.542)"/><path class="j" d="M326.925,217.446l-.078,3a13.236,13.236,0,0,0,3.485.463c.2,0,.4,0,.6-.014a13.143,13.143,0,0,0,3.083-.5h.02c.186-.055.369-.111.551-.174h.02l.166-.059a12.888,12.888,0,0,0,1.837-.813l.037-.02.2-.108-.3-4.044.483-2.774-2.643-1.8a4.654,4.654,0,0,1-.5.6,3.323,3.323,0,0,1-.9.669c-1.9.934-4.054-.551-5.127-1.47l-.244-.217c-.278-.252-.436-.424-.436-.424L325.85,211.8Z" transform="translate(-270.598 -173.425)"/><path class="p" d="M326.925,218.446l-.078,3a13.236,13.236,0,0,0,3.485.463c.2,0,.4,0,.6-.014a13.144,13.144,0,0,0,3.083-.5h.02c.186-.055.369-.111.551-.174h.02l.166-.059a12.886,12.886,0,0,0,1.837-.813l.037-.02.2-.108-.3-4.044.483-2.774-2.643-1.8a4.654,4.654,0,0,1-.5.6,3.323,3.323,0,0,1-.9.669c-1.9.934-4.054-.551-5.127-1.47l-.244-.217c-.278-.252-.436-.424-.436-.424L325.85,212.8Z" transform="translate(-270.598 -174.23)"/><path d="M294.36,210.241c.174.233.356.457.545.678.1.119.207.237.315.352q.08.09.164.176a13.041,13.041,0,0,0,1.419,1.288l.035.025a13.236,13.236,0,0,0,3.937,2.115l.178.057c.109.037.223.07.334.1l.045.014c.057.016.113.033.172.047a13.235,13.235,0,0,0,3.485.463c.2,0,.4,0,.6-.014a18.806,18.806,0,0,0-.043-5.01,8.059,8.059,0,0,0-.483-.864c-.966-1.552-2.737-3.886-2.641-4.181a3.064,3.064,0,0,0,.08-.44c.1-.77.207-2.18.207-2.18h0c-.043,0-.919.022-2.207,1.777-1.321,1.8-4.2,2.043-4.2,2.043S295.418,206.3,294.36,210.241Z" transform="translate(-245.264 -167.882)"/><path d="M362.345,215.364s.145,1.151.334,2.528h.02l.166-.059a12.888,12.888,0,0,0,1.837-.813l.037-.02.2-.108a13.259,13.259,0,0,0,2.412-1.736l.065-.061a12.425,12.425,0,0,0,1.136-1.173l.041-.049a5.17,5.17,0,0,0-2.15-3.184,3.84,3.84,0,0,1-1.683-1.443c-.362-.841-3.554-2.617-3.554-2.617v.014c0,.151-.051,1.529-.127,2.915-.049.9-.109,1.806-.18,2.381a2.78,2.78,0,0,1-.1.551C360.545,213.083,362.345,215.364,362.345,215.364Z" transform="translate(-298.692 -170.907)"/></g></svg>