<svg xmlns="http://www.w3.org/2000/svg" width="185.127" height="175.435" viewBox="0 0 185.127 175.435">
  <g id="undraw_Connected_re_lmq2" transform="translate(0.042 0.008)">
    <path id="Path_1758" data-name="Path 1758" d="M345.865,179.232a33.405,33.405,0,0,1-14.328,27.447,33,33,0,0,1-3.907,2.35c-.45.231-.9.45-1.364.657-.415.19-.833.369-1.257.539a33.569,33.569,0,0,1-16.6,2.214q-1.462-.173-2.886-.476l-.124-.026a32.675,32.675,0,0,1-5.81-1.808,33.451,33.451,0,1,1,46.276-30.9Z" transform="translate(-279 -145.79)" fill="#f1f1f1"/>
    <path id="Path_1759" data-name="Path 1759" d="M375.376,232.845c-.029-.035-.061-.066-.092-.1a9.643,9.643,0,0,0-13.564-.138c-.02.017-.037.035-.055.052s-.043.04-.064.061a9.638,9.638,0,0,0-2.831,6.828V245.6a1.3,1.3,0,0,0,1.3,1.3h16.724a1.3,1.3,0,0,0,1.3-1.3v-6.055A9.616,9.616,0,0,0,375.376,232.845Z" transform="translate(-335.799 -205.646)" fill="#2f2e41"/>
    <circle id="Ellipse_234" data-name="Ellipse 234" cx="7.082" cy="7.082" r="7.082" transform="translate(25.936 27.032)" fill="#ffb7b7"/>
    <path id="Path_1760" data-name="Path 1760" d="M382.1,242.534l-.836-5.842a.731.731,0,0,0-.257-.458.757.757,0,0,0-.153-.1,14.624,14.624,0,0,0-12.906-.006.707.707,0,0,0-.159.1c-.017.014-.034.032-.052.049a.73.73,0,0,0-.2.435l-.559,5.85a.722.722,0,0,0,.185.554.714.714,0,0,0,.415.225.53.53,0,0,0,.118.012h1.419a.727.727,0,0,0,.655-.415l.614-1.315a.431.431,0,0,1,.819.13l.121.969a.724.724,0,0,0,.715.631h9.351a.693.693,0,0,0,.349-.092.73.73,0,0,0,.2-.156A.723.723,0,0,0,382.1,242.534Z" transform="translate(-341.634 -209.023)" fill="#2f2e41"/>
    <path id="Path_1761" data-name="Path 1761" d="M439.17,325.731l2.007,6.718a33,33,0,0,1-3.907,2.35c-.45.231-.9.45-1.364.657l-2.079-8.913-.807-3.457,5.19-.577Z" transform="translate(-388.64 -271.56)" fill="#ffb7b7"/>
    <path id="Path_1762" data-name="Path 1762" d="M356.568,329.81l-.173,9.077-.075,4.017a32.676,32.676,0,0,1-5.81-1.808l.689-8.6.173-2.168Z" transform="translate(-329.921 -276.755)" fill="#ffb7b7"/>
    <path id="Path_1763" data-name="Path 1763" d="M378.857,310.181l-5.213.781.063.856.629,8.627a33.569,33.569,0,0,1-16.6,2.214q-1.462-.173-2.886-.476c.427-1.793.8-3.408.34-3.725a3.456,3.456,0,0,1-.389-.317c-2.125-2.027-1.341-6.6-1.341-6.6l-3.855.213-1.335.075s.577-9.227,3.172-9.227h3.172l15.282-1.442s4.325-1.442,5.478.577c.606,1.058,1.684,3.3,2.575,5.2.807,1.724,1.462,3.163,1.462,3.163Z" transform="translate(-328.327 -256.01)" fill="#2f2e41"/>
    <path id="Path_1764" data-name="Path 1764" d="M755.887,179.6a33.4,33.4,0,0,1-14.1,26.917l-.231.161c-.081.058-.164.115-.248.17q-.727.5-1.482.96-1.064.649-2.177,1.22l-.072.035q-.64.329-1.292.623l-.04.017c-.1.046-.208.1-.311.138-.8.358-1.626.683-2.462.972q-1.068.376-2.168.675a32.8,32.8,0,0,1-4.57.917,33.326,33.326,0,0,1-3.968.271c-.11,0-.219,0-.329,0-.724,0-1.445-.023-2.157-.069-.623-.04-1.24-.1-1.851-.17-.943-.112-1.874-.262-2.791-.458-.04-.006-.081-.014-.121-.023l-.1-.02c-.923-.193-1.831-.43-2.722-.7q-1.259-.381-2.471-.859c-.208-.081-.412-.161-.617-.248-.51-.213-1.015-.435-1.511-.675-.144-.066-.285-.136-.427-.2-.479-.234-.951-.479-1.413-.738q-.835-.463-1.641-.972c-.678-.427-1.341-.877-1.984-1.352A33.448,33.448,0,1,1,755.887,179.6Z" transform="translate(-570.804 -145.794)" fill="#f1f1f1"/>
    <path id="Path_1765" data-name="Path 1765" d="M773.942,325.753c-.923-.193-1.831-.43-2.722-.7l3.059-18.97,3.169-.1,5.747-.182,2.947-.092s2.09,9.187,3.685,19.593a32.8,32.8,0,0,1-4.57.917,33.338,33.338,0,0,1-3.968.271c-.11,0-.219,0-.329,0-.724,0-1.444-.023-2.157-.069-.623-.04-1.24-.1-1.851-.17-.943-.112-1.874-.262-2.791-.458-.04-.006-.081-.014-.121-.023Z" transform="translate(-629.323 -259.604)" fill="#cbcbcb"/>
    <path id="Path_1766" data-name="Path 1766" d="M761.131,325.34c-.04-.006-.081-.014-.121-.023l-.1-.02c-.923-.193-1.831-.43-2.722-.7q-1.259-.381-2.471-.859c-.208-.081-.412-.161-.617-.248-.51-.213-1.015-.435-1.511-.675-.144-.066-.285-.136-.427-.2l-.254-14.2,7.785-3.336s.026.208,3.722.458C765.121,307.824,761.131,325.34,761.131,325.34Z" transform="translate(-616.292 -259.148)" fill="#2f2e41"/>
    <path id="Path_1767" data-name="Path 1767" d="M821.761,305.905l-1.468,7.713.138,6.975q-.64.329-1.292.623l-.04.017c-.1.046-.208.1-.311.138-.8.358-1.626.683-2.462.972q-1.068.376-2.168.675a32.788,32.788,0,0,1-4.57.917,33.327,33.327,0,0,1-3.968.271l-.153-12.361c-.323-3.985.747-6.62,2.059-8.327,6.992-.934,6.837-1.018,6.837-1.018l7.413,3.336Z" transform="translate(-653.653 -257.319)" fill="#2f2e41"/>
    <path id="Path_1768" data-name="Path 1768" d="M749.336,317.753l-.528,14.218c-.208-.081-.412-.161-.617-.248-.51-.213-1.015-.435-1.511-.675-.144-.066-.285-.136-.427-.2-.479-.234-.951-.479-1.413-.738q-.835-.463-1.641-.972L746,316.64Z" transform="translate(-609.382 -267.382)" fill="#2f2e41"/>
    <path id="Path_1769" data-name="Path 1769" d="M857.13,326.331l-.231.161c-.081.058-.164.115-.248.17q-.727.5-1.482.96-1.064.649-2.177,1.22l-.072.035q-.659.339-1.331.641h0l-.528-14.267,3.189-1.061.147-.049Z" transform="translate(-686.142 -265.603)" fill="#2f2e41"/>
    <ellipse id="Ellipse_235" data-name="Ellipse 235" cx="8.247" cy="8.226" rx="8.247" ry="8.226" transform="translate(141.488 38.668) rotate(-73.66)" fill="#9f616a"/>
    <path id="Path_1770" data-name="Path 1770" d="M773.833,237.864v-3.21s-2.588-3.048.259-3.816c0,0,.776-7.679,7.506-4.1,0,0,9.318-1.536,8.283,3.84,0,0,2.33-1.4,1.553,2.18l-1.5,5.773s.725-3.813-1.6-4.325l-1.294-.768s-3.624,3.584-9.059-.768c0,0-2.329-.556-2.071,1.748S773.833,237.864,773.833,237.864Z" transform="translate(-630.416 -202.728)" fill="#2f2e41"/>
    <path id="Path_1771" data-name="Path 1771" d="M550.871,529.229a33.405,33.405,0,0,1-14.328,27.447c-.081.058-.164.115-.248.17q-.727.5-1.482.96-1.064.649-2.177,1.22c-.45.231-.9.45-1.364.657-.115.052-.234.107-.352.156-.8.358-1.626.683-2.462.972a32.928,32.928,0,0,1-6.739,1.592,33.536,33.536,0,0,1-4.3.274c-.724,0-1.445-.023-2.157-.069-.623-.04-1.24-.1-1.851-.17-.983-.118-1.955-.277-2.912-.482l-.1-.02a32.672,32.672,0,0,1-5.81-1.808c-.51-.213-1.015-.435-1.511-.675q-.939-.441-1.84-.943a33.45,33.45,0,1,1,49.626-29.281Z" transform="translate(-424.896 -394.867)" fill="#f1f1f1"/>
    <circle id="Ellipse_236" data-name="Ellipse 236" cx="7.469" cy="7.469" r="7.469" transform="translate(84.14 127.667)" fill="#ffb8b8"/>
    <path id="Path_1772" data-name="Path 1772" d="M578.912,670.148q-1.475-.177-2.912-.482l.908-20.438.13-.136,1.86-1.964h5.914l2.183,2.114.185.182,4.668,4.472,2.108,14.625a32.931,32.931,0,0,1-6.739,1.592,33.536,33.536,0,0,1-4.3.274c-.724,0-1.444-.023-2.157-.069C580.141,670.278,579.523,670.223,578.912,670.148Z" transform="translate(-490.393 -502.578)" fill="#cbcbcb"/>
    <path id="Path_1773" data-name="Path 1773" d="M545.481,671.768q-.939-.441-1.84-.943c-.061-5.536-.1-9.213-.1-9.213l.7-.43.026-.012,7.984-4.85,1.675-2.722.009.1.493,5.738a99.983,99.983,0,0,1,3.232,15.487c-.623-.04-1.24-.1-1.851-.17q-1.475-.177-2.912-.482l-.1-.02a32.67,32.67,0,0,1-5.81-1.808C546.481,672.23,545.977,672.008,545.481,671.768Z" transform="translate(-467.292 -507.183)" fill="#2f2e41"/>
    <path id="Path_1774" data-name="Path 1774" d="M619.912,673.127a32.928,32.928,0,0,1-6.739,1.592,26.317,26.317,0,0,1-.349-5.637c.623-9.956-.813-15.481-.19-15.481l.317.248,3.919,3.1,5.158,1.891h0l3.55,1.3.626.231v.3c0,1.026.009,4.619.061,9.458q-1.064.649-2.177,1.22c-.45.231-.9.45-1.364.657-.115.052-.234.107-.352.156C621.57,672.512,620.748,672.838,619.912,673.127Z" transform="translate(-516.35 -507.183)" fill="#2f2e41"/>
    <path id="Path_1775" data-name="Path 1775" d="M567.573,590.7s.635-1.114.487-4.837,5.522-1.617,10.259-1.972,3.734,6.216,3.734,6.216.342-.391,1.073-3.562a10.353,10.353,0,0,0-.93-6.331c-.489-3.332-3.126-2.264-3.126-2.264A1.383,1.383,0,0,1,580.1,579.5c-1.075-1.885-3.712-.817-3.712-.817-3.517-2.207-7.081.7-7.081.7-4.249.964-1.757,4.343-1.757,4.343C563.274,585.889,567.573,590.7,567.573,590.7Z" transform="translate(-483.03 -453.232)" fill="#2f2e41"/>
    <path id="Path_1776" data-name="Path 1776" d="M531.32,687.19c.11-2.535.159-4.169.1-4.4-.3-1.188,3.757-2.78,4.126-2.921l.026-.012.825.441.386,10.155q-.939-.441-1.84-.943A33.222,33.222,0,0,1,531.32,687.19Z" transform="translate(-458.596 -525.871)" fill="#2f2e41"/>
    <path id="Path_1777" data-name="Path 1777" d="M647.5,682.932q-1.064.649-2.177,1.22c-.45.231-.9.45-1.364.657-.115.052-.234.107-.352.156l-1.3-12.811.758-.554.193.046h0a15.007,15.007,0,0,1,3.55,1.3,2.225,2.225,0,0,1,.626.528.641.641,0,0,1,.147.456c-.034.334.542,3.506,1.4,8.042Q648.256,682.473,647.5,682.932Z" transform="translate(-537.583 -519.993)" fill="#2f2e41"/>
    <path id="Path_1778" data-name="Path 1778" d="M127.4,352.393H115V296.788h.577v55.029H127.4Z" transform="translate(-81.871 -211.217)" fill="#f1f1f1"/>
    <path id="Path_1779" data-name="Path 1779" d="M496.4,351.121h-12.4v-.577h11.827V295h.577Z" transform="translate(-344.467 -209.945)" fill="#f1f1f1"/>
    <circle id="Ellipse_237" data-name="Ellipse 237" cx="7.623" cy="7.623" r="7.623" transform="translate(144.015 58.091)" fill="#fff"/>
    <path id="Path_1780" data-name="Path 1780" d="M517.85,223.214l-2.282-2.934,1.327-1.032,1.08,1.389,3.65-3.852,1.22,1.156Z" transform="translate(-366.938 -154.282)"/>
    <circle id="Ellipse_238" data-name="Ellipse 238" cx="7.623" cy="7.623" r="7.623" transform="translate(25.795 58.686)" fill="#fff"/>
    <path id="Path_1781" data-name="Path 1781" d="M107.85,225.277l-2.282-2.934,1.327-1.032,1.08,1.389,3.65-3.852,1.22,1.156Z" transform="translate(-75.158 -155.75)"/>
    <circle id="Ellipse_239" data-name="Ellipse 239" cx="7.623" cy="7.623" r="7.623" transform="translate(84.905 160.182)" fill="#fff"/>
    <path id="Path_1782" data-name="Path 1782" d="M312.85,577.277l-2.282-2.934,1.327-1.032,1.08,1.389,3.65-3.852,1.22,1.156Z" transform="translate(-221.048 -406.254)"/>
  </g>
</svg>
