<svg xmlns="http://www.w3.org/2000/svg" width="198.248" height="173.824" viewBox="0 0 198.248 173.824">
  <g id="undraw_add_friends_re_3xte" transform="translate(0 -0.001)">
    <path id="Path_339" data-name="Path 339" d="M737.579,135.951h-.954V109.787a15.143,15.143,0,0,0-15.143-15.143H666.048a15.143,15.143,0,0,0-15.143,15.143V253.325a15.143,15.143,0,0,0,15.143,15.143h55.433a15.143,15.143,0,0,0,15.143-15.143v-98.75h.954Z" transform="translate(-539.331 -94.644)" fill="#3f3d56"/>
    <path id="Path_340" data-name="Path 340" d="M743.084,116.943V262.509A11.485,11.485,0,0,1,731.6,273.993H675.032a11.487,11.487,0,0,1-11.489-11.485V116.943a11.487,11.487,0,0,1,11.488-11.483h6.862a5.461,5.461,0,0,0,5.052,7.518H719.2a5.461,5.461,0,0,0,5.052-7.518H731.6a11.485,11.485,0,0,1,11.483,11.479Z" transform="translate(-548.879 -102.814)" fill="#fff"/>
    <path id="Path_45" data-name="Path 45" d="M753.591,240.433a24.287,24.287,0,0,1-24.3-24.275v-.022c0-.051,0-.1,0-.155a24.3,24.3,0,1,1,24.294,24.451h0Zm0-48.081A23.835,23.835,0,0,0,729.81,216c0,.054,0,.1,0,.139a23.787,23.787,0,1,0,23.787-23.784Z" transform="translate(-598.549 -168.068)" fill="#e6e6e6"/>
    <path id="Path_39" data-name="Path 39" d="M773.211,450.7h-50.27a.932.932,0,0,1-.931-.931v-12.47a.932.932,0,0,1,.931-.931h50.27a.932.932,0,0,1,.931.931v12.47a.932.932,0,0,1-.931.931Zm-50.27-13.959a.559.559,0,0,0-.559.559v12.47a.559.559,0,0,0,.559.559h50.27a.559.559,0,0,0,.559-.559v-12.47a.559.559,0,0,0-.559-.559Z" transform="translate(-593.045 -352.787)" fill="#e6e6e6"/>
    <path id="Path_40" data-name="Path 40" d="M787.367,455a.652.652,0,1,0,0,1.3h30.72a.652.652,0,0,0,.05-1.3h-30.77Z" transform="translate(-641.925 -366.868)" fill="#e6e6e6"/>
    <path id="Path_41" data-name="Path 41" d="M787.367,470.99a.652.652,0,1,0,0,1.3h30.72a.652.652,0,1,0,.05-1.3h-30.77Z" transform="translate(-641.925 -378.944)" fill="#e6e6e6"/>
    <path id="Path_42" data-name="Path 42" d="M773.211,535.954h-50.27a.932.932,0,0,1-.931-.931v-12.47a.932.932,0,0,1,.931-.931h50.27a.932.932,0,0,1,.931.931v12.47a.932.932,0,0,1-.931.931ZM722.941,522a.559.559,0,0,0-.559.559v12.47a.559.559,0,0,0,.559.559h50.27a.559.559,0,0,0,.559-.559v-12.47a.559.559,0,0,0-.559-.559Z" transform="translate(-593.045 -417.193)" fill="#e6e6e6"/>
    <path id="Path_43" data-name="Path 43" d="M787.367,540.26a.652.652,0,0,0,0,1.3h30.72a.652.652,0,1,0,.021-1.3H787.367Z" transform="translate(-641.925 -431.272)" fill="#e6e6e6"/>
    <path id="Path_44" data-name="Path 44" d="M787.367,556.251a.652.652,0,0,0,0,1.3h30.72a.652.652,0,1,0,.021-1.3H787.367Z" transform="translate(-641.925 -443.352)" fill="#e6e6e6"/>
    <path id="Path_39-2" data-name="Path 39-2" d="M773.211,621.212h-50.27a.932.932,0,0,1-.931-.931v-12.47a.932.932,0,0,1,.931-.931h50.27a.932.932,0,0,1,.931.931v12.47a.932.932,0,0,1-.931.931Zm-50.27-13.959a.559.559,0,0,0-.559.559v12.47a.559.559,0,0,0,.559.559h50.27a.559.559,0,0,0,.559-.559v-12.47a.559.559,0,0,0-.559-.559Z" transform="translate(-593.045 -481.599)" fill="#e6e6e6"/>
    <path id="Path_40-2" data-name="Path 40-2" d="M787.367,625.521a.652.652,0,1,0,0,1.3h30.72a.652.652,0,0,0,.05-1.3h-30.77Z" transform="translate(-641.925 -495.68)" fill="#e6e6e6"/>
    <path id="Path_41-2" data-name="Path 41-2" d="M787.367,641.508a.652.652,0,0,0,0,1.3h30.72a.652.652,0,0,0,.05-1.3h-30.77Z" transform="translate(-641.925 -507.757)" fill="#e6e6e6"/>
    <g id="Group_76" data-name="Group 76" transform="translate(33.044 37.664)">
      <path id="Path_1236" data-name="Path 1236" d="M391.279,653.078s-5.794,6.345-6.621,20.967-1.1,16.277-1.1,16.277h20.691l3.86-9.931,4.415,9.93h19.587s2.207-30.347,0-31.175S391.279,653.078,391.279,653.078Z" transform="translate(-370.412 -554.161)" fill="#2f2e41"/>
      <circle id="Ellipse_232" data-name="Ellipse 232" cx="9.932" cy="9.932" r="9.932" transform="translate(38.661 4.428)" fill="#ffb8b8"/>
      <path id="Path_1238" data-name="Path 1238" d="M629.765,510.2l-15.173-27.588-8.829-14.346,10.484-4.69,5.794,11.311s7.725,11.311,9.656,20.691,3.862,13.794,3.862,13.794Z" transform="translate(-538.273 -411.008)" fill="#ffb8b8"/>
      <path id="Path_1239" data-name="Path 1239" d="M346.778,510.721,369.4,490.857l-1.1-16h-6.345l-1.932,8.276-18.208,24Z" transform="translate(-338.879 -419.528)" fill="#ffb8b8"/>
      <path id="Path_1240" data-name="Path 1240" d="M427.152,365.335s8.193,3.435,14.3-.766c0,0,14.939,2.421,15.767,3.248s-.828,25.656-.828,25.656l-3.31,14.07s4.69,21.519-2.207,27.036l1.379,7.449s-30.622,2.207-42.761-5.242l2.207-7.449,5.794-23.45-3.586-32.553S416.667,365.887,427.152,365.335Z" transform="translate(-390.009 -336.215)" fill="#e4e4e4"/>
      <path id="Path_1241" data-name="Path 1241" d="M570.762,379.52l7.173-1.1s3.586.552,6.9,7.449,6.9,16,6.9,16l-12.414,5.518-10.207-16Z" transform="translate(-510.583 -346.676)" fill="#e4e4e4"/>
      <path id="Path_1242" data-name="Path 1242" d="M422.382,394.771l-1.655,1.379s-2.207,8-2.207,13.518v7.449l9.932,1.1Z" transform="translate(-396.826 -359.03)" fill="#e4e4e4"/>
      <path id="Path_1243" data-name="Path 1243" d="M483.546,265.692a4.866,4.866,0,0,1-1.213-3.283,10.406,10.406,0,0,0-.2-3.1,30.634,30.634,0,0,1,1.047-4.719c.624-1.732.1-2.334,2.78-3.279s.975-4.364,8.882-1.639a2.163,2.163,0,0,0,2.353.481c1.46-.535,2.34,1.471,2.34,1.471s.911-.747,1.421.03,2.982-.993,3.889,4.657-2.2,10.69-2.2,10.69-.437-9.042-5.572-9.206-10.942-2.109-11.663,1.7A27.761,27.761,0,0,1,483.546,265.692Z" transform="translate(-444.883 -248.636)" fill="#2f2e41"/>
      <circle id="Ellipse_240" data-name="Ellipse 240" cx="4.28" cy="4.28" r="4.28" transform="translate(0 86.858)" fill="#ffb8b8"/>
    </g>
    <path id="Path_1259" data-name="Path 1259" d="M202.964,604.858l70.491-14.071-5.891-29.511-70.491,14.07Z" transform="translate(-196.496 -447.148)" fill="#fff"/>
    <path id="Path_1260" data-name="Path 1260" d="M272.25,589.389,200.8,603.652l-6.083-30.474,71.453-14.263ZM201.567,602.5,271.1,588.619l-5.7-28.55-69.529,13.88Z" transform="translate(-194.714 -445.364)" fill="#e4e4e4"/>
    <g id="Group_77" data-name="Group 77" transform="translate(15.041 122.648)">
      <path id="Path_1230" data-name="Path 1230" d="M270.622,639.3l-.029.012c-.23.095-.463.184-.7.263-.08.027-.164.053-.245.077s-.164.05-.248.073c-.136.039-.276.074-.416.106-.06.015-.123.029-.184.042l-.036.008c-.075.016-.15.032-.226.045l-.2.034c-.036.008-.072.013-.108.018A10.409,10.409,0,1,1,269.85,619.8a10.408,10.408,0,0,0,3.747,17.618,10.36,10.36,0,0,1-2.975,1.883Z" transform="translate(-256.211 -613.616)" fill="#474747"/>
      <path id="Path_1231" data-name="Path 1231" d="M326.628,625.255a10.165,10.165,0,0,0,1.41.579,10.354,10.354,0,0,1-4.8,2.455l-.131.028a10.409,10.409,0,1,1,1.182-20.1,10.389,10.389,0,0,0,2.337,17.038Z" transform="translate(-297.337 -604.867)" fill="#474747"/>
      <path id="Path_1232" data-name="Path 1232" d="M385.725,604.356a10.409,10.409,0,1,1-12.346-8.016h0A10.409,10.409,0,0,1,385.725,604.356Z" transform="translate(-338.493 -596.11)" fill="#474747"/>
      <path id="Path_1233" data-name="Path 1233" d="M403.57,635.846a6.974,6.974,0,0,1,.154,1.4,10.428,10.428,0,0,1-7.965,1.694,6.978,6.978,0,0,1-.43-1.343,5.483,5.483,0,0,1,1.815-5.711,3.222,3.222,0,1,1,2.443-.52A5.482,5.482,0,0,1,403.57,635.846Z" transform="translate(-360.697 -618.313)" fill="#fff"/>
      <path id="Path_1234" data-name="Path 1234" d="M348.063,647.623l.007.032a10.638,10.638,0,0,1,.119,1.748,9.7,9.7,0,0,1-3.644,1.282l-.131.028a10.366,10.366,0,0,1-4.155.037,1.086,1.086,0,0,1-.049-.121,6.673,6.673,0,0,1-.381-1.221,5.483,5.483,0,0,1,1.816-5.711,3.221,3.221,0,0,1-.066-6.315,3.112,3.112,0,0,1,.751-.068,10.4,10.4,0,0,0,5.735,10.311Z" transform="translate(-318.771 -627.234)" fill="#fff"/>
      <path id="Path_1235" data-name="Path 1235" d="M294.573,659.185a6.685,6.685,0,0,1,.129,1.26,10.369,10.369,0,0,1-2.682,1.351c-.08.027-.164.053-.245.077s-.164.05-.248.073c-.136.039-.276.074-.416.106-.029.009-.06.015-.089.021l-.131.028c-.075.016-.15.032-.226.046l-.2.034c-.036.008-.072.013-.108.018a10.316,10.316,0,0,1-3.626-.06.042.042,0,0,1-.006-.016.809.809,0,0,1-.043-.1,6.668,6.668,0,0,1-.381-1.221,5.483,5.483,0,0,1,1.815-5.711,3.221,3.221,0,0,1-.066-6.315,3.161,3.161,0,0,1,.53-.067,10.4,10.4,0,0,0,5.987,10.483Z" transform="translate(-278.34 -635.84)" fill="#fff"/>
    </g>
    <path id="Path_1265" data-name="Path 1265" d="M748.059,455.7a3.485,3.485,0,0,1-.071.7,5.215,5.215,0,0,1-4.072,0,3.49,3.49,0,0,1-.071-.7,2.742,2.742,0,0,1,1.482-2.6,1.611,1.611,0,1,1,1.249,0A2.741,2.741,0,0,1,748.059,455.7Z" transform="translate(-609.54 -363.088)" fill="#343434"/>
    <path id="Path_1266" data-name="Path 1266" d="M748.058,542.688a3.485,3.485,0,0,1-.071.7,5.215,5.215,0,0,1-4.072,0,3.494,3.494,0,0,1-.071-.7,2.742,2.742,0,0,1,1.482-2.6,1.611,1.611,0,1,1,1.249,0A2.741,2.741,0,0,1,748.058,542.688Z" transform="translate(-609.54 -428.8)" fill="#343434"/>
    <path id="Path_1267" data-name="Path 1267" d="M748.058,627.945a3.485,3.485,0,0,1-.071.7,5.215,5.215,0,0,1-4.072,0,3.494,3.494,0,0,1-.071-.7,2.742,2.742,0,0,1,1.482-2.6,1.611,1.611,0,1,1,1.249,0A2.741,2.741,0,0,1,748.058,627.945Z" transform="translate(-609.54 -493.205)" fill="#343434"/>
    <circle id="Ellipse_241" data-name="Ellipse 241" cx="3.913" cy="3.913" r="3.913" transform="translate(123.782 134.06)" fill="#ffb8b8"/>
  </g>
</svg>
