<svg xmlns="http://www.w3.org/2000/svg" width="20.602" height="20.585" viewBox="0 0 20.602 20.585">
  <g id="twitter" transform="translate(0)">
    <g id="Group_192" data-name="Group 192" transform="translate(0 0)">
      <path id="Path_1651" data-name="Path 1651" d="M15.423.2H5.163A5.174,5.174,0,0,0,0,5.363V15.639a5.17,5.17,0,0,0,5.163,5.146H15.439A5.174,5.174,0,0,0,20.6,15.623V5.363A5.2,5.2,0,0,0,15.423.2Zm-.016,7.711v.343a7.384,7.384,0,0,1-7.5,7.385,7.521,7.521,0,0,1-4.035-1.16c.212.016.408.033.621.033A5.262,5.262,0,0,0,7.76,13.4a2.632,2.632,0,0,1-2.467-1.8,2.494,2.494,0,0,0,.49.049,2.434,2.434,0,0,0,.7-.1A2.611,2.611,0,0,1,4.411,9.006V8.973A2.527,2.527,0,0,0,5.587,9.3a2.562,2.562,0,0,1-.817-3.464,7.548,7.548,0,0,0,5.424,2.712,2.4,2.4,0,0,1-.065-.588,2.611,2.611,0,0,1,2.63-2.6,2.677,2.677,0,0,1,1.928.817,4.9,4.9,0,0,0,1.666-.637,2.66,2.66,0,0,1-1.16,1.438,5.22,5.22,0,0,0,1.519-.408A5.365,5.365,0,0,1,15.406,7.911Z" transform="translate(0 -0.2)"/>
    </g>
  </g>
</svg>
